<svg width="90" height="90" viewBox="0 0 90 90" fill="none" xmlns="http://www.w3.org/2000/svg">
<rect width="90" height="90" rx="45" fill="#EB292C" fill-opacity="0.1"/>
<path d="M37.9219 37.0039L36.3926 41.375H53.6074L52.0781 37.0039C51.8145 36.2539 51.1055 35.75 50.3086 35.75H39.6914C38.8945 35.75 38.1855 36.2539 37.9219 37.0039ZM32.3203 41.6562L34.3828 35.7676C35.1738 33.5117 37.3008 32 39.6914 32H50.3086C52.6992 32 54.8262 33.5117 55.6172 35.7676L57.6797 41.6562C59.0391 42.2188 60 43.5605 60 45.125V56.375C60 57.4121 59.1621 58.25 58.125 58.25H56.25C55.2129 58.25 54.375 57.4121 54.375 56.375V53.5625H35.625V56.375C35.625 57.4121 34.7871 58.25 33.75 58.25H31.875C30.8379 58.25 30 57.4121 30 56.375V45.125C30 43.5605 30.9609 42.2188 32.3203 41.6562ZM37.5 47C37.5 46.5027 37.3025 46.0258 36.9508 45.6742C36.5992 45.3225 36.1223 45.125 35.625 45.125C35.1277 45.125 34.6508 45.3225 34.2992 45.6742C33.9475 46.0258 33.75 46.5027 33.75 47C33.75 47.4973 33.9475 47.9742 34.2992 48.3258C34.6508 48.6775 35.1277 48.875 35.625 48.875C36.1223 48.875 36.5992 48.6775 36.9508 48.3258C37.3025 47.9742 37.5 47.4973 37.5 47ZM54.375 48.875C54.8723 48.875 55.3492 48.6775 55.7008 48.3258C56.0525 47.9742 56.25 47.4973 56.25 47C56.25 46.5027 56.0525 46.0258 55.7008 45.6742C55.3492 45.3225 54.8723 45.125 54.375 45.125C53.8777 45.125 53.4008 45.3225 53.0492 45.6742C52.6975 46.0258 52.5 46.5027 52.5 47C52.5 47.4973 52.6975 47.9742 53.0492 48.3258C53.4008 48.6775 53.8777 48.875 54.375 48.875Z" fill="#E82F27"/>
</svg>
