<svg width="91" height="90" viewBox="0 0 91 90" fill="none" xmlns="http://www.w3.org/2000/svg">
<rect x="0.969971" width="90" height="90" rx="45" fill="white" fill-opacity="0.15"/>
<path d="M58.1375 40.8877C59.7 39.3252 58.9875 37.5002 58.1375 36.6127L54.3875 32.8627C52.8125 31.3002 51 32.0127 50.1125 32.8627L47.9875 35.0002H44.75C42.375 35.0002 41 36.2502 40.3 37.6877L34.75 43.2377V48.2377L33.8625 49.1127C32.3 50.6877 33.0125 52.5002 33.8625 53.3877L37.6125 57.1377C38.2875 57.8127 39.0125 58.0627 39.7 58.0627C40.5875 58.0627 41.4 57.6252 41.8875 57.1377L45.2625 53.7502H49.75C51.875 53.7502 52.95 52.4252 53.3375 51.1252C54.75 50.7502 55.525 49.6752 55.8375 48.6252C57.775 48.1252 58.5 46.2877 58.5 45.0002V41.2502H57.7625L58.1375 40.8877ZM56 45.0002C56 45.5627 55.7625 46.2502 54.75 46.2502H53.5V47.5002C53.5 48.0627 53.2625 48.7502 52.25 48.7502H51V50.0002C51 50.5627 50.7625 51.2502 49.75 51.2502H44.2375L40.1375 55.3502C39.75 55.7127 39.525 55.5002 39.3875 55.3627L35.65 51.6377C35.2875 51.2502 35.5 51.0252 35.6375 50.8877L37.25 49.2627V44.2627L39.75 41.7627V43.7502C39.75 45.2627 40.75 47.5002 43.5 47.5002C46.25 47.5002 47.25 45.2627 47.25 43.7502H56V45.0002ZM56.3625 39.1127L54.2375 41.2502H44.75V43.7502C44.75 44.3127 44.5125 45.0002 43.5 45.0002C42.4875 45.0002 42.25 44.3127 42.25 43.7502V40.0002C42.25 39.4252 42.4625 37.5002 44.75 37.5002H49.0125L51.8625 34.6502C52.25 34.2877 52.475 34.5002 52.6125 34.6377L56.35 38.3627C56.7125 38.7502 56.5 38.9752 56.3625 39.1127Z" fill="white"/>
</svg>
