<svg width="165" height="236" viewBox="0 0 165 236" fill="none" xmlns="http://www.w3.org/2000/svg">
<circle cx="40" cy="40" r="40" fill="#E82F27"/>
<path d="M1.26 118V105.04H6.399C7.275 105.04 7.992 105.217 8.55 105.571C9.114 105.919 9.531 106.366 9.801 106.912C10.077 107.458 10.215 108.022 10.215 108.604C10.215 109.318 10.044 109.924 9.702 110.422C9.366 110.92 8.907 111.256 8.325 111.43V110.98C9.141 111.166 9.759 111.553 10.179 112.141C10.605 112.729 10.818 113.398 10.818 114.148C10.818 114.916 10.671 115.588 10.377 116.164C10.083 116.74 9.645 117.19 9.063 117.514C8.487 117.838 7.773 118 6.921 118H1.26ZM3.456 115.957H6.651C7.029 115.957 7.368 115.882 7.668 115.732C7.968 115.576 8.202 115.36 8.37 115.084C8.544 114.802 8.631 114.469 8.631 114.085C8.631 113.737 8.556 113.425 8.406 113.149C8.256 112.873 8.037 112.654 7.749 112.492C7.461 112.324 7.116 112.24 6.714 112.24H3.456V115.957ZM3.456 110.215H6.372C6.684 110.215 6.963 110.155 7.209 110.035C7.455 109.915 7.65 109.738 7.794 109.504C7.938 109.27 8.01 108.982 8.01 108.64C8.01 108.19 7.866 107.815 7.578 107.515C7.29 107.215 6.888 107.065 6.372 107.065H3.456V110.215ZM16.9085 118.27C15.9365 118.27 15.0875 118.051 14.3615 117.613C13.6355 117.175 13.0715 116.572 12.6695 115.804C12.2735 115.03 12.0755 114.142 12.0755 113.14C12.0755 112.12 12.2795 111.226 12.6875 110.458C13.0955 109.69 13.6625 109.09 14.3885 108.658C15.1145 108.226 15.9545 108.01 16.9085 108.01C17.8865 108.01 18.7385 108.229 19.4645 108.667C20.1905 109.105 20.7545 109.711 21.1565 110.485C21.5585 111.253 21.7595 112.138 21.7595 113.14C21.7595 114.148 21.5555 115.039 21.1475 115.813C20.7455 116.581 20.1815 117.184 19.4555 117.622C18.7295 118.054 17.8805 118.27 16.9085 118.27ZM16.9085 116.236C17.7725 116.236 18.4145 115.948 18.8345 115.372C19.2545 114.796 19.4645 114.052 19.4645 113.14C19.4645 112.198 19.2515 111.448 18.8255 110.89C18.3995 110.326 17.7605 110.044 16.9085 110.044C16.3265 110.044 15.8465 110.176 15.4685 110.44C15.0965 110.698 14.8205 111.061 14.6405 111.529C14.4605 111.991 14.3705 112.528 14.3705 113.14C14.3705 114.082 14.5835 114.835 15.0095 115.399C15.4415 115.957 16.0745 116.236 16.9085 116.236ZM28.0354 118.27C27.0634 118.27 26.2144 118.051 25.4884 117.613C24.7624 117.175 24.1984 116.572 23.7964 115.804C23.4004 115.03 23.2024 114.142 23.2024 113.14C23.2024 112.12 23.4064 111.226 23.8144 110.458C24.2224 109.69 24.7894 109.09 25.5154 108.658C26.2414 108.226 27.0814 108.01 28.0354 108.01C29.0134 108.01 29.8654 108.229 30.5914 108.667C31.3174 109.105 31.8814 109.711 32.2834 110.485C32.6854 111.253 32.8864 112.138 32.8864 113.14C32.8864 114.148 32.6824 115.039 32.2744 115.813C31.8724 116.581 31.3084 117.184 30.5824 117.622C29.8564 118.054 29.0074 118.27 28.0354 118.27ZM28.0354 116.236C28.8994 116.236 29.5414 115.948 29.9614 115.372C30.3814 114.796 30.5914 114.052 30.5914 113.14C30.5914 112.198 30.3784 111.448 29.9524 110.89C29.5264 110.326 28.8874 110.044 28.0354 110.044C27.4534 110.044 26.9734 110.176 26.5954 110.44C26.2234 110.698 25.9474 111.061 25.7674 111.529C25.5874 111.991 25.4974 112.528 25.4974 113.14C25.4974 114.082 25.7104 114.835 26.1364 115.399C26.5684 115.957 27.2014 116.236 28.0354 116.236ZM34.8514 118L34.8694 105.04H37.0654V112.96L40.6204 108.28H43.3294L39.5584 113.14L43.6534 118H40.7824L37.0654 113.32V118H34.8514ZM44.7349 106.804V104.815H46.9039V106.804H44.7349ZM44.7349 118V108.28H46.9039V118H44.7349ZM56.3228 118V113.32C56.3228 113.014 56.3018 112.675 56.2598 112.303C56.2178 111.931 56.1188 111.574 55.9628 111.232C55.8128 110.884 55.5848 110.599 55.2788 110.377C54.9788 110.155 54.5708 110.044 54.0548 110.044C53.7788 110.044 53.5058 110.089 53.2358 110.179C52.9658 110.269 52.7198 110.425 52.4978 110.647C52.2818 110.863 52.1078 111.163 51.9758 111.547C51.8438 111.925 51.7778 112.411 51.7778 113.005L50.4908 112.456C50.4908 111.628 50.6498 110.878 50.9678 110.206C51.2918 109.534 51.7658 109 52.3898 108.604C53.0138 108.202 53.7818 108.001 54.6938 108.001C55.4138 108.001 56.0078 108.121 56.4758 108.361C56.9438 108.601 57.3158 108.907 57.5918 109.279C57.8678 109.651 58.0718 110.047 58.2038 110.467C58.3358 110.887 58.4198 111.286 58.4558 111.664C58.4978 112.036 58.5188 112.339 58.5188 112.573V118H56.3228ZM49.5818 118V108.28H51.5168V111.295H51.7778V118H49.5818ZM64.9534 122.59C64.4134 122.59 63.8944 122.506 63.3964 122.338C62.9044 122.17 62.4604 121.927 62.0644 121.609C61.6684 121.297 61.3444 120.919 61.0924 120.475L63.0904 119.485C63.2764 119.839 63.5374 120.1 63.8734 120.268C64.2154 120.442 64.5784 120.529 64.9624 120.529C65.4124 120.529 65.8144 120.448 66.1684 120.286C66.5224 120.13 66.7954 119.896 66.9874 119.584C67.1854 119.278 67.2784 118.894 67.2664 118.432V115.669H67.5364V108.28H69.4354V118.468C69.4354 118.714 69.4234 118.948 69.3994 119.17C69.3814 119.398 69.3484 119.62 69.3004 119.836C69.1564 120.466 68.8804 120.982 68.4724 121.384C68.0644 121.792 67.5574 122.095 66.9514 122.293C66.3514 122.491 65.6854 122.59 64.9534 122.59ZM64.7644 118.27C63.8704 118.27 63.0904 118.045 62.4244 117.595C61.7584 117.145 61.2424 116.533 60.8764 115.759C60.5104 114.985 60.3274 114.112 60.3274 113.14C60.3274 112.156 60.5104 111.28 60.8764 110.512C61.2484 109.738 61.7734 109.129 62.4514 108.685C63.1294 108.235 63.9274 108.01 64.8454 108.01C65.7694 108.01 66.5434 108.235 67.1674 108.685C67.7974 109.129 68.2744 109.738 68.5984 110.512C68.9224 111.286 69.0844 112.162 69.0844 113.14C69.0844 114.106 68.9224 114.979 68.5984 115.759C68.2744 116.533 67.7914 117.145 67.1494 117.595C66.5074 118.045 65.7124 118.27 64.7644 118.27ZM65.0974 116.326C65.6794 116.326 66.1474 116.194 66.5014 115.93C66.8614 115.66 67.1224 115.285 67.2844 114.805C67.4524 114.325 67.5364 113.77 67.5364 113.14C67.5364 112.504 67.4524 111.949 67.2844 111.475C67.1224 110.995 66.8674 110.623 66.5194 110.359C66.1714 110.089 65.7214 109.954 65.1694 109.954C64.5874 109.954 64.1074 110.098 63.7294 110.386C63.3514 110.668 63.0724 111.052 62.8924 111.538C62.7124 112.018 62.6224 112.552 62.6224 113.14C62.6224 113.734 62.7094 114.274 62.8834 114.76C63.0634 115.24 63.3364 115.621 63.7024 115.903C64.0684 116.185 64.5334 116.326 65.0974 116.326ZM6.957 144C6.315 144.12 5.685 144.171 5.067 144.153C4.455 144.141 3.906 144.03 3.42 143.82C2.934 143.604 2.565 143.265 2.313 142.803C2.091 142.383 1.974 141.954 1.962 141.516C1.95 141.078 1.944 140.583 1.944 140.031V131.58H4.104V139.905C4.104 140.295 4.107 140.637 4.113 140.931C4.125 141.225 4.188 141.465 4.302 141.651C4.518 142.011 4.863 142.212 5.337 142.254C5.811 142.296 6.351 142.272 6.957 142.182V144ZM0.18 135.981V134.28H6.957V135.981H0.18ZM12.9739 144.27C11.9899 144.27 11.1259 144.057 10.3819 143.631C9.63792 143.205 9.05592 142.614 8.63592 141.858C8.22192 141.102 8.01492 140.232 8.01492 139.248C8.01492 138.186 8.21892 137.265 8.62692 136.485C9.03492 135.699 9.60192 135.09 10.3279 134.658C11.0539 134.226 11.8939 134.01 12.8479 134.01C13.8559 134.01 14.7109 134.247 15.4129 134.721C16.1209 135.189 16.6459 135.852 16.9879 136.71C17.3299 137.568 17.4589 138.579 17.3749 139.743H15.2239V138.951C15.2179 137.895 15.0319 137.124 14.6659 136.638C14.2999 136.152 13.7239 135.909 12.9379 135.909C12.0499 135.909 11.3899 136.185 10.9579 136.737C10.5259 137.283 10.3099 138.084 10.3099 139.14C10.3099 140.124 10.5259 140.886 10.9579 141.426C11.3899 141.966 12.0199 142.236 12.8479 142.236C13.3819 142.236 13.8409 142.119 14.2249 141.885C14.6149 141.645 14.9149 141.3 15.1249 140.85L17.2669 141.498C16.8949 142.374 16.3189 143.055 15.5389 143.541C14.7649 144.027 13.9099 144.27 12.9739 144.27ZM9.62592 139.743V138.105H16.3129V139.743H9.62592ZM23.604 144.27C22.602 144.27 21.747 144.048 21.039 143.604C20.331 143.154 19.788 142.542 19.41 141.768C19.038 140.994 18.849 140.118 18.843 139.14C18.849 138.144 19.044 137.262 19.428 136.494C19.818 135.72 20.37 135.114 21.084 134.676C21.798 134.232 22.647 134.01 23.631 134.01C24.735 134.01 25.668 134.289 26.43 134.847C27.198 135.399 27.699 136.155 27.933 137.115L25.773 137.7C25.605 137.178 25.326 136.773 24.936 136.485C24.546 136.191 24.102 136.044 23.604 136.044C23.04 136.044 22.575 136.179 22.209 136.449C21.843 136.713 21.573 137.079 21.399 137.547C21.225 138.015 21.138 138.546 21.138 139.14C21.138 140.064 21.345 140.811 21.759 141.381C22.173 141.951 22.788 142.236 23.604 142.236C24.18 142.236 24.633 142.104 24.963 141.84C25.299 141.576 25.551 141.195 25.719 140.697L27.933 141.192C27.633 142.182 27.108 142.944 26.358 143.478C25.608 144.006 24.69 144.27 23.604 144.27ZM36.4596 144V139.32C36.4596 139.014 36.4386 138.675 36.3966 138.303C36.3546 137.931 36.2556 137.574 36.0996 137.232C35.9496 136.884 35.7216 136.599 35.4156 136.377C35.1156 136.155 34.7076 136.044 34.1916 136.044C33.9156 136.044 33.6426 136.089 33.3726 136.179C33.1026 136.269 32.8566 136.425 32.6346 136.647C32.4186 136.863 32.2446 137.163 32.1126 137.547C31.9806 137.925 31.9146 138.411 31.9146 139.005L30.6276 138.456C30.6276 137.628 30.7866 136.878 31.1046 136.206C31.4286 135.534 31.9026 135 32.5266 134.604C33.1506 134.202 33.9186 134.001 34.8306 134.001C35.5506 134.001 36.1446 134.121 36.6126 134.361C37.0806 134.601 37.4526 134.907 37.7286 135.279C38.0046 135.651 38.2086 136.047 38.3406 136.467C38.4726 136.887 38.5566 137.286 38.5926 137.664C38.6346 138.036 38.6556 138.339 38.6556 138.573V144H36.4596ZM29.7186 144V131.04H31.6536V137.862H31.9146V144H29.7186ZM47.7271 144V139.32C47.7271 139.014 47.7061 138.675 47.6641 138.303C47.6221 137.931 47.5231 137.574 47.3671 137.232C47.2171 136.884 46.9891 136.599 46.6831 136.377C46.3831 136.155 45.9751 136.044 45.4591 136.044C45.1831 136.044 44.9101 136.089 44.6401 136.179C44.3701 136.269 44.1241 136.425 43.9021 136.647C43.6861 136.863 43.5121 137.163 43.3801 137.547C43.2481 137.925 43.1821 138.411 43.1821 139.005L41.8951 138.456C41.8951 137.628 42.0541 136.878 42.3721 136.206C42.6961 135.534 43.1701 135 43.7941 134.604C44.4181 134.202 45.1861 134.001 46.0981 134.001C46.8181 134.001 47.4121 134.121 47.8801 134.361C48.3481 134.601 48.7201 134.907 48.9961 135.279C49.2721 135.651 49.4761 136.047 49.6081 136.467C49.7401 136.887 49.8241 137.286 49.8601 137.664C49.9021 138.036 49.9231 138.339 49.9231 138.573V144H47.7271ZM40.9861 144V134.28H42.9211V137.295H43.1821V144H40.9861ZM56.4065 144.27C55.4345 144.27 54.5855 144.051 53.8595 143.613C53.1335 143.175 52.5695 142.572 52.1675 141.804C51.7715 141.03 51.5735 140.142 51.5735 139.14C51.5735 138.12 51.7775 137.226 52.1855 136.458C52.5935 135.69 53.1605 135.09 53.8865 134.658C54.6125 134.226 55.4525 134.01 56.4065 134.01C57.3845 134.01 58.2365 134.229 58.9625 134.667C59.6885 135.105 60.2525 135.711 60.6545 136.485C61.0565 137.253 61.2575 138.138 61.2575 139.14C61.2575 140.148 61.0535 141.039 60.6455 141.813C60.2435 142.581 59.6795 143.184 58.9535 143.622C58.2275 144.054 57.3785 144.27 56.4065 144.27ZM56.4065 142.236C57.2705 142.236 57.9125 141.948 58.3325 141.372C58.7525 140.796 58.9625 140.052 58.9625 139.14C58.9625 138.198 58.7495 137.448 58.3235 136.89C57.8975 136.326 57.2585 136.044 56.4065 136.044C55.8245 136.044 55.3445 136.176 54.9665 136.44C54.5945 136.698 54.3185 137.061 54.1385 137.529C53.9585 137.991 53.8685 138.528 53.8685 139.14C53.8685 140.082 54.0815 140.835 54.5075 141.399C54.9395 141.957 55.5725 142.236 56.4065 142.236ZM63.4205 144V130.77H65.5895V144H63.4205ZM72.5784 144.27C71.6064 144.27 70.7574 144.051 70.0314 143.613C69.3054 143.175 68.7414 142.572 68.3394 141.804C67.9434 141.03 67.7454 140.142 67.7454 139.14C67.7454 138.12 67.9494 137.226 68.3574 136.458C68.7654 135.69 69.3324 135.09 70.0584 134.658C70.7844 134.226 71.6244 134.01 72.5784 134.01C73.5564 134.01 74.4084 134.229 75.1344 134.667C75.8604 135.105 76.4244 135.711 76.8264 136.485C77.2284 137.253 77.4294 138.138 77.4294 139.14C77.4294 140.148 77.2254 141.039 76.8174 141.813C76.4154 142.581 75.8514 143.184 75.1254 143.622C74.3994 144.054 73.5504 144.27 72.5784 144.27ZM72.5784 142.236C73.4424 142.236 74.0844 141.948 74.5044 141.372C74.9244 140.796 75.1344 140.052 75.1344 139.14C75.1344 138.198 74.9214 137.448 74.4954 136.89C74.0694 136.326 73.4304 136.044 72.5784 136.044C71.9964 136.044 71.5164 136.176 71.1384 136.44C70.7664 136.698 70.4904 137.061 70.3104 137.529C70.1304 137.991 70.0404 138.528 70.0404 139.14C70.0404 140.082 70.2534 140.835 70.6794 141.399C71.1114 141.957 71.7444 142.236 72.5784 142.236ZM83.4983 148.59C82.9583 148.59 82.4393 148.506 81.9413 148.338C81.4493 148.17 81.0053 147.927 80.6093 147.609C80.2133 147.297 79.8893 146.919 79.6373 146.475L81.6353 145.485C81.8213 145.839 82.0823 146.1 82.4183 146.268C82.7603 146.442 83.1233 146.529 83.5073 146.529C83.9573 146.529 84.3593 146.448 84.7133 146.286C85.0673 146.13 85.3403 145.896 85.5323 145.584C85.7303 145.278 85.8233 144.894 85.8113 144.432V141.669H86.0813V134.28H87.9803V144.468C87.9803 144.714 87.9683 144.948 87.9443 145.17C87.9263 145.398 87.8933 145.62 87.8453 145.836C87.7013 146.466 87.4253 146.982 87.0173 147.384C86.6093 147.792 86.1023 148.095 85.4963 148.293C84.8963 148.491 84.2303 148.59 83.4983 148.59ZM83.3093 144.27C82.4153 144.27 81.6353 144.045 80.9693 143.595C80.3033 143.145 79.7873 142.533 79.4213 141.759C79.0553 140.985 78.8723 140.112 78.8723 139.14C78.8723 138.156 79.0553 137.28 79.4213 136.512C79.7933 135.738 80.3183 135.129 80.9963 134.685C81.6743 134.235 82.4723 134.01 83.3903 134.01C84.3143 134.01 85.0883 134.235 85.7123 134.685C86.3423 135.129 86.8193 135.738 87.1433 136.512C87.4673 137.286 87.6293 138.162 87.6293 139.14C87.6293 140.106 87.4673 140.979 87.1433 141.759C86.8193 142.533 86.3363 143.145 85.6943 143.595C85.0523 144.045 84.2573 144.27 83.3093 144.27ZM83.6423 142.326C84.2243 142.326 84.6923 142.194 85.0463 141.93C85.4063 141.66 85.6673 141.285 85.8293 140.805C85.9973 140.325 86.0813 139.77 86.0813 139.14C86.0813 138.504 85.9973 137.949 85.8293 137.475C85.6673 136.995 85.4123 136.623 85.0643 136.359C84.7163 136.089 84.2663 135.954 83.7143 135.954C83.1323 135.954 82.6523 136.098 82.2743 136.386C81.8963 136.668 81.6173 137.052 81.4373 137.538C81.2573 138.018 81.1673 138.552 81.1673 139.14C81.1673 139.734 81.2543 140.274 81.4283 140.76C81.6083 141.24 81.8813 141.621 82.2473 141.903C82.6133 142.185 83.0783 142.326 83.6423 142.326ZM91.7821 148.32L93.6541 143.181L93.6901 144.693L89.4511 134.28H91.7101L94.7161 141.984H94.1401L97.0651 134.28H99.2341L93.8161 148.32H91.7821Z" fill="black"/>
<path d="M1.12 175V164.92H2.149V174.013H6.937V175H1.12ZM11.2874 175.21C10.5361 175.21 9.89439 175.04 9.36239 174.699C8.83039 174.358 8.42206 173.887 8.13739 173.285C7.85272 172.683 7.71039 171.992 7.71039 171.213C7.71039 170.42 7.85506 169.724 8.14439 169.127C8.43372 168.53 8.84439 168.065 9.37639 167.734C9.91306 167.398 10.5501 167.23 11.2874 167.23C12.0434 167.23 12.6874 167.4 13.2194 167.741C13.7561 168.077 14.1644 168.546 14.4444 169.148C14.7291 169.745 14.8714 170.434 14.8714 171.213C14.8714 172.006 14.7291 172.704 14.4444 173.306C14.1597 173.903 13.7491 174.37 13.2124 174.706C12.6757 175.042 12.0341 175.21 11.2874 175.21ZM11.2874 174.223C12.1274 174.223 12.7527 173.945 13.1634 173.39C13.5741 172.83 13.7794 172.104 13.7794 171.213C13.7794 170.298 13.5717 169.57 13.1564 169.029C12.7457 168.488 12.1227 168.217 11.2874 168.217C10.7227 168.217 10.2561 168.345 9.88739 168.602C9.52339 168.854 9.25039 169.206 9.06839 169.659C8.89106 170.107 8.80239 170.625 8.80239 171.213C8.80239 172.123 9.01239 172.853 9.43239 173.404C9.85239 173.95 10.4707 174.223 11.2874 174.223ZM16.4155 175V167.44H17.3395V169.26L17.1575 169.022C17.2415 168.798 17.3512 168.593 17.4865 168.406C17.6219 168.215 17.7689 168.058 17.9275 167.937C18.1235 167.764 18.3522 167.634 18.6135 167.545C18.8749 167.452 19.1385 167.398 19.4045 167.384C19.6705 167.365 19.9132 167.384 20.1325 167.44V168.406C19.8572 168.336 19.5562 168.32 19.2295 168.357C18.9029 168.394 18.6019 168.525 18.3265 168.749C18.0745 168.945 17.8855 169.181 17.7595 169.456C17.6335 169.727 17.5495 170.016 17.5075 170.324C17.4655 170.627 17.4445 170.928 17.4445 171.227V175H16.4155ZM24.5228 175.21C23.7854 175.21 23.1461 175.047 22.6048 174.72C22.0681 174.393 21.6504 173.934 21.3518 173.341C21.0531 172.748 20.9038 172.053 20.9038 171.255C20.9038 170.429 21.0508 169.715 21.3448 169.113C21.6388 168.511 22.0518 168.047 22.5838 167.72C23.1204 167.393 23.7528 167.23 24.4808 167.23C25.2274 167.23 25.8644 167.403 26.3918 167.748C26.9191 168.089 27.3181 168.579 27.5888 169.218C27.8594 169.857 27.9831 170.62 27.9598 171.507H26.9098V171.143C26.8911 170.163 26.6788 169.423 26.2728 168.924C25.8714 168.425 25.2834 168.175 24.5088 168.175C23.6968 168.175 23.0738 168.439 22.6398 168.966C22.2104 169.493 21.9958 170.245 21.9958 171.22C21.9958 172.172 22.2104 172.912 22.6398 173.439C23.0738 173.962 23.6874 174.223 24.4808 174.223C25.0221 174.223 25.4934 174.099 25.8948 173.852C26.3008 173.6 26.6204 173.238 26.8538 172.767L27.8128 173.138C27.5141 173.796 27.0731 174.307 26.4898 174.671C25.9111 175.03 25.2554 175.21 24.5228 175.21ZM21.6318 171.507V170.646H27.4068V171.507H21.6318ZM38.3241 175L38.3311 170.037C38.3311 169.454 38.1678 168.996 37.8411 168.665C37.5191 168.329 37.1085 168.161 36.6091 168.161C36.3245 168.161 36.0468 168.226 35.7761 168.357C35.5055 168.488 35.2815 168.698 35.1041 168.987C34.9315 169.276 34.8451 169.654 34.8451 170.121L34.2361 169.946C34.2221 169.405 34.3271 168.931 34.5511 168.525C34.7798 168.119 35.0925 167.804 35.4891 167.58C35.8905 167.351 36.3431 167.237 36.8471 167.237C37.6078 167.237 38.2168 167.473 38.6741 167.944C39.1315 168.411 39.3601 169.043 39.3601 169.841L39.3531 175H38.3241ZM29.3011 175V167.44H30.2251V169.302H30.3371V175H29.3011ZM33.8231 175L33.8301 170.107C33.8301 169.505 33.6691 169.031 33.3471 168.686C33.0298 168.336 32.6098 168.161 32.0871 168.161C31.5645 168.161 31.1421 168.341 30.8201 168.7C30.4981 169.055 30.3371 169.528 30.3371 170.121L29.7211 169.785C29.7211 169.3 29.8355 168.866 30.0641 168.483C30.2928 168.096 30.6055 167.792 31.0021 167.573C31.3988 167.349 31.8491 167.237 32.3531 167.237C32.8338 167.237 33.2608 167.34 33.6341 167.545C34.0121 167.75 34.3085 168.049 34.5231 168.441C34.7378 168.833 34.8451 169.309 34.8451 169.869L34.8381 175H33.8231ZM44.118 166.005V164.85H45.147V166.005H44.118ZM44.118 175V167.44H45.147V175H44.118ZM50.6406 175.21C49.9453 175.21 49.3573 175.035 48.8766 174.685C48.396 174.33 48.032 173.852 47.7846 173.25C47.5373 172.643 47.4136 171.964 47.4136 171.213C47.4136 170.448 47.5373 169.766 47.7846 169.169C48.0366 168.567 48.4053 168.093 48.8906 167.748C49.376 167.403 49.9733 167.23 50.6826 167.23C51.3733 167.23 51.966 167.405 52.4606 167.755C52.9553 168.105 53.3333 168.581 53.5946 169.183C53.8606 169.785 53.9936 170.462 53.9936 171.213C53.9936 171.969 53.8606 172.648 53.5946 173.25C53.3286 173.852 52.946 174.33 52.4466 174.685C51.9473 175.035 51.3453 175.21 50.6406 175.21ZM47.2386 178.36V167.44H48.1626V173.131H48.2746V178.36H47.2386ZM50.5356 174.251C51.063 174.251 51.5016 174.118 51.8516 173.852C52.2016 173.586 52.463 173.224 52.6356 172.767C52.813 172.305 52.9016 171.787 52.9016 171.213C52.9016 170.644 52.8153 170.13 52.6426 169.673C52.47 169.216 52.2063 168.854 51.8516 168.588C51.5016 168.322 51.056 168.189 50.5146 168.189C49.9873 168.189 49.5486 168.317 49.1986 168.574C48.8533 168.831 48.5943 169.188 48.4216 169.645C48.249 170.098 48.1626 170.62 48.1626 171.213C48.1626 171.796 48.249 172.319 48.4216 172.781C48.5943 173.238 48.8556 173.598 49.2056 173.859C49.5556 174.12 49.999 174.251 50.5356 174.251ZM58.2834 175.203C57.3968 175.203 56.6664 175.012 56.0924 174.629C55.5231 174.246 55.1731 173.714 55.0424 173.033L56.0924 172.858C56.2044 173.287 56.4588 173.63 56.8554 173.887C57.2568 174.139 57.7514 174.265 58.3394 174.265C58.9134 174.265 59.3661 174.146 59.6974 173.908C60.0288 173.665 60.1944 173.336 60.1944 172.921C60.1944 172.688 60.1408 172.499 60.0334 172.354C59.9308 172.205 59.7184 172.067 59.3964 171.941C59.0744 171.815 58.5938 171.666 57.9544 171.493C57.2684 171.306 56.7318 171.12 56.3444 170.933C55.9571 170.746 55.6818 170.532 55.5184 170.289C55.3551 170.042 55.2734 169.741 55.2734 169.386C55.2734 168.957 55.3948 168.581 55.6374 168.259C55.8801 167.932 56.2161 167.68 56.6454 167.503C57.0748 167.321 57.5741 167.23 58.1434 167.23C58.7128 167.23 59.2214 167.323 59.6694 167.51C60.1221 167.692 60.4861 167.949 60.7614 168.28C61.0368 168.611 61.2001 168.996 61.2514 169.435L60.2014 169.624C60.1314 169.181 59.9098 168.831 59.5364 168.574C59.1678 168.313 58.6988 168.177 58.1294 168.168C57.5928 168.154 57.1564 168.257 56.8204 168.476C56.4844 168.691 56.3164 168.978 56.3164 169.337C56.3164 169.538 56.3771 169.71 56.4984 169.855C56.6198 169.995 56.8391 170.128 57.1564 170.254C57.4784 170.38 57.9358 170.518 58.5284 170.667C59.2238 170.844 59.7698 171.031 60.1664 171.227C60.5631 171.423 60.8454 171.654 61.0134 171.92C61.1814 172.186 61.2654 172.515 61.2654 172.907C61.2654 173.621 60.9994 174.183 60.4674 174.594C59.9401 175 59.2121 175.203 58.2834 175.203ZM65.7089 175.189C65.2562 175.189 64.8596 175.119 64.5189 174.979C64.1829 174.839 63.8959 174.65 63.6579 174.412C63.4246 174.174 63.2356 173.903 63.0909 173.6C62.9462 173.292 62.8412 172.968 62.7759 172.627C62.7106 172.282 62.6779 171.939 62.6779 171.598V167.44H63.7139V171.297C63.7139 171.712 63.7536 172.097 63.8329 172.452C63.9122 172.807 64.0382 173.117 64.2109 173.383C64.3882 173.644 64.6146 173.847 64.8899 173.992C65.1699 174.137 65.5082 174.209 65.9049 174.209C66.2689 174.209 66.5886 174.146 66.8639 174.02C67.1439 173.894 67.3772 173.714 67.5639 173.481C67.7552 173.243 67.8999 172.956 67.9979 172.62C68.0959 172.279 68.1449 171.897 68.1449 171.472L68.8729 171.633C68.8729 172.408 68.7376 173.059 68.4669 173.586C68.1962 174.113 67.8229 174.512 67.3469 174.783C66.8709 175.054 66.3249 175.189 65.7089 175.189ZM68.2499 175V173.138H68.1449V167.44H69.1739V175H68.2499ZM80.1464 175L80.1534 170.037C80.1534 169.454 79.9901 168.996 79.6634 168.665C79.3414 168.329 78.9307 168.161 78.4314 168.161C78.1467 168.161 77.8691 168.226 77.5984 168.357C77.3277 168.488 77.1037 168.698 76.9264 168.987C76.7537 169.276 76.6674 169.654 76.6674 170.121L76.0584 169.946C76.0444 169.405 76.1494 168.931 76.3734 168.525C76.6021 168.119 76.9147 167.804 77.3114 167.58C77.7127 167.351 78.1654 167.237 78.6694 167.237C79.4301 167.237 80.0391 167.473 80.4964 167.944C80.9537 168.411 81.1824 169.043 81.1824 169.841L81.1754 175H80.1464ZM71.1234 175V167.44H72.0474V169.302H72.1594V175H71.1234ZM75.6454 175L75.6524 170.107C75.6524 169.505 75.4914 169.031 75.1694 168.686C74.8521 168.336 74.4321 168.161 73.9094 168.161C73.3867 168.161 72.9644 168.341 72.6424 168.7C72.3204 169.055 72.1594 169.528 72.1594 170.121L71.5434 169.785C71.5434 169.3 71.6577 168.866 71.8864 168.483C72.1151 168.096 72.4277 167.792 72.8244 167.573C73.2211 167.349 73.6714 167.237 74.1754 167.237C74.6561 167.237 75.0831 167.34 75.4564 167.545C75.8344 167.75 76.1307 168.049 76.3454 168.441C76.5601 168.833 76.6674 169.309 76.6674 169.869L76.6604 175H75.6454ZM88.7333 175.21C88.0286 175.21 87.4266 175.035 86.9273 174.685C86.428 174.33 86.0453 173.852 85.7793 173.25C85.5133 172.648 85.3803 171.969 85.3803 171.213C85.3803 170.462 85.511 169.785 85.7723 169.183C86.0383 168.581 86.4186 168.105 86.9133 167.755C87.408 167.405 88.0006 167.23 88.6913 167.23C89.4006 167.23 89.998 167.403 90.4833 167.748C90.9686 168.093 91.335 168.567 91.5823 169.169C91.8343 169.766 91.9603 170.448 91.9603 171.213C91.9603 171.964 91.8366 172.643 91.5893 173.25C91.342 173.852 90.978 174.33 90.4973 174.685C90.0166 175.035 89.4286 175.21 88.7333 175.21ZM88.8383 174.251C89.375 174.251 89.8183 174.12 90.1683 173.859C90.5183 173.598 90.7796 173.238 90.9523 172.781C91.125 172.319 91.2113 171.796 91.2113 171.213C91.2113 170.62 91.125 170.098 90.9523 169.645C90.7796 169.188 90.5183 168.831 90.1683 168.574C89.823 168.317 89.3866 168.189 88.8593 168.189C88.318 168.189 87.87 168.322 87.5153 168.588C87.1606 168.854 86.897 169.216 86.7243 169.673C86.5563 170.13 86.4723 170.644 86.4723 171.213C86.4723 171.787 86.5586 172.305 86.7313 172.767C86.9086 173.224 87.1723 173.586 87.5223 173.852C87.8723 174.118 88.311 174.251 88.8383 174.251ZM91.2113 175V169.309H91.0993V164.92H92.1353V175H91.2113ZM97.2561 175.21C96.5048 175.21 95.8631 175.04 95.3311 174.699C94.7991 174.358 94.3908 173.887 94.1061 173.285C93.8215 172.683 93.6791 171.992 93.6791 171.213C93.6791 170.42 93.8238 169.724 94.1131 169.127C94.4025 168.53 94.8131 168.065 95.3451 167.734C95.8818 167.398 96.5188 167.23 97.2561 167.23C98.0121 167.23 98.6561 167.4 99.1881 167.741C99.7248 168.077 100.133 168.546 100.413 169.148C100.698 169.745 100.84 170.434 100.84 171.213C100.84 172.006 100.698 172.704 100.413 173.306C100.128 173.903 99.7178 174.37 99.1811 174.706C98.6445 175.042 98.0028 175.21 97.2561 175.21ZM97.2561 174.223C98.0961 174.223 98.7215 173.945 99.1321 173.39C99.5428 172.83 99.7481 172.104 99.7481 171.213C99.7481 170.298 99.5405 169.57 99.1251 169.029C98.7145 168.488 98.0915 168.217 97.2561 168.217C96.6915 168.217 96.2248 168.345 95.8561 168.602C95.4921 168.854 95.2191 169.206 95.0371 169.659C94.8598 170.107 94.7711 170.625 94.7711 171.213C94.7711 172.123 94.9811 172.853 95.4011 173.404C95.8211 173.95 96.4395 174.223 97.2561 174.223ZM102.524 175V164.71H103.553V175H102.524ZM108.809 175.21C108.058 175.21 107.416 175.04 106.884 174.699C106.352 174.358 105.944 173.887 105.659 173.285C105.374 172.683 105.232 171.992 105.232 171.213C105.232 170.42 105.377 169.724 105.666 169.127C105.955 168.53 106.366 168.065 106.898 167.734C107.435 167.398 108.072 167.23 108.809 167.23C109.565 167.23 110.209 167.4 110.741 167.741C111.278 168.077 111.686 168.546 111.966 169.148C112.251 169.745 112.393 170.434 112.393 171.213C112.393 172.006 112.251 172.704 111.966 173.306C111.681 173.903 111.271 174.37 110.734 174.706C110.197 175.042 109.556 175.21 108.809 175.21ZM108.809 174.223C109.649 174.223 110.274 173.945 110.685 173.39C111.096 172.83 111.301 172.104 111.301 171.213C111.301 170.298 111.093 169.57 110.678 169.029C110.267 168.488 109.644 168.217 108.809 168.217C108.244 168.217 107.778 168.345 107.409 168.602C107.045 168.854 106.772 169.206 106.59 169.659C106.413 170.107 106.324 170.625 106.324 171.213C106.324 172.123 106.534 172.853 106.954 173.404C107.374 173.95 107.992 174.223 108.809 174.223ZM113.937 175V167.44H114.861V169.26L114.679 169.022C114.763 168.798 114.873 168.593 115.008 168.406C115.143 168.215 115.29 168.058 115.449 167.937C115.645 167.764 115.874 167.634 116.135 167.545C116.396 167.452 116.66 167.398 116.926 167.384C117.192 167.365 117.435 167.384 117.654 167.44V168.406C117.379 168.336 117.078 168.32 116.751 168.357C116.424 168.394 116.123 168.525 115.848 168.749C115.596 168.945 115.407 169.181 115.281 169.456C115.155 169.727 115.071 170.016 115.029 170.324C114.987 170.627 114.966 170.928 114.966 171.227V175H113.937ZM124.606 175.203C123.719 175.203 122.989 175.012 122.415 174.629C121.845 174.246 121.495 173.714 121.365 173.033L122.415 172.858C122.527 173.287 122.781 173.63 123.178 173.887C123.579 174.139 124.074 174.265 124.662 174.265C125.236 174.265 125.688 174.146 126.02 173.908C126.351 173.665 126.517 173.336 126.517 172.921C126.517 172.688 126.463 172.499 126.356 172.354C126.253 172.205 126.041 172.067 125.719 171.941C125.397 171.815 124.916 171.666 124.277 171.493C123.591 171.306 123.054 171.12 122.667 170.933C122.279 170.746 122.004 170.532 121.841 170.289C121.677 170.042 121.596 169.741 121.596 169.386C121.596 168.957 121.717 168.581 121.96 168.259C122.202 167.932 122.538 167.68 122.968 167.503C123.397 167.321 123.896 167.23 124.466 167.23C125.035 167.23 125.544 167.323 125.992 167.51C126.444 167.692 126.808 167.949 127.084 168.28C127.359 168.611 127.522 168.996 127.574 169.435L126.524 169.624C126.454 169.181 126.232 168.831 125.859 168.574C125.49 168.313 125.021 168.177 124.452 168.168C123.915 168.154 123.479 168.257 123.143 168.476C122.807 168.691 122.639 168.978 122.639 169.337C122.639 169.538 122.699 169.71 122.821 169.855C122.942 169.995 123.161 170.128 123.479 170.254C123.801 170.38 124.258 170.518 124.851 170.667C125.546 170.844 126.092 171.031 126.489 171.227C126.885 171.423 127.168 171.654 127.336 171.92C127.504 172.186 127.588 172.515 127.588 172.907C127.588 173.621 127.322 174.183 126.79 174.594C126.262 175 125.534 175.203 124.606 175.203ZM129.28 166.005V164.85H130.309V166.005H129.28ZM129.28 175V167.44H130.309V175H129.28ZM136.524 175C136.099 175.089 135.679 175.124 135.264 175.105C134.853 175.086 134.484 174.998 134.158 174.839C133.836 174.68 133.591 174.433 133.423 174.097C133.287 173.817 133.213 173.535 133.199 173.25C133.189 172.961 133.185 172.632 133.185 172.263V165.34H134.207V172.221C134.207 172.538 134.209 172.804 134.214 173.019C134.223 173.229 134.272 173.416 134.361 173.579C134.529 173.892 134.795 174.078 135.159 174.139C135.527 174.2 135.982 174.186 136.524 174.097V175ZM131.568 168.322V167.44H136.524V168.322H131.568ZM3.143 194.21C2.57367 194.21 2.09533 194.107 1.708 193.902C1.32533 193.697 1.03833 193.424 0.847 193.083C0.655667 192.742 0.56 192.371 0.56 191.97C0.56 191.559 0.641667 191.209 0.805 190.92C0.973 190.626 1.19933 190.386 1.484 190.199C1.77333 190.012 2.107 189.87 2.485 189.772C2.86767 189.679 3.29 189.597 3.752 189.527C4.21867 189.452 4.67367 189.389 5.117 189.338C5.565 189.282 5.957 189.228 6.293 189.177L5.929 189.401C5.943 188.654 5.79833 188.101 5.495 187.742C5.19167 187.383 4.66433 187.203 3.913 187.203C3.395 187.203 2.95633 187.32 2.597 187.553C2.24233 187.786 1.99267 188.155 1.848 188.659L0.847 188.365C1.01967 187.688 1.36733 187.163 1.89 186.79C2.41267 186.417 3.09167 186.23 3.927 186.23C4.61767 186.23 5.20333 186.361 5.684 186.622C6.16933 186.879 6.51233 187.252 6.713 187.742C6.80633 187.961 6.867 188.206 6.895 188.477C6.923 188.748 6.937 189.023 6.937 189.303V194H6.02V192.103L6.286 192.215C6.02933 192.864 5.63033 193.358 5.089 193.699C4.54767 194.04 3.899 194.21 3.143 194.21ZM3.262 193.321C3.74267 193.321 4.16267 193.235 4.522 193.062C4.88133 192.889 5.17067 192.654 5.39 192.355C5.60933 192.052 5.75167 191.711 5.817 191.333C5.873 191.09 5.90333 190.824 5.908 190.535C5.91267 190.241 5.915 190.022 5.915 189.877L6.307 190.08C5.957 190.127 5.57667 190.173 5.166 190.22C4.76 190.267 4.35867 190.32 3.962 190.381C3.57 190.442 3.21533 190.514 2.898 190.598C2.68333 190.659 2.47567 190.745 2.275 190.857C2.07433 190.964 1.90867 191.109 1.778 191.291C1.652 191.473 1.589 191.699 1.589 191.97C1.589 192.189 1.64267 192.402 1.75 192.607C1.862 192.812 2.03933 192.983 2.282 193.118C2.52933 193.253 2.856 193.321 3.262 193.321ZM17.7753 194L17.7823 189.037C17.7823 188.454 17.619 187.996 17.2923 187.665C16.9703 187.329 16.5596 187.161 16.0603 187.161C15.7756 187.161 15.498 187.226 15.2273 187.357C14.9566 187.488 14.7326 187.698 14.5553 187.987C14.3826 188.276 14.2963 188.654 14.2963 189.121L13.6873 188.946C13.6733 188.405 13.7783 187.931 14.0023 187.525C14.231 187.119 14.5436 186.804 14.9403 186.58C15.3416 186.351 15.7943 186.237 16.2983 186.237C17.059 186.237 17.668 186.473 18.1253 186.944C18.5826 187.411 18.8113 188.043 18.8113 188.841L18.8043 194H17.7753ZM8.7523 194V186.44H9.6763V188.302H9.7883V194H8.7523ZM13.2743 194L13.2813 189.107C13.2813 188.505 13.1203 188.031 12.7983 187.686C12.481 187.336 12.061 187.161 11.5383 187.161C11.0156 187.161 10.5933 187.341 10.2713 187.7C9.9493 188.055 9.7883 188.528 9.7883 189.121L9.1723 188.785C9.1723 188.3 9.28663 187.866 9.5153 187.483C9.74396 187.096 10.0566 186.792 10.4533 186.573C10.85 186.349 11.3003 186.237 11.8043 186.237C12.285 186.237 12.712 186.34 13.0853 186.545C13.4633 186.75 13.7596 187.049 13.9743 187.441C14.189 187.833 14.2963 188.309 14.2963 188.869L14.2893 194H13.2743ZM23.7845 194.21C23.0471 194.21 22.4078 194.047 21.8665 193.72C21.3298 193.393 20.9121 192.934 20.6135 192.341C20.3148 191.748 20.1655 191.053 20.1655 190.255C20.1655 189.429 20.3125 188.715 20.6065 188.113C20.9005 187.511 21.3135 187.047 21.8455 186.72C22.3821 186.393 23.0145 186.23 23.7425 186.23C24.4891 186.23 25.1261 186.403 25.6535 186.748C26.1808 187.089 26.5798 187.579 26.8505 188.218C27.1211 188.857 27.2448 189.62 27.2215 190.507H26.1715V190.143C26.1528 189.163 25.9405 188.423 25.5345 187.924C25.1331 187.425 24.5451 187.175 23.7705 187.175C22.9585 187.175 22.3355 187.439 21.9015 187.966C21.4721 188.493 21.2575 189.245 21.2575 190.22C21.2575 191.172 21.4721 191.912 21.9015 192.439C22.3355 192.962 22.9491 193.223 23.7425 193.223C24.2838 193.223 24.7551 193.099 25.1565 192.852C25.5625 192.6 25.8821 192.238 26.1155 191.767L27.0745 192.138C26.7758 192.796 26.3348 193.307 25.7515 193.671C25.1728 194.03 24.5171 194.21 23.7845 194.21ZM20.8935 190.507V189.646H26.6685V190.507H20.8935ZM32.8909 194C32.4663 194.089 32.0463 194.124 31.6309 194.105C31.2203 194.086 30.8516 193.998 30.5249 193.839C30.2029 193.68 29.9579 193.433 29.7899 193.097C29.6546 192.817 29.5799 192.535 29.5659 192.25C29.5566 191.961 29.5519 191.632 29.5519 191.263V184.34H30.5739V191.221C30.5739 191.538 30.5763 191.804 30.5809 192.019C30.5903 192.229 30.6393 192.416 30.7279 192.579C30.8959 192.892 31.1619 193.078 31.5259 193.139C31.8946 193.2 32.3496 193.186 32.8909 193.097V194ZM27.9349 187.322V186.44H32.8909V187.322H27.9349ZM34.2404 195.463L34.3034 194.952C34.4901 194.966 34.6254 194.929 34.7094 194.84C34.7934 194.751 34.8447 194.632 34.8634 194.483C34.8821 194.334 34.8867 194.173 34.8774 194H34.2404V192.523H35.4374V194.28C35.4374 194.709 35.3277 195.031 35.1084 195.246C34.8937 195.461 34.6044 195.533 34.2404 195.463ZM44.0379 194.21C43.2772 194.21 42.6332 194.04 42.1059 193.699C41.5785 193.358 41.1772 192.889 40.9019 192.292C40.6312 191.69 40.4912 190.999 40.4819 190.22C40.4912 189.427 40.6359 188.731 40.9159 188.134C41.1959 187.532 41.5995 187.065 42.1269 186.734C42.6542 186.398 43.2935 186.23 44.0449 186.23C44.8102 186.23 45.4752 186.417 46.0399 186.79C46.6092 187.163 46.9989 187.674 47.2089 188.323L46.2009 188.645C46.0235 188.192 45.7412 187.842 45.3539 187.595C44.9712 187.343 44.5325 187.217 44.0379 187.217C43.4825 187.217 43.0229 187.345 42.6589 187.602C42.2949 187.854 42.0242 188.206 41.8469 188.659C41.6695 189.112 41.5785 189.632 41.5739 190.22C41.5832 191.125 41.7932 191.853 42.2039 192.404C42.6145 192.95 43.2259 193.223 44.0379 193.223C44.5512 193.223 44.9875 193.106 45.3469 192.873C45.7109 192.635 45.9862 192.29 46.1729 191.837L47.2089 192.145C46.9289 192.817 46.5182 193.33 45.9769 193.685C45.4355 194.035 44.7892 194.21 44.0379 194.21ZM51.6058 194.21C50.8544 194.21 50.2128 194.04 49.6808 193.699C49.1488 193.358 48.7404 192.887 48.4558 192.285C48.1711 191.683 48.0288 190.992 48.0288 190.213C48.0288 189.42 48.1734 188.724 48.4628 188.127C48.7521 187.53 49.1628 187.065 49.6948 186.734C50.2314 186.398 50.8684 186.23 51.6058 186.23C52.3618 186.23 53.0058 186.4 53.5378 186.741C54.0744 187.077 54.4828 187.546 54.7628 188.148C55.0474 188.745 55.1898 189.434 55.1898 190.213C55.1898 191.006 55.0474 191.704 54.7628 192.306C54.4781 192.903 54.0674 193.37 53.5308 193.706C52.9941 194.042 52.3524 194.21 51.6058 194.21ZM51.6058 193.223C52.4458 193.223 53.0711 192.945 53.4818 192.39C53.8924 191.83 54.0978 191.104 54.0978 190.213C54.0978 189.298 53.8901 188.57 53.4748 188.029C53.0641 187.488 52.4411 187.217 51.6058 187.217C51.0411 187.217 50.5744 187.345 50.2058 187.602C49.8418 187.854 49.5688 188.206 49.3868 188.659C49.2094 189.107 49.1208 189.625 49.1208 190.213C49.1208 191.123 49.3308 191.853 49.7508 192.404C50.1708 192.95 50.7891 193.223 51.6058 193.223ZM62.1939 194V190.143C62.1939 189.723 62.1542 189.338 62.0749 188.988C61.9956 188.633 61.8672 188.325 61.6899 188.064C61.5172 187.798 61.2909 187.593 61.0109 187.448C60.7356 187.303 60.3996 187.231 60.0029 187.231C59.6389 187.231 59.3169 187.294 59.0369 187.42C58.7616 187.546 58.5282 187.728 58.3369 187.966C58.1502 188.199 58.0079 188.484 57.9099 188.82C57.8119 189.156 57.7629 189.539 57.7629 189.968L57.0349 189.807C57.0349 189.032 57.1702 188.381 57.4409 187.854C57.7116 187.327 58.0849 186.928 58.5609 186.657C59.0369 186.386 59.5829 186.251 60.1989 186.251C60.6516 186.251 61.0459 186.321 61.3819 186.461C61.7226 186.601 62.0096 186.79 62.2429 187.028C62.4809 187.266 62.6722 187.539 62.8169 187.847C62.9616 188.15 63.0666 188.475 63.1319 188.82C63.1972 189.161 63.2299 189.501 63.2299 189.842V194H62.1939ZM56.7269 194V186.44H57.6579V188.302H57.7629V194H56.7269ZM67.8674 194.203C66.9807 194.203 66.2504 194.012 65.6764 193.629C65.1071 193.246 64.7571 192.714 64.6264 192.033L65.6764 191.858C65.7884 192.287 66.0427 192.63 66.4394 192.887C66.8407 193.139 67.3354 193.265 67.9234 193.265C68.4974 193.265 68.9501 193.146 69.2814 192.908C69.6127 192.665 69.7784 192.336 69.7784 191.921C69.7784 191.688 69.7247 191.499 69.6174 191.354C69.5147 191.205 69.3024 191.067 68.9804 190.941C68.6584 190.815 68.1777 190.666 67.5384 190.493C66.8524 190.306 66.3157 190.12 65.9284 189.933C65.5411 189.746 65.2657 189.532 65.1024 189.289C64.9391 189.042 64.8574 188.741 64.8574 188.386C64.8574 187.957 64.9787 187.581 65.2214 187.259C65.4641 186.932 65.8001 186.68 66.2294 186.503C66.6587 186.321 67.1581 186.23 67.7274 186.23C68.2967 186.23 68.8054 186.323 69.2534 186.51C69.7061 186.692 70.0701 186.949 70.3454 187.28C70.6207 187.611 70.7841 187.996 70.8354 188.435L69.7854 188.624C69.7154 188.181 69.4937 187.831 69.1204 187.574C68.7517 187.313 68.2827 187.177 67.7134 187.168C67.1767 187.154 66.7404 187.257 66.4044 187.476C66.0684 187.691 65.9004 187.978 65.9004 188.337C65.9004 188.538 65.9611 188.71 66.0824 188.855C66.2037 188.995 66.4231 189.128 66.7404 189.254C67.0624 189.38 67.5197 189.518 68.1124 189.667C68.8077 189.844 69.3537 190.031 69.7504 190.227C70.1471 190.423 70.4294 190.654 70.5974 190.92C70.7654 191.186 70.8494 191.515 70.8494 191.907C70.8494 192.621 70.5834 193.183 70.0514 193.594C69.5241 194 68.7961 194.203 67.8674 194.203ZM75.6009 194.21C74.8635 194.21 74.2242 194.047 73.6829 193.72C73.1462 193.393 72.7285 192.934 72.4299 192.341C72.1312 191.748 71.9819 191.053 71.9819 190.255C71.9819 189.429 72.1289 188.715 72.4229 188.113C72.7169 187.511 73.1299 187.047 73.6619 186.72C74.1985 186.393 74.8309 186.23 75.5589 186.23C76.3055 186.23 76.9425 186.403 77.4699 186.748C77.9972 187.089 78.3962 187.579 78.6669 188.218C78.9375 188.857 79.0612 189.62 79.0379 190.507H77.9879V190.143C77.9692 189.163 77.7569 188.423 77.3509 187.924C76.9495 187.425 76.3615 187.175 75.5869 187.175C74.7749 187.175 74.1519 187.439 73.7179 187.966C73.2885 188.493 73.0739 189.245 73.0739 190.22C73.0739 191.172 73.2885 191.912 73.7179 192.439C74.1519 192.962 74.7655 193.223 75.5589 193.223C76.1002 193.223 76.5715 193.099 76.9729 192.852C77.3789 192.6 77.6985 192.238 77.9319 191.767L78.8909 192.138C78.5922 192.796 78.1512 193.307 77.5679 193.671C76.9892 194.03 76.3335 194.21 75.6009 194.21ZM72.7099 190.507V189.646H78.4849V190.507H72.7099ZM83.7273 194.21C82.9667 194.21 82.3227 194.04 81.7953 193.699C81.268 193.358 80.8667 192.889 80.5913 192.292C80.3207 191.69 80.1807 190.999 80.1713 190.22C80.1807 189.427 80.3253 188.731 80.6053 188.134C80.8853 187.532 81.289 187.065 81.8163 186.734C82.3437 186.398 82.983 186.23 83.7343 186.23C84.4997 186.23 85.1647 186.417 85.7293 186.79C86.2987 187.163 86.6883 187.674 86.8983 188.323L85.8903 188.645C85.713 188.192 85.4307 187.842 85.0433 187.595C84.6607 187.343 84.222 187.217 83.7273 187.217C83.172 187.217 82.7123 187.345 82.3483 187.602C81.9843 187.854 81.7137 188.206 81.5363 188.659C81.359 189.112 81.268 189.632 81.2633 190.22C81.2727 191.125 81.4827 191.853 81.8933 192.404C82.304 192.95 82.9153 193.223 83.7273 193.223C84.2407 193.223 84.677 193.106 85.0363 192.873C85.4003 192.635 85.6757 192.29 85.8623 191.837L86.8983 192.145C86.6183 192.817 86.2077 193.33 85.6663 193.685C85.125 194.035 84.4787 194.21 83.7273 194.21ZM92.4593 194C92.0346 194.089 91.6146 194.124 91.1993 194.105C90.7886 194.086 90.4199 193.998 90.0933 193.839C89.7713 193.68 89.5263 193.433 89.3583 193.097C89.2229 192.817 89.1483 192.535 89.1343 192.25C89.1249 191.961 89.1203 191.632 89.1203 191.263V184.34H90.1423V191.221C90.1423 191.538 90.1446 191.804 90.1493 192.019C90.1586 192.229 90.2076 192.416 90.2963 192.579C90.4643 192.892 90.7303 193.078 91.0943 193.139C91.4629 193.2 91.9179 193.186 92.4593 193.097V194ZM87.5033 187.322V186.44H92.4593V187.322H87.5033ZM96.8743 194.21C96.137 194.21 95.4976 194.047 94.9563 193.72C94.4196 193.393 94.002 192.934 93.7033 192.341C93.4046 191.748 93.2553 191.053 93.2553 190.255C93.2553 189.429 93.4023 188.715 93.6963 188.113C93.9903 187.511 94.4033 187.047 94.9353 186.72C95.472 186.393 96.1043 186.23 96.8323 186.23C97.579 186.23 98.216 186.403 98.7433 186.748C99.2706 187.089 99.6696 187.579 99.9403 188.218C100.211 188.857 100.335 189.62 100.311 190.507H99.2613V190.143C99.2426 189.163 99.0303 188.423 98.6243 187.924C98.223 187.425 97.635 187.175 96.8603 187.175C96.0483 187.175 95.4253 187.439 94.9913 187.966C94.562 188.493 94.3473 189.245 94.3473 190.22C94.3473 191.172 94.562 191.912 94.9913 192.439C95.4253 192.962 96.039 193.223 96.8323 193.223C97.3736 193.223 97.845 193.099 98.2463 192.852C98.6523 192.6 98.972 192.238 99.2053 191.767L100.164 192.138C99.8656 192.796 99.4246 193.307 98.8413 193.671C98.2626 194.03 97.607 194.21 96.8743 194.21ZM93.9833 190.507V189.646H99.7583V190.507H93.9833ZM105.981 194C105.556 194.089 105.136 194.124 104.721 194.105C104.31 194.086 103.941 193.998 103.615 193.839C103.293 193.68 103.048 193.433 102.88 193.097C102.744 192.817 102.67 192.535 102.656 192.25C102.646 191.961 102.642 191.632 102.642 191.263V184.34H103.664V191.221C103.664 191.538 103.666 191.804 103.671 192.019C103.68 192.229 103.729 192.416 103.818 192.579C103.986 192.892 104.252 193.078 104.616 193.139C104.984 193.2 105.439 193.186 105.981 193.097V194ZM101.025 187.322V186.44H105.981V187.322H101.025ZM110.361 194.189C109.909 194.189 109.512 194.119 109.171 193.979C108.835 193.839 108.548 193.65 108.31 193.412C108.077 193.174 107.888 192.903 107.743 192.6C107.599 192.292 107.494 191.968 107.428 191.627C107.363 191.282 107.33 190.939 107.33 190.598V186.44H108.366V190.297C108.366 190.712 108.406 191.097 108.485 191.452C108.565 191.807 108.691 192.117 108.863 192.383C109.041 192.644 109.267 192.847 109.542 192.992C109.822 193.137 110.161 193.209 110.557 193.209C110.921 193.209 111.241 193.146 111.516 193.02C111.796 192.894 112.03 192.714 112.216 192.481C112.408 192.243 112.552 191.956 112.65 191.62C112.748 191.279 112.797 190.897 112.797 190.472L113.525 190.633C113.525 191.408 113.39 192.059 113.119 192.586C112.849 193.113 112.475 193.512 111.999 193.783C111.523 194.054 110.977 194.189 110.361 194.189ZM112.902 194V192.138H112.797V186.44H113.826V194H112.902ZM115.783 194V186.44H116.707V188.26L116.525 188.022C116.609 187.798 116.718 187.593 116.854 187.406C116.989 187.215 117.136 187.058 117.295 186.937C117.491 186.764 117.719 186.634 117.981 186.545C118.242 186.452 118.506 186.398 118.772 186.384C119.038 186.365 119.28 186.384 119.5 186.44V187.406C119.224 187.336 118.923 187.32 118.597 187.357C118.27 187.394 117.969 187.525 117.694 187.749C117.442 187.945 117.253 188.181 117.127 188.456C117.001 188.727 116.917 189.016 116.875 189.324C116.833 189.627 116.812 189.928 116.812 190.227V194H115.783ZM3.143 213.21C2.57367 213.21 2.09533 213.107 1.708 212.902C1.32533 212.697 1.03833 212.424 0.847 212.083C0.655667 211.742 0.56 211.371 0.56 210.97C0.56 210.559 0.641667 210.209 0.805 209.92C0.973 209.626 1.19933 209.386 1.484 209.199C1.77333 209.012 2.107 208.87 2.485 208.772C2.86767 208.679 3.29 208.597 3.752 208.527C4.21867 208.452 4.67367 208.389 5.117 208.338C5.565 208.282 5.957 208.228 6.293 208.177L5.929 208.401C5.943 207.654 5.79833 207.101 5.495 206.742C5.19167 206.383 4.66433 206.203 3.913 206.203C3.395 206.203 2.95633 206.32 2.597 206.553C2.24233 206.786 1.99267 207.155 1.848 207.659L0.847 207.365C1.01967 206.688 1.36733 206.163 1.89 205.79C2.41267 205.417 3.09167 205.23 3.927 205.23C4.61767 205.23 5.20333 205.361 5.684 205.622C6.16933 205.879 6.51233 206.252 6.713 206.742C6.80633 206.961 6.867 207.206 6.895 207.477C6.923 207.748 6.937 208.023 6.937 208.303V213H6.02V211.103L6.286 211.215C6.02933 211.864 5.63033 212.358 5.089 212.699C4.54767 213.04 3.899 213.21 3.143 213.21ZM3.262 212.321C3.74267 212.321 4.16267 212.235 4.522 212.062C4.88133 211.889 5.17067 211.654 5.39 211.355C5.60933 211.052 5.75167 210.711 5.817 210.333C5.873 210.09 5.90333 209.824 5.908 209.535C5.91267 209.241 5.915 209.022 5.915 208.877L6.307 209.08C5.957 209.127 5.57667 209.173 5.166 209.22C4.76 209.267 4.35867 209.32 3.962 209.381C3.57 209.442 3.21533 209.514 2.898 209.598C2.68333 209.659 2.47567 209.745 2.275 209.857C2.07433 209.964 1.90867 210.109 1.778 210.291C1.652 210.473 1.589 210.699 1.589 210.97C1.589 211.189 1.64267 211.402 1.75 211.607C1.862 211.812 2.03933 211.983 2.282 212.118C2.52933 212.253 2.856 212.321 3.262 212.321ZM11.6923 213.21C10.9876 213.21 10.3856 213.035 9.8863 212.685C9.38696 212.33 9.0043 211.852 8.7383 211.25C8.4723 210.648 8.3393 209.969 8.3393 209.213C8.3393 208.462 8.46996 207.785 8.7313 207.183C8.9973 206.581 9.37763 206.105 9.8723 205.755C10.367 205.405 10.9596 205.23 11.6503 205.23C12.3596 205.23 12.957 205.403 13.4423 205.748C13.9276 206.093 14.294 206.567 14.5413 207.169C14.7933 207.766 14.9193 208.448 14.9193 209.213C14.9193 209.964 14.7956 210.643 14.5483 211.25C14.301 211.852 13.937 212.33 13.4563 212.685C12.9756 213.035 12.3876 213.21 11.6923 213.21ZM11.7973 212.251C12.334 212.251 12.7773 212.12 13.1273 211.859C13.4773 211.598 13.7386 211.238 13.9113 210.781C14.084 210.319 14.1703 209.796 14.1703 209.213C14.1703 208.62 14.084 208.098 13.9113 207.645C13.7386 207.188 13.4773 206.831 13.1273 206.574C12.782 206.317 12.3456 206.189 11.8183 206.189C11.277 206.189 10.829 206.322 10.4743 206.588C10.1196 206.854 9.85596 207.216 9.6833 207.673C9.5153 208.13 9.4313 208.644 9.4313 209.213C9.4313 209.787 9.51763 210.305 9.6903 210.767C9.86763 211.224 10.1313 211.586 10.4813 211.852C10.8313 212.118 11.27 212.251 11.7973 212.251ZM14.1703 213V207.309H14.0583V202.92H15.0943V213H14.1703ZM17.1981 204.005V202.85H18.2271V204.005H17.1981ZM17.1981 213V205.44H18.2271V213H17.1981ZM23.7207 213.21C23.0254 213.21 22.4374 213.035 21.9567 212.685C21.476 212.33 21.112 211.852 20.8647 211.25C20.6174 210.643 20.4937 209.964 20.4937 209.213C20.4937 208.448 20.6174 207.766 20.8647 207.169C21.1167 206.567 21.4854 206.093 21.9707 205.748C22.456 205.403 23.0534 205.23 23.7627 205.23C24.4534 205.23 25.046 205.405 25.5407 205.755C26.0354 206.105 26.4134 206.581 26.6747 207.183C26.9407 207.785 27.0737 208.462 27.0737 209.213C27.0737 209.969 26.9407 210.648 26.6747 211.25C26.4087 211.852 26.026 212.33 25.5267 212.685C25.0274 213.035 24.4254 213.21 23.7207 213.21ZM20.3187 216.36V205.44H21.2427V211.131H21.3547V216.36H20.3187ZM23.6157 212.251C24.143 212.251 24.5817 212.118 24.9317 211.852C25.2817 211.586 25.543 211.224 25.7157 210.767C25.893 210.305 25.9817 209.787 25.9817 209.213C25.9817 208.644 25.8954 208.13 25.7227 207.673C25.55 207.216 25.2864 206.854 24.9317 206.588C24.5817 206.322 24.136 206.189 23.5947 206.189C23.0674 206.189 22.6287 206.317 22.2787 206.574C21.9334 206.831 21.6744 207.188 21.5017 207.645C21.329 208.098 21.2427 208.62 21.2427 209.213C21.2427 209.796 21.329 210.319 21.5017 210.781C21.6744 211.238 21.9357 211.598 22.2857 211.859C22.6357 212.12 23.079 212.251 23.6157 212.251ZM28.7509 204.005V202.85H29.7799V204.005H28.7509ZM28.7509 213V205.44H29.7799V213H28.7509ZM34.6994 213.203C33.8128 213.203 33.0824 213.012 32.5084 212.629C31.9391 212.246 31.5891 211.714 31.4584 211.033L32.5084 210.858C32.6204 211.287 32.8748 211.63 33.2714 211.887C33.6728 212.139 34.1674 212.265 34.7554 212.265C35.3294 212.265 35.7821 212.146 36.1134 211.908C36.4448 211.665 36.6104 211.336 36.6104 210.921C36.6104 210.688 36.5568 210.499 36.4494 210.354C36.3468 210.205 36.1344 210.067 35.8124 209.941C35.4904 209.815 35.0098 209.666 34.3704 209.493C33.6844 209.306 33.1478 209.12 32.7604 208.933C32.3731 208.746 32.0978 208.532 31.9344 208.289C31.7711 208.042 31.6894 207.741 31.6894 207.386C31.6894 206.957 31.8108 206.581 32.0534 206.259C32.2961 205.932 32.6321 205.68 33.0614 205.503C33.4908 205.321 33.9901 205.23 34.5594 205.23C35.1288 205.23 35.6374 205.323 36.0854 205.51C36.5381 205.692 36.9021 205.949 37.1774 206.28C37.4528 206.611 37.6161 206.996 37.6674 207.435L36.6174 207.624C36.5474 207.181 36.3258 206.831 35.9524 206.574C35.5838 206.313 35.1148 206.177 34.5454 206.168C34.0088 206.154 33.5724 206.257 33.2364 206.476C32.9004 206.691 32.7324 206.978 32.7324 207.337C32.7324 207.538 32.7931 207.71 32.9144 207.855C33.0358 207.995 33.2551 208.128 33.5724 208.254C33.8944 208.38 34.3518 208.518 34.9444 208.667C35.6398 208.844 36.1858 209.031 36.5824 209.227C36.9791 209.423 37.2614 209.654 37.4294 209.92C37.5974 210.186 37.6814 210.515 37.6814 210.907C37.6814 211.621 37.4154 212.183 36.8834 212.594C36.3561 213 35.6281 213.203 34.6994 213.203ZM42.3699 213.21C41.6092 213.21 40.9652 213.04 40.4379 212.699C39.9106 212.358 39.5092 211.889 39.2339 211.292C38.9632 210.69 38.8232 209.999 38.8139 209.22C38.8232 208.427 38.9679 207.731 39.2479 207.134C39.5279 206.532 39.9316 206.065 40.4589 205.734C40.9862 205.398 41.6256 205.23 42.3769 205.23C43.1422 205.23 43.8072 205.417 44.3719 205.79C44.9412 206.163 45.3309 206.674 45.5409 207.323L44.5329 207.645C44.3556 207.192 44.0732 206.842 43.6859 206.595C43.3032 206.343 42.8646 206.217 42.3699 206.217C41.8146 206.217 41.3549 206.345 40.9909 206.602C40.6269 206.854 40.3562 207.206 40.1789 207.659C40.0016 208.112 39.9106 208.632 39.9059 209.22C39.9152 210.125 40.1252 210.853 40.5359 211.404C40.9466 211.95 41.5579 212.223 42.3699 212.223C42.8832 212.223 43.3196 212.106 43.6789 211.873C44.0429 211.635 44.3182 211.29 44.5049 210.837L45.5409 211.145C45.2609 211.817 44.8502 212.33 44.3089 212.685C43.7676 213.035 43.1212 213.21 42.3699 213.21ZM46.9208 204.005V202.85H47.9498V204.005H46.9208ZM46.9208 213V205.44H47.9498V213H46.9208ZM55.5084 213V209.143C55.5084 208.723 55.4687 208.338 55.3894 207.988C55.31 207.633 55.1817 207.325 55.0044 207.064C54.8317 206.798 54.6054 206.593 54.3254 206.448C54.05 206.303 53.714 206.231 53.3174 206.231C52.9534 206.231 52.6314 206.294 52.3514 206.42C52.076 206.546 51.8427 206.728 51.6514 206.966C51.4647 207.199 51.3224 207.484 51.2244 207.82C51.1264 208.156 51.0774 208.539 51.0774 208.968L50.3494 208.807C50.3494 208.032 50.4847 207.381 50.7554 206.854C51.026 206.327 51.3994 205.928 51.8754 205.657C52.3514 205.386 52.8974 205.251 53.5134 205.251C53.966 205.251 54.3604 205.321 54.6964 205.461C55.037 205.601 55.324 205.79 55.5574 206.028C55.7954 206.266 55.9867 206.539 56.1314 206.847C56.276 207.15 56.381 207.475 56.4464 207.82C56.5117 208.161 56.5444 208.501 56.5444 208.842V213H55.5084ZM50.0414 213V205.44H50.9724V207.302H51.0774V213H50.0414ZM61.3639 216.57C60.9765 216.57 60.5939 216.512 60.2159 216.395C59.8425 216.283 59.4972 216.103 59.1799 215.856C58.8625 215.613 58.5965 215.296 58.3819 214.904L59.3129 214.386C59.5229 214.806 59.8169 215.107 60.1949 215.289C60.5775 215.476 60.9672 215.569 61.3639 215.569C61.9099 215.569 62.3509 215.466 62.6869 215.261C63.0275 215.06 63.2749 214.762 63.4289 214.365C63.5829 213.968 63.6575 213.474 63.6529 212.881V210.865H63.7719V205.44H64.6889V212.895C64.6889 213.11 64.6819 213.315 64.6679 213.511C64.6585 213.712 64.6375 213.908 64.6049 214.099C64.5162 214.664 64.3319 215.128 64.0519 215.492C63.7765 215.856 63.4125 216.127 62.9599 216.304C62.5119 216.481 61.9799 216.57 61.3639 216.57ZM61.2939 213.21C60.5892 213.21 59.9872 213.035 59.4879 212.685C58.9885 212.33 58.6059 211.852 58.3399 211.25C58.0739 210.648 57.9409 209.969 57.9409 209.213C57.9409 208.462 58.0715 207.785 58.3329 207.183C58.5989 206.581 58.9792 206.105 59.4739 205.755C59.9685 205.405 60.5612 205.23 61.2519 205.23C61.9612 205.23 62.5585 205.403 63.0439 205.748C63.5292 206.093 63.8955 206.567 64.1429 207.169C64.3949 207.766 64.5209 208.448 64.5209 209.213C64.5209 209.964 64.3972 210.643 64.1499 211.25C63.9025 211.852 63.5385 212.33 63.0579 212.685C62.5772 213.035 61.9892 213.21 61.2939 213.21ZM61.3989 212.251C61.9355 212.251 62.3789 212.12 62.7289 211.859C63.0789 211.598 63.3402 211.238 63.5129 210.781C63.6855 210.319 63.7719 209.796 63.7719 209.213C63.7719 208.62 63.6855 208.098 63.5129 207.645C63.3402 207.188 63.0789 206.831 62.7289 206.574C62.3835 206.317 61.9472 206.189 61.4199 206.189C60.8785 206.189 60.4305 206.322 60.0759 206.588C59.7212 206.854 59.4575 207.216 59.2849 207.673C59.1169 208.13 59.0329 208.644 59.0329 209.213C59.0329 209.787 59.1192 210.305 59.2919 210.767C59.4692 211.224 59.7329 211.586 60.0829 211.852C60.4329 212.118 60.8715 212.251 61.3989 212.251ZM72.6478 213.21C71.9104 213.21 71.2711 213.047 70.7298 212.72C70.1931 212.393 69.7754 211.934 69.4768 211.341C69.1781 210.748 69.0288 210.053 69.0288 209.255C69.0288 208.429 69.1758 207.715 69.4698 207.113C69.7638 206.511 70.1768 206.047 70.7088 205.72C71.2454 205.393 71.8778 205.23 72.6058 205.23C73.3524 205.23 73.9894 205.403 74.5168 205.748C75.0441 206.089 75.4431 206.579 75.7138 207.218C75.9844 207.857 76.1081 208.62 76.0848 209.507H75.0348V209.143C75.0161 208.163 74.8038 207.423 74.3978 206.924C73.9964 206.425 73.4084 206.175 72.6338 206.175C71.8218 206.175 71.1988 206.439 70.7648 206.966C70.3354 207.493 70.1208 208.245 70.1208 209.22C70.1208 210.172 70.3354 210.912 70.7648 211.439C71.1988 211.962 71.8124 212.223 72.6058 212.223C73.1471 212.223 73.6184 212.099 74.0198 211.852C74.4258 211.6 74.7454 211.238 74.9788 210.767L75.9378 211.138C75.6391 211.796 75.1981 212.307 74.6148 212.671C74.0361 213.03 73.3804 213.21 72.6478 213.21ZM69.7568 209.507V208.646H75.5318V209.507H69.7568ZM77.7782 213V202.71H78.8072V213H77.7782ZM81.0458 204.005V202.85H82.0748V204.005H81.0458ZM81.0458 213V205.44H82.0748V213H81.0458ZM88.2894 213C87.8647 213.089 87.4447 213.124 87.0294 213.105C86.6187 213.086 86.25 212.998 85.9234 212.839C85.6014 212.68 85.3564 212.433 85.1884 212.097C85.053 211.817 84.9784 211.535 84.9644 211.25C84.955 210.961 84.9504 210.632 84.9504 210.263V203.34H85.9724V210.221C85.9724 210.538 85.9747 210.804 85.9794 211.019C85.9887 211.229 86.0377 211.416 86.1264 211.579C86.2944 211.892 86.5604 212.078 86.9244 212.139C87.293 212.2 87.748 212.186 88.2894 212.097V213ZM83.3334 206.322V205.44H88.2894V206.322H83.3334ZM89.9748 213V211.803H91.1718V213H89.9748ZM96.1363 213V202.92H99.1953C99.3026 202.92 99.4846 202.922 99.7413 202.927C100.003 202.932 100.252 202.95 100.49 202.983C101.256 203.09 101.895 203.375 102.408 203.837C102.922 204.299 103.307 204.887 103.563 205.601C103.82 206.315 103.948 207.101 103.948 207.96C103.948 208.819 103.82 209.605 103.563 210.319C103.307 211.033 102.922 211.621 102.408 212.083C101.895 212.545 101.256 212.83 100.49 212.937C100.257 212.965 100.007 212.984 99.7413 212.993C99.4753 212.998 99.2933 213 99.1953 213H96.1363ZM97.2003 212.013H99.1953C99.3866 212.013 99.5919 212.008 99.8113 211.999C100.035 211.985 100.227 211.962 100.385 211.929C100.973 211.826 101.447 211.588 101.806 211.215C102.17 210.842 102.436 210.375 102.604 209.815C102.772 209.25 102.856 208.632 102.856 207.96C102.856 207.283 102.772 206.663 102.604 206.098C102.436 205.533 102.17 205.067 101.806 204.698C101.442 204.329 100.969 204.094 100.385 203.991C100.227 203.958 100.033 203.937 99.8043 203.928C99.5803 203.914 99.3773 203.907 99.1953 203.907H97.2003V212.013ZM108.7 213.21C107.948 213.21 107.307 213.04 106.775 212.699C106.243 212.358 105.834 211.887 105.55 211.285C105.265 210.683 105.123 209.992 105.123 209.213C105.123 208.42 105.267 207.724 105.557 207.127C105.846 206.53 106.257 206.065 106.789 205.734C107.325 205.398 107.962 205.23 108.7 205.23C109.456 205.23 110.1 205.4 110.632 205.741C111.168 206.077 111.577 206.546 111.857 207.148C112.141 207.745 112.284 208.434 112.284 209.213C112.284 210.006 112.141 210.704 111.857 211.306C111.572 211.903 111.161 212.37 110.625 212.706C110.088 213.042 109.446 213.21 108.7 213.21ZM108.7 212.223C109.54 212.223 110.165 211.945 110.576 211.39C110.986 210.83 111.192 210.104 111.192 209.213C111.192 208.298 110.984 207.57 110.569 207.029C110.158 206.488 109.535 206.217 108.7 206.217C108.135 206.217 107.668 206.345 107.3 206.602C106.936 206.854 106.663 207.206 106.481 207.659C106.303 208.107 106.215 208.625 106.215 209.213C106.215 210.123 106.425 210.853 106.845 211.404C107.265 211.95 107.883 212.223 108.7 212.223ZM119.288 213V209.143C119.288 208.723 119.248 208.338 119.169 207.988C119.089 207.633 118.961 207.325 118.784 207.064C118.611 206.798 118.385 206.593 118.105 206.448C117.829 206.303 117.493 206.231 117.097 206.231C116.733 206.231 116.411 206.294 116.131 206.42C115.855 206.546 115.622 206.728 115.431 206.966C115.244 207.199 115.102 207.484 115.004 207.82C114.906 208.156 114.857 208.539 114.857 208.968L114.129 208.807C114.129 208.032 114.264 207.381 114.535 206.854C114.805 206.327 115.179 205.928 115.655 205.657C116.131 205.386 116.677 205.251 117.293 205.251C117.745 205.251 118.14 205.321 118.476 205.461C118.816 205.601 119.103 205.79 119.337 206.028C119.575 206.266 119.766 206.539 119.911 206.847C120.055 207.15 120.16 207.475 120.226 207.82C120.291 208.161 120.324 208.501 120.324 208.842V213H119.288ZM113.821 213V205.44H114.752V207.302H114.857V213H113.821ZM125.298 213.21C124.561 213.21 123.921 213.047 123.38 212.72C122.843 212.393 122.426 211.934 122.127 211.341C121.828 210.748 121.679 210.053 121.679 209.255C121.679 208.429 121.826 207.715 122.12 207.113C122.414 206.511 122.827 206.047 123.359 205.72C123.896 205.393 124.528 205.23 125.256 205.23C126.003 205.23 126.64 205.403 127.167 205.748C127.694 206.089 128.093 206.579 128.364 207.218C128.635 207.857 128.758 208.62 128.735 209.507H127.685V209.143C127.666 208.163 127.454 207.423 127.048 206.924C126.647 206.425 126.059 206.175 125.284 206.175C124.472 206.175 123.849 206.439 123.415 206.966C122.986 207.493 122.771 208.245 122.771 209.22C122.771 210.172 122.986 210.912 123.415 211.439C123.849 211.962 124.463 212.223 125.256 212.223C125.797 212.223 126.269 212.099 126.67 211.852C127.076 211.6 127.396 211.238 127.629 210.767L128.588 211.138C128.289 211.796 127.848 212.307 127.265 212.671C126.686 213.03 126.031 213.21 125.298 213.21ZM122.407 209.507V208.646H128.182V209.507H122.407ZM133.425 213.21C132.664 213.21 132.02 213.04 131.493 212.699C130.965 212.358 130.564 211.889 130.289 211.292C130.018 210.69 129.878 209.999 129.869 209.22C129.878 208.427 130.023 207.731 130.303 207.134C130.583 206.532 130.986 206.065 131.514 205.734C132.041 205.398 132.68 205.23 133.432 205.23C134.197 205.23 134.862 205.417 135.427 205.79C135.996 206.163 136.386 206.674 136.596 207.323L135.588 207.645C135.41 207.192 135.128 206.842 134.741 206.595C134.358 206.343 133.919 206.217 133.425 206.217C132.869 206.217 132.41 206.345 132.046 206.602C131.682 206.854 131.411 207.206 131.234 207.659C131.056 208.112 130.965 208.632 130.961 209.22C130.97 210.125 131.18 210.853 131.591 211.404C132.001 211.95 132.613 212.223 133.425 212.223C133.938 212.223 134.374 212.106 134.734 211.873C135.098 211.635 135.373 211.29 135.56 210.837L136.596 211.145C136.316 211.817 135.905 212.33 135.364 212.685C134.822 213.035 134.176 213.21 133.425 213.21ZM1.729 232V223.88C1.729 223.684 1.73833 223.49 1.757 223.299C1.78033 223.108 1.82467 222.926 1.89 222.753C1.95533 222.576 2.058 222.412 2.198 222.263C2.352 222.095 2.52 221.974 2.702 221.899C2.884 221.82 3.073 221.768 3.269 221.745C3.46967 221.722 3.66567 221.71 3.857 221.71H4.823V222.578H3.927C3.535 222.578 3.241 222.674 3.045 222.865C2.85367 223.056 2.758 223.357 2.758 223.768V232H1.729ZM0.42 225.322V224.44H4.823V225.322H0.42ZM8.86845 232.21C8.13112 232.21 7.49179 232.047 6.95045 231.72C6.41379 231.393 5.99612 230.934 5.69745 230.341C5.39879 229.748 5.24945 229.053 5.24945 228.255C5.24945 227.429 5.39645 226.715 5.69045 226.113C5.98445 225.511 6.39745 225.047 6.92945 224.72C7.46612 224.393 8.09845 224.23 8.82645 224.23C9.57312 224.23 10.2101 224.403 10.7375 224.748C11.2648 225.089 11.6638 225.579 11.9345 226.218C12.2051 226.857 12.3288 227.62 12.3055 228.507H11.2555V228.143C11.2368 227.163 11.0245 226.423 10.6185 225.924C10.2171 225.425 9.62912 225.175 8.85445 225.175C8.04245 225.175 7.41945 225.439 6.98545 225.966C6.55612 226.493 6.34145 227.245 6.34145 228.22C6.34145 229.172 6.55612 229.912 6.98545 230.439C7.41945 230.962 8.03312 231.223 8.82645 231.223C9.36779 231.223 9.83912 231.099 10.2405 230.852C10.6465 230.6 10.9661 230.238 11.1995 229.767L12.1585 230.138C11.8598 230.796 11.4188 231.307 10.8355 231.671C10.2568 232.03 9.60112 232.21 8.86845 232.21ZM5.97745 228.507V227.646H11.7525V228.507H5.97745ZM13.9989 232V221.71H15.0279V232H13.9989ZM17.2665 223.005V221.85H18.2955V223.005H17.2665ZM17.2665 232V224.44H18.2955V232H17.2665ZM23.2151 232.203C22.3284 232.203 21.5981 232.012 21.0241 231.629C20.4547 231.246 20.1047 230.714 19.9741 230.033L21.0241 229.858C21.1361 230.287 21.3904 230.63 21.7871 230.887C22.1884 231.139 22.6831 231.265 23.2711 231.265C23.8451 231.265 24.2977 231.146 24.6291 230.908C24.9604 230.665 25.1261 230.336 25.1261 229.921C25.1261 229.688 25.0724 229.499 24.9651 229.354C24.8624 229.205 24.6501 229.067 24.3281 228.941C24.0061 228.815 23.5254 228.666 22.8861 228.493C22.2001 228.306 21.6634 228.12 21.2761 227.933C20.8887 227.746 20.6134 227.532 20.4501 227.289C20.2867 227.042 20.2051 226.741 20.2051 226.386C20.2051 225.957 20.3264 225.581 20.5691 225.259C20.8117 224.932 21.1477 224.68 21.5771 224.503C22.0064 224.321 22.5057 224.23 23.0751 224.23C23.6444 224.23 24.1531 224.323 24.6011 224.51C25.0537 224.692 25.4177 224.949 25.6931 225.28C25.9684 225.611 26.1317 225.996 26.1831 226.435L25.1331 226.624C25.0631 226.181 24.8414 225.831 24.4681 225.574C24.0994 225.313 23.6304 225.177 23.0611 225.168C22.5244 225.154 22.0881 225.257 21.7521 225.476C21.4161 225.691 21.2481 225.978 21.2481 226.337C21.2481 226.538 21.3087 226.71 21.4301 226.855C21.5514 226.995 21.7707 227.128 22.0881 227.254C22.4101 227.38 22.8674 227.518 23.4601 227.667C24.1554 227.844 24.7014 228.031 25.0981 228.227C25.4947 228.423 25.7771 228.654 25.9451 228.92C26.1131 229.186 26.1971 229.515 26.1971 229.907C26.1971 230.621 25.9311 231.183 25.3991 231.594C24.8717 232 24.1437 232.203 23.2151 232.203ZM27.6095 233.463L27.6725 232.952C27.8592 232.966 27.9945 232.929 28.0785 232.84C28.1625 232.751 28.2139 232.632 28.2325 232.483C28.2512 232.334 28.2559 232.173 28.2465 232H27.6095V230.523H28.8065V232.28C28.8065 232.709 28.6969 233.031 28.4775 233.246C28.2629 233.461 27.9735 233.533 27.6095 233.463ZM37.092 232.203C36.2053 232.203 35.475 232.012 34.901 231.629C34.3317 231.246 33.9817 230.714 33.851 230.033L34.901 229.858C35.013 230.287 35.2673 230.63 35.664 230.887C36.0653 231.139 36.56 231.265 37.148 231.265C37.722 231.265 38.1747 231.146 38.506 230.908C38.8373 230.665 39.003 230.336 39.003 229.921C39.003 229.688 38.9493 229.499 38.842 229.354C38.7393 229.205 38.527 229.067 38.205 228.941C37.883 228.815 37.4023 228.666 36.763 228.493C36.077 228.306 35.5403 228.12 35.153 227.933C34.7657 227.746 34.4903 227.532 34.327 227.289C34.1637 227.042 34.082 226.741 34.082 226.386C34.082 225.957 34.2033 225.581 34.446 225.259C34.6887 224.932 35.0247 224.68 35.454 224.503C35.8833 224.321 36.3827 224.23 36.952 224.23C37.5213 224.23 38.03 224.323 38.478 224.51C38.9307 224.692 39.2947 224.949 39.57 225.28C39.8453 225.611 40.0087 225.996 40.06 226.435L39.01 226.624C38.94 226.181 38.7183 225.831 38.345 225.574C37.9763 225.313 37.5073 225.177 36.938 225.168C36.4013 225.154 35.965 225.257 35.629 225.476C35.293 225.691 35.125 225.978 35.125 226.337C35.125 226.538 35.1857 226.71 35.307 226.855C35.4283 226.995 35.6477 227.128 35.965 227.254C36.287 227.38 36.7443 227.518 37.337 227.667C38.0323 227.844 38.5783 228.031 38.975 228.227C39.3717 228.423 39.654 228.654 39.822 228.92C39.99 229.186 40.074 229.515 40.074 229.907C40.074 230.621 39.808 231.183 39.276 231.594C38.7487 232 38.0207 232.203 37.092 232.203ZM44.5175 232.189C44.0648 232.189 43.6682 232.119 43.3275 231.979C42.9915 231.839 42.7045 231.65 42.4665 231.412C42.2332 231.174 42.0442 230.903 41.8995 230.6C41.7548 230.292 41.6498 229.968 41.5845 229.627C41.5192 229.282 41.4865 228.939 41.4865 228.598V224.44H42.5225V228.297C42.5225 228.712 42.5622 229.097 42.6415 229.452C42.7208 229.807 42.8468 230.117 43.0195 230.383C43.1968 230.644 43.4232 230.847 43.6985 230.992C43.9785 231.137 44.3168 231.209 44.7135 231.209C45.0775 231.209 45.3972 231.146 45.6725 231.02C45.9525 230.894 46.1858 230.714 46.3725 230.481C46.5638 230.243 46.7085 229.956 46.8065 229.62C46.9045 229.279 46.9535 228.897 46.9535 228.472L47.6815 228.633C47.6815 229.408 47.5462 230.059 47.2755 230.586C47.0048 231.113 46.6315 231.512 46.1555 231.783C45.6795 232.054 45.1335 232.189 44.5175 232.189ZM47.0585 232V230.138H46.9535V224.44H47.9825V232H47.0585ZM52.76 232.203C51.8733 232.203 51.143 232.012 50.569 231.629C49.9997 231.246 49.6497 230.714 49.519 230.033L50.569 229.858C50.681 230.287 50.9353 230.63 51.332 230.887C51.7333 231.139 52.228 231.265 52.816 231.265C53.39 231.265 53.8427 231.146 54.174 230.908C54.5053 230.665 54.671 230.336 54.671 229.921C54.671 229.688 54.6173 229.499 54.51 229.354C54.4073 229.205 54.195 229.067 53.873 228.941C53.551 228.815 53.0703 228.666 52.431 228.493C51.745 228.306 51.2083 228.12 50.821 227.933C50.4337 227.746 50.1583 227.532 49.995 227.289C49.8317 227.042 49.75 226.741 49.75 226.386C49.75 225.957 49.8713 225.581 50.114 225.259C50.3567 224.932 50.6927 224.68 51.122 224.503C51.5513 224.321 52.0507 224.23 52.62 224.23C53.1893 224.23 53.698 224.323 54.146 224.51C54.5987 224.692 54.9627 224.949 55.238 225.28C55.5133 225.611 55.6767 225.996 55.728 226.435L54.678 226.624C54.608 226.181 54.3863 225.831 54.013 225.574C53.6443 225.313 53.1753 225.177 52.606 225.168C52.0693 225.154 51.633 225.257 51.297 225.476C50.961 225.691 50.793 225.978 50.793 226.337C50.793 226.538 50.8537 226.71 50.975 226.855C51.0963 226.995 51.3157 227.128 51.633 227.254C51.955 227.38 52.4123 227.518 53.005 227.667C53.7003 227.844 54.2463 228.031 54.643 228.227C55.0397 228.423 55.322 228.654 55.49 228.92C55.658 229.186 55.742 229.515 55.742 229.907C55.742 230.621 55.476 231.183 54.944 231.594C54.4167 232 53.6887 232.203 52.76 232.203ZM60.4305 232.21C59.6698 232.21 59.0258 232.04 58.4985 231.699C57.9711 231.358 57.5698 230.889 57.2945 230.292C57.0238 229.69 56.8838 228.999 56.8745 228.22C56.8838 227.427 57.0285 226.731 57.3085 226.134C57.5885 225.532 57.9921 225.065 58.5195 224.734C59.0468 224.398 59.6861 224.23 60.4375 224.23C61.2028 224.23 61.8678 224.417 62.4325 224.79C63.0018 225.163 63.3915 225.674 63.6015 226.323L62.5935 226.645C62.4161 226.192 62.1338 225.842 61.7465 225.595C61.3638 225.343 60.9251 225.217 60.4305 225.217C59.8751 225.217 59.4155 225.345 59.0515 225.602C58.6875 225.854 58.4168 226.206 58.2395 226.659C58.0621 227.112 57.9711 227.632 57.9665 228.22C57.9758 229.125 58.1858 229.853 58.5965 230.404C59.0071 230.95 59.6185 231.223 60.4305 231.223C60.9438 231.223 61.3801 231.106 61.7395 230.873C62.1035 230.635 62.3788 230.29 62.5655 229.837L63.6015 230.145C63.3215 230.817 62.9108 231.33 62.3695 231.685C61.8281 232.035 61.1818 232.21 60.4305 232.21ZM64.9813 223.005V221.85H66.0103V223.005H64.9813ZM64.9813 232V224.44H66.0103V232H64.9813ZM71.5039 232.21C70.8086 232.21 70.2206 232.035 69.7399 231.685C69.2592 231.33 68.8952 230.852 68.6479 230.25C68.4006 229.643 68.2769 228.964 68.2769 228.213C68.2769 227.448 68.4006 226.766 68.6479 226.169C68.8999 225.567 69.2686 225.093 69.7539 224.748C70.2392 224.403 70.8366 224.23 71.5459 224.23C72.2366 224.23 72.8292 224.405 73.3239 224.755C73.8186 225.105 74.1966 225.581 74.4579 226.183C74.7239 226.785 74.8569 227.462 74.8569 228.213C74.8569 228.969 74.7239 229.648 74.4579 230.25C74.1919 230.852 73.8092 231.33 73.3099 231.685C72.8106 232.035 72.2086 232.21 71.5039 232.21ZM68.1019 235.36V224.44H69.0259V230.131H69.1379V235.36H68.1019ZM71.3989 231.251C71.9262 231.251 72.3649 231.118 72.7149 230.852C73.0649 230.586 73.3262 230.224 73.4989 229.767C73.6762 229.305 73.7649 228.787 73.7649 228.213C73.7649 227.644 73.6786 227.13 73.5059 226.673C73.3332 226.216 73.0696 225.854 72.7149 225.588C72.3649 225.322 71.9192 225.189 71.3779 225.189C70.8506 225.189 70.4119 225.317 70.0619 225.574C69.7166 225.831 69.4576 226.188 69.2849 226.645C69.1122 227.098 69.0259 227.62 69.0259 228.213C69.0259 228.796 69.1122 229.319 69.2849 229.781C69.4576 230.238 69.7189 230.598 70.0689 230.859C70.4189 231.12 70.8622 231.251 71.3989 231.251ZM76.5341 223.005V221.85H77.5631V223.005H76.5341ZM76.5341 232V224.44H77.5631V232H76.5341ZM83.7776 232C83.353 232.089 82.933 232.124 82.5176 232.105C82.107 232.086 81.7383 231.998 81.4116 231.839C81.0896 231.68 80.8446 231.433 80.6766 231.097C80.5413 230.817 80.4666 230.535 80.4526 230.25C80.4433 229.961 80.4386 229.632 80.4386 229.263V222.34H81.4606V229.221C81.4606 229.538 81.463 229.804 81.4676 230.019C81.477 230.229 81.526 230.416 81.6146 230.579C81.7826 230.892 82.0486 231.078 82.4126 231.139C82.7813 231.2 83.2363 231.186 83.7776 231.097V232ZM78.8216 225.322V224.44H83.7776V225.322H78.8216Z" fill="#676767"/>
<path d="M51.8333 22.7833L41.995 32.62C41.4218 33.1934 41.0151 33.9118 40.8183 34.6983L40.055 37.75C39.9791 38.0536 39.9831 38.3717 40.0667 38.6733C40.1503 38.9749 40.3106 39.2497 40.532 39.4709C40.7534 39.6922 41.0283 39.8523 41.33 39.9356C41.6317 40.019 41.9498 40.0228 42.2533 39.9466L45.3033 39.185C46.0907 38.9881 46.8097 38.5808 47.3833 38.0066L57.22 28.17C57.9163 27.4519 58.3022 26.4888 58.2946 25.4887C58.287 24.4885 57.8863 23.5315 57.1792 22.8241C56.4721 22.1167 55.5151 21.7158 54.515 21.7079C53.5148 21.6999 52.5516 22.0873 51.8333 22.7833ZM27.0833 25H47.2583L44.7583 27.5H27.0833C26.7813 27.5 26.4894 27.6094 26.2618 27.8079C26.0341 28.0065 25.8861 28.2807 25.845 28.58L25.8333 28.75V46.2533C25.8333 46.8866 26.3033 47.4083 26.9133 47.4916L27.0833 47.5033H52.915C53.2171 47.5033 53.5089 47.3939 53.7366 47.1954C53.9642 46.9968 54.1123 46.7226 54.1533 46.4233L54.165 46.2533V33.5833L56.665 31.0833V46.2533C56.6651 47.2035 56.3045 48.1183 55.6561 48.8129C55.0076 49.5075 54.1197 49.9299 53.1717 49.995L52.915 50.0033H45.8317V54.1666H48.75C49.0667 54.1667 49.3716 54.287 49.603 54.5033C49.8344 54.7195 49.9751 55.0155 49.9967 55.3314C50.0183 55.6474 49.9192 55.9598 49.7193 56.2055C49.5194 56.4511 49.2338 56.6118 48.92 56.655L48.75 56.6666H31.25C30.9333 56.6665 30.6284 56.5462 30.397 56.33C30.1656 56.1138 30.0249 55.8178 30.0033 55.5018C29.9817 55.1859 30.0809 54.8735 30.2807 54.6278C30.4806 54.3821 30.7663 54.2215 31.08 54.1783L31.25 54.1666H34.165V50.0033H27.0833C26.1331 50.0034 25.2183 49.6428 24.5238 48.9944C23.8292 48.3459 23.4067 47.458 23.3417 46.51L23.3333 46.2533V28.75C23.3332 27.7998 23.6938 26.8849 24.3423 26.1904C24.9907 25.4958 25.8787 25.0733 26.8267 25.0083L27.0833 25ZM43.33 50.0033H36.6633L36.665 54.1666H43.3317L43.33 50.0033Z" fill="white"/>
</svg>
