<svg width="50" height="50" viewBox="0 0 50 50" fill="none" xmlns="http://www.w3.org/2000/svg">
<rect width="50" height="50" rx="25" fill="white" fill-opacity="0.2"/>
<path d="M25.1813 21.4062C27.15 21.4062 28.775 23.0312 28.775 25C28.775 27 27.15 28.5938 25.1813 28.5938C23.1813 28.5938 21.5875 27 21.5875 25C21.5875 23.0312 23.1813 21.4062 25.1813 21.4062ZM25.1813 27.3438C26.4625 27.3438 27.4938 26.3125 27.4938 25C27.4938 23.7188 26.4625 22.6875 25.1813 22.6875C23.8688 22.6875 22.8375 23.7188 22.8375 25C22.8375 26.3125 23.9 27.3438 25.1813 27.3438ZM29.7438 21.2812C29.7438 21.75 29.3688 22.125 28.9 22.125C28.4313 22.125 28.0563 21.75 28.0563 21.2812C28.0563 20.8125 28.4313 20.4375 28.9 20.4375C29.3688 20.4375 29.7438 20.8125 29.7438 21.2812ZM32.1188 22.125C32.1813 23.2812 32.1813 26.75 32.1188 27.9062C32.0563 29.0312 31.8063 30 30.9938 30.8438C30.1813 31.6562 29.1813 31.9062 28.0563 31.9688C26.9 32.0312 23.4313 32.0312 22.275 31.9688C21.15 31.9062 20.1813 31.6562 19.3375 30.8438C18.525 30 18.275 29.0312 18.2125 27.9062C18.15 26.75 18.15 23.2812 18.2125 22.125C18.275 21 18.525 20 19.3375 19.1875C20.1813 18.375 21.15 18.125 22.275 18.0625C23.4313 18 26.9 18 28.0563 18.0625C29.1813 18.125 30.1813 18.375 30.9938 19.1875C31.8063 20 32.0563 21 32.1188 22.125ZM30.6188 29.125C30.9938 28.2188 30.9 26.0312 30.9 25C30.9 24 30.9938 21.8125 30.6188 20.875C30.3688 20.2812 29.9 19.7812 29.3063 19.5625C28.3688 19.1875 26.1813 19.2812 25.1813 19.2812C24.15 19.2812 21.9625 19.1875 21.0563 19.5625C20.4313 19.8125 19.9625 20.2812 19.7125 20.875C19.3375 21.8125 19.4313 24 19.4313 25C19.4313 26.0312 19.3375 28.2188 19.7125 29.125C19.9625 29.75 20.4313 30.2188 21.0563 30.4688C21.9625 30.8438 24.15 30.75 25.1813 30.75C26.1813 30.75 28.3688 30.8438 29.3063 30.4688C29.9 30.2188 30.4 29.75 30.6188 29.125Z" fill="white"/>
</svg>
