<svg width="24" height="17" viewBox="0 0 24 17" fill="none" xmlns="http://www.w3.org/2000/svg">
<path d="M22.5 16.9342C22.5 16.9342 24 16.9342 24 15.523C24 14.1118 22.5 9.87829 16.5 9.87829C10.5 9.87829 9 14.1118 9 15.523C9 16.9342 10.5 16.9342 10.5 16.9342H22.5ZM10.533 15.523C10.5219 15.5216 10.5109 15.5197 10.5 15.5174C10.5015 15.1448 10.7505 14.0639 11.64 13.0901C12.468 12.1771 13.923 11.2895 16.5 11.2895C19.0755 11.2895 20.5305 12.1785 21.36 13.0901C22.2495 14.0639 22.497 15.1462 22.5 15.5174L22.488 15.5202C22.481 15.5213 22.474 15.5223 22.467 15.523H10.533ZM16.5 7.05592C17.2956 7.05592 18.0587 6.75857 18.6213 6.22927C19.1839 5.69997 19.5 4.98209 19.5 4.23355C19.5 3.48501 19.1839 2.76713 18.6213 2.23784C18.0587 1.70854 17.2956 1.41118 16.5 1.41118C15.7044 1.41118 14.9413 1.70854 14.3787 2.23784C13.8161 2.76713 13.5 3.48501 13.5 4.23355C13.5 4.98209 13.8161 5.69997 14.3787 6.22927C14.9413 6.75857 15.7044 7.05592 16.5 7.05592ZM21 4.23355C21 4.78951 20.8836 5.34002 20.6575 5.85366C20.4313 6.3673 20.0998 6.834 19.682 7.22713C19.2641 7.62025 18.768 7.93209 18.2221 8.14485C17.6761 8.3576 17.0909 8.4671 16.5 8.4671C15.9091 8.4671 15.3239 8.3576 14.7779 8.14485C14.232 7.93209 13.7359 7.62025 13.318 7.22713C12.9002 6.834 12.5687 6.3673 12.3425 5.85366C12.1164 5.34002 12 4.78951 12 4.23355C12 3.11074 12.4741 2.03392 13.318 1.23998C14.1619 0.446034 15.3065 0 16.5 0C17.6935 0 18.8381 0.446034 19.682 1.23998C20.5259 2.03392 21 3.11074 21 4.23355ZM10.404 10.2734C9.80397 10.0957 9.18545 9.97881 8.559 9.92486C8.207 9.89337 7.85359 9.87783 7.5 9.87829C1.5 9.87829 0 14.1118 0 15.523C0 16.4643 0.4995 16.9342 1.5 16.9342H7.824C7.60163 16.4937 7.49074 16.0106 7.5 15.523C7.5 14.0977 8.0655 12.6414 9.135 11.4249C9.4995 11.0101 9.924 10.622 10.404 10.2734ZM7.38 11.2895C6.49223 12.5444 6.01266 14.0156 6 15.523H1.5C1.5 15.1561 1.746 14.0695 2.64 13.0901C3.4575 12.1926 4.878 11.3177 7.38 11.2909V11.2895ZM2.25 4.93914C2.25 3.81634 2.72411 2.73952 3.56802 1.94557C4.41193 1.15163 5.55653 0.705592 6.75 0.705592C7.94347 0.705592 9.08807 1.15163 9.93198 1.94557C10.7759 2.73952 11.25 3.81634 11.25 4.93914C11.25 6.06195 10.7759 7.13877 9.93198 7.93272C9.08807 8.72666 7.94347 9.1727 6.75 9.1727C5.55653 9.1727 4.41193 8.72666 3.56802 7.93272C2.72411 7.13877 2.25 6.06195 2.25 4.93914ZM6.75 2.11678C5.95435 2.11678 5.19129 2.41413 4.62868 2.94343C4.06607 3.47273 3.75 4.19061 3.75 4.93914C3.75 5.68768 4.06607 6.40556 4.62868 6.93486C5.19129 7.46416 5.95435 7.76151 6.75 7.76151C7.54565 7.76151 8.30871 7.46416 8.87132 6.93486C9.43393 6.40556 9.75 5.68768 9.75 4.93914C9.75 4.19061 9.43393 3.47273 8.87132 2.94343C8.30871 2.41413 7.54565 2.11678 6.75 2.11678Z" fill="black"/>
</svg>
