<svg width="72" height="24" viewBox="0 0 72 24" fill="none" xmlns="http://www.w3.org/2000/svg">
<path fill-rule="evenodd" clip-rule="evenodd" d="M10 20C12.1217 20 14.1566 19.1571 15.6569 17.6569C17.1571 16.1566 18 14.1217 18 12C18 9.87827 17.1571 7.84344 15.6569 6.34315C14.1566 4.84285 12.1217 4 10 4C7.87827 4 5.84344 4.84285 4.34315 6.34315C2.84285 7.84344 2 9.87827 2 12C2 14.1217 2.84285 16.1566 4.34315 17.6569C5.84344 19.1571 7.87827 20 10 20ZM11 8C11 7.73478 10.8946 7.48043 10.7071 7.29289C10.5196 7.10536 10.2652 7 10 7C9.73478 7 9.48043 7.10536 9.29289 7.29289C9.10536 7.48043 9 7.73478 9 8V12C9.00006 12.2652 9.10545 12.5195 9.293 12.707L12.121 15.536C12.2139 15.6289 12.3242 15.7026 12.4456 15.7529C12.567 15.8032 12.6971 15.8291 12.8285 15.8291C12.9599 15.8291 13.09 15.8032 13.2114 15.7529C13.3328 15.7026 13.4431 15.6289 13.536 15.536C13.6289 15.4431 13.7026 15.3328 13.7529 15.2114C13.8032 15.09 13.8291 14.9599 13.8291 14.8285C13.8291 14.6971 13.8032 14.567 13.7529 14.4456C13.7026 14.3242 13.6289 14.2139 13.536 14.121L11 11.586V8Z" fill="#023047"/>
<path d="M34.168 14.464C34.168 15.2 33.976 15.8453 33.592 16.4C33.208 16.9547 32.6907 17.3867 32.04 17.696C31.3893 18.0053 30.6693 18.16 29.88 18.16C29.1333 18.16 28.4293 18.0053 27.768 17.696C27.1173 17.3867 26.5893 16.9493 26.184 16.384C25.7893 15.808 25.592 15.136 25.592 14.368C25.592 13.984 25.6613 13.6373 25.8 13.328C25.9493 13.0187 26.1307 12.7467 26.344 12.512C26.5573 12.2773 26.7653 12.0853 26.968 11.936C26.7653 11.808 26.584 11.6427 26.424 11.44C26.264 11.2373 26.136 11.0133 26.04 10.768C25.9547 10.512 25.912 10.2613 25.912 10.016C25.912 9.472 26.0347 8.992 26.28 8.576C26.5253 8.14933 26.8453 7.792 27.24 7.504C27.6347 7.216 28.0613 7.00267 28.52 6.864C28.9893 6.71467 29.4427 6.64 29.88 6.64C30.3173 6.64 30.7707 6.71467 31.24 6.864C31.7093 7.00267 32.1413 7.216 32.536 7.504C32.9307 7.78133 33.2507 8.128 33.496 8.544C33.7413 8.96 33.864 9.44 33.864 9.984C33.864 10.2293 33.816 10.48 33.72 10.736C33.624 10.992 33.496 11.2267 33.336 11.44C33.176 11.6533 32.9947 11.8187 32.792 11.936C33.0053 12.096 33.2187 12.2987 33.432 12.544C33.6453 12.7787 33.8213 13.056 33.96 13.376C34.0987 13.696 34.168 14.0587 34.168 14.464ZM31.08 14.288C31.08 14.1067 31.048 13.952 30.984 13.824C30.9307 13.6853 30.8453 13.568 30.728 13.472C30.6213 13.376 30.4933 13.3067 30.344 13.264C30.2053 13.2107 30.0507 13.184 29.88 13.184C29.6453 13.184 29.4373 13.232 29.256 13.328C29.0747 13.4133 28.9307 13.5413 28.824 13.712C28.728 13.872 28.68 14.064 28.68 14.288C28.68 14.448 28.712 14.5973 28.776 14.736C28.84 14.864 28.9253 14.9813 29.032 15.088C29.1387 15.184 29.2613 15.2587 29.4 15.312C29.5493 15.3653 29.7093 15.392 29.88 15.392C30.1147 15.392 30.3227 15.344 30.504 15.248C30.6853 15.1413 30.824 15.008 30.92 14.848C31.0267 14.6773 31.08 14.4907 31.08 14.288ZM29 10.08C29 10.272 29.0427 10.432 29.128 10.56C29.2133 10.6773 29.3253 10.768 29.464 10.832C29.6027 10.896 29.7413 10.928 29.88 10.928C30.0293 10.928 30.168 10.896 30.296 10.832C30.4347 10.768 30.5467 10.6773 30.632 10.56C30.728 10.432 30.776 10.272 30.776 10.08C30.776 9.94133 30.7387 9.81333 30.664 9.696C30.5893 9.57867 30.4827 9.488 30.344 9.424C30.216 9.34933 30.0613 9.312 29.88 9.312C29.7093 9.312 29.5547 9.34933 29.416 9.424C29.288 9.488 29.1867 9.57867 29.112 9.696C29.0373 9.81333 29 9.94133 29 10.08ZM49.399 6.64V18H46.279V13.552H42.471V18H39.351V6.64H42.471V10.832H46.279V6.64H49.399ZM51.351 18V6.64H56.567C57.1217 6.64 57.6337 6.752 58.103 6.976C58.5723 7.2 58.9777 7.504 59.319 7.888C59.6603 8.26133 59.9217 8.68267 60.103 9.152C60.295 9.62133 60.391 10.096 60.391 10.576C60.391 11.0133 60.327 11.4347 60.199 11.84C60.071 12.2453 59.8843 12.6187 59.639 12.96C59.3937 13.2907 59.1003 13.5787 58.759 13.824L61.159 18H57.735L55.735 14.512H54.471V18H51.351ZM54.471 11.792H56.439C56.567 11.792 56.6897 11.744 56.807 11.648C56.9243 11.552 57.0203 11.4133 57.095 11.232C57.1803 11.0507 57.223 10.832 57.223 10.576C57.223 10.3093 57.175 10.0907 57.079 9.92C56.9937 9.73867 56.8817 9.6 56.743 9.504C56.615 9.408 56.487 9.36 56.359 9.36H54.471V11.792ZM69.0279 10.352C69.0279 10.352 68.9372 10.2987 68.7559 10.192C68.5745 10.0853 68.3345 9.968 68.0359 9.84C67.7372 9.70133 67.4119 9.57867 67.0599 9.472C66.7079 9.36533 66.3612 9.312 66.0199 9.312C65.7532 9.312 65.5345 9.35467 65.3639 9.44C65.1932 9.52533 65.1079 9.66933 65.1079 9.872C65.1079 10.064 65.1932 10.2187 65.3639 10.336C65.5345 10.4533 65.7745 10.56 66.0839 10.656C66.4039 10.752 66.7825 10.8693 67.2199 11.008C67.9239 11.2213 68.5319 11.4667 69.0439 11.744C69.5559 12.0213 69.9505 12.3787 70.2279 12.816C70.5052 13.2427 70.6439 13.8133 70.6439 14.528C70.6439 15.2107 70.5212 15.7867 70.2759 16.256C70.0305 16.7147 69.6999 17.0827 69.2839 17.36C68.8679 17.6373 68.4039 17.84 67.8919 17.968C67.3799 18.0853 66.8572 18.144 66.3239 18.144C65.7799 18.144 65.2092 18.0907 64.6119 17.984C64.0252 17.8667 63.4545 17.712 62.8999 17.52C62.3452 17.3173 61.8385 17.0827 61.3799 16.816L62.7239 14.08C62.7239 14.08 62.8305 14.144 63.0439 14.272C63.2572 14.4 63.5399 14.544 63.8919 14.704C64.2439 14.864 64.6332 15.008 65.0599 15.136C65.4972 15.264 65.9345 15.328 66.3719 15.328C66.7132 15.328 66.9479 15.2853 67.0759 15.2C67.2145 15.104 67.2839 14.9813 67.2839 14.832C67.2839 14.608 67.1665 14.4373 66.9319 14.32C66.6972 14.192 66.3879 14.0747 66.0039 13.968C65.6305 13.8507 65.2145 13.7173 64.7559 13.568C64.0945 13.344 63.5505 13.0933 63.1239 12.816C62.6972 12.528 62.3825 12.192 62.1799 11.808C61.9772 11.4133 61.8759 10.9387 61.8759 10.384C61.8759 9.54133 62.0732 8.83733 62.4679 8.272C62.8625 7.70667 63.3799 7.28 64.0199 6.992C64.6705 6.69333 65.3692 6.544 66.1159 6.544C66.6705 6.544 67.2039 6.61333 67.7159 6.752C68.2385 6.88 68.7239 7.04 69.1719 7.232C69.6305 7.424 70.0305 7.60533 70.3719 7.776L69.0279 10.352Z" fill="#023047"/>
</svg>
