<svg width="270" height="316" viewBox="0 0 270 316" fill="none" xmlns="http://www.w3.org/2000/svg">
<rect width="270" height="316" fill="#E82F27"/>
<circle cx="93" cy="80" r="40" fill="#FF6E68"/>
<path d="M53.9 170.982V169.092L59.444 164.151C59.876 163.767 60.176 163.404 60.344 163.062C60.512 162.72 60.596 162.39 60.596 162.072C60.596 161.64 60.503 161.256 60.317 160.92C60.131 160.578 59.873 160.308 59.543 160.11C59.219 159.912 58.844 159.813 58.418 159.813C57.968 159.813 57.569 159.918 57.221 160.128C56.879 160.332 56.612 160.605 56.42 160.947C56.228 161.289 56.138 161.658 56.15 162.054H53.918C53.918 161.19 54.11 160.437 54.494 159.795C54.884 159.153 55.418 158.655 56.096 158.301C56.78 157.947 57.569 157.77 58.463 157.77C59.291 157.77 60.035 157.956 60.695 158.328C61.355 158.694 61.874 159.204 62.252 159.858C62.63 160.506 62.819 161.253 62.819 162.099C62.819 162.717 62.735 163.236 62.567 163.656C62.399 164.076 62.147 164.463 61.811 164.817C61.481 165.171 61.07 165.564 60.578 165.996L56.645 169.479L56.447 168.939H62.819V170.982H53.9ZM70.0131 171V168.858H64.2711V166.833L68.4201 158.04H70.8951L66.7461 166.833H70.0131V163.458H72.2091V166.833H73.4241V168.858H72.2091V171H70.0131ZM78.8583 158.04H81.0363L77.5803 171H75.4023L78.8583 158.04ZM84.0264 171L88.4904 160.092H82.8294V158.04H90.8124V160.092L86.3664 171H84.0264ZM101.368 171.27C100.42 171.27 99.5645 171.105 98.8025 170.775C98.0465 170.445 97.4225 169.974 96.9305 169.362C96.4445 168.744 96.1355 168.012 96.0035 167.166L98.2535 166.824C98.4455 167.592 98.8385 168.186 99.4325 168.606C100.033 169.026 100.723 169.236 101.503 169.236C101.965 169.236 102.4 169.164 102.808 169.02C103.216 168.876 103.546 168.666 103.798 168.39C104.056 168.114 104.185 167.775 104.185 167.373C104.185 167.193 104.155 167.028 104.095 166.878C104.035 166.722 103.945 166.584 103.825 166.464C103.711 166.344 103.561 166.236 103.375 166.14C103.195 166.038 102.985 165.951 102.745 165.879L99.3965 164.889C99.1085 164.805 98.7965 164.694 98.4605 164.556C98.1305 164.412 97.8155 164.217 97.5155 163.971C97.2215 163.719 96.9785 163.401 96.7865 163.017C96.6005 162.627 96.5075 162.147 96.5075 161.577C96.5075 160.743 96.7175 160.044 97.1375 159.48C97.5635 158.91 98.1335 158.484 98.8475 158.202C99.5675 157.92 100.366 157.782 101.242 157.788C102.13 157.794 102.922 157.947 103.618 158.247C104.314 158.541 104.896 158.97 105.364 159.534C105.832 160.098 106.162 160.779 106.354 161.577L104.023 161.982C103.927 161.526 103.741 161.139 103.465 160.821C103.195 160.497 102.862 160.251 102.466 160.083C102.076 159.915 101.659 159.825 101.215 159.813C100.783 159.807 100.381 159.873 100.009 160.011C99.6425 160.143 99.3455 160.335 99.1175 160.587C98.8955 160.839 98.7845 161.133 98.7845 161.469C98.7845 161.787 98.8805 162.048 99.0725 162.252C99.2645 162.45 99.5015 162.609 99.7835 162.729C100.072 162.843 100.363 162.939 100.657 163.017L102.979 163.665C103.297 163.749 103.654 163.863 104.05 164.007C104.446 164.151 104.827 164.352 105.193 164.61C105.559 164.868 105.859 165.207 106.093 165.627C106.333 166.047 106.453 166.581 106.453 167.229C106.453 167.901 106.312 168.492 106.03 169.002C105.754 169.506 105.379 169.926 104.905 170.262C104.431 170.598 103.888 170.85 103.276 171.018C102.67 171.186 102.034 171.27 101.368 171.27ZM112.82 171.27C111.836 171.27 110.972 171.057 110.228 170.631C109.484 170.205 108.902 169.614 108.482 168.858C108.068 168.102 107.861 167.232 107.861 166.248C107.861 165.186 108.065 164.265 108.473 163.485C108.881 162.699 109.448 162.09 110.174 161.658C110.9 161.226 111.74 161.01 112.694 161.01C113.702 161.01 114.557 161.247 115.259 161.721C115.967 162.189 116.492 162.852 116.834 163.71C117.176 164.568 117.305 165.579 117.221 166.743H115.07V165.951C115.064 164.895 114.878 164.124 114.512 163.638C114.146 163.152 113.57 162.909 112.784 162.909C111.896 162.909 111.236 163.185 110.804 163.737C110.372 164.283 110.156 165.084 110.156 166.14C110.156 167.124 110.372 167.886 110.804 168.426C111.236 168.966 111.866 169.236 112.694 169.236C113.228 169.236 113.687 169.119 114.071 168.885C114.461 168.645 114.761 168.3 114.971 167.85L117.113 168.498C116.741 169.374 116.165 170.055 115.385 170.541C114.611 171.027 113.756 171.27 112.82 171.27ZM109.472 166.743V165.105H116.159V166.743H109.472ZM119.229 171V161.28H121.146V163.647L120.912 163.341C121.032 163.017 121.191 162.723 121.389 162.459C121.593 162.189 121.836 161.967 122.118 161.793C122.358 161.631 122.622 161.505 122.91 161.415C123.204 161.319 123.504 161.262 123.81 161.244C124.116 161.22 124.413 161.232 124.701 161.28V163.305C124.413 163.221 124.08 163.194 123.702 163.224C123.33 163.254 122.994 163.359 122.694 163.539C122.394 163.701 122.148 163.908 121.956 164.16C121.77 164.412 121.632 164.7 121.542 165.024C121.452 165.342 121.407 165.687 121.407 166.059V171H119.229ZM129.046 171L125.518 161.28H127.687L130.135 168.327L132.574 161.28H134.752L131.224 171H129.046ZM136.547 159.804V157.815H138.716V159.804H136.547ZM136.547 171V161.28H138.716V171H136.547ZM145.633 171.27C144.631 171.27 143.776 171.048 143.068 170.604C142.36 170.154 141.817 169.542 141.439 168.768C141.067 167.994 140.878 167.118 140.872 166.14C140.878 165.144 141.073 164.262 141.457 163.494C141.847 162.72 142.399 162.114 143.113 161.676C143.827 161.232 144.676 161.01 145.66 161.01C146.764 161.01 147.697 161.289 148.459 161.847C149.227 162.399 149.728 163.155 149.962 164.115L147.802 164.7C147.634 164.178 147.355 163.773 146.965 163.485C146.575 163.191 146.131 163.044 145.633 163.044C145.069 163.044 144.604 163.179 144.238 163.449C143.872 163.713 143.602 164.079 143.428 164.547C143.254 165.015 143.167 165.546 143.167 166.14C143.167 167.064 143.374 167.811 143.788 168.381C144.202 168.951 144.817 169.236 145.633 169.236C146.209 169.236 146.662 169.104 146.992 168.84C147.328 168.576 147.58 168.195 147.748 167.697L149.962 168.192C149.662 169.182 149.137 169.944 148.387 170.478C147.637 171.006 146.719 171.27 145.633 171.27ZM155.921 171.27C154.937 171.27 154.073 171.057 153.329 170.631C152.585 170.205 152.003 169.614 151.583 168.858C151.169 168.102 150.962 167.232 150.962 166.248C150.962 165.186 151.166 164.265 151.574 163.485C151.982 162.699 152.549 162.09 153.275 161.658C154.001 161.226 154.841 161.01 155.795 161.01C156.803 161.01 157.658 161.247 158.36 161.721C159.068 162.189 159.593 162.852 159.935 163.71C160.277 164.568 160.406 165.579 160.322 166.743H158.171V165.951C158.165 164.895 157.979 164.124 157.613 163.638C157.247 163.152 156.671 162.909 155.885 162.909C154.997 162.909 154.337 163.185 153.905 163.737C153.473 164.283 153.257 165.084 153.257 166.14C153.257 167.124 153.473 167.886 153.905 168.426C154.337 168.966 154.967 169.236 155.795 169.236C156.329 169.236 156.788 169.119 157.172 168.885C157.562 168.645 157.862 168.3 158.072 167.85L160.214 168.498C159.842 169.374 159.266 170.055 158.486 170.541C157.712 171.027 156.857 171.27 155.921 171.27ZM152.573 166.743V165.105H159.26V166.743H152.573ZM166.083 171.27C164.883 171.27 163.908 171 163.158 170.46C162.408 169.92 161.952 169.161 161.79 168.183L164.004 167.841C164.118 168.321 164.37 168.699 164.76 168.975C165.15 169.251 165.642 169.389 166.236 169.389C166.758 169.389 167.16 169.287 167.442 169.083C167.73 168.873 167.874 168.588 167.874 168.228C167.874 168.006 167.82 167.829 167.712 167.697C167.61 167.559 167.382 167.427 167.028 167.301C166.674 167.175 166.131 167.016 165.399 166.824C164.583 166.608 163.935 166.377 163.455 166.131C162.975 165.879 162.63 165.582 162.42 165.24C162.21 164.898 162.105 164.484 162.105 163.998C162.105 163.392 162.264 162.864 162.582 162.414C162.9 161.964 163.344 161.619 163.914 161.379C164.484 161.133 165.156 161.01 165.93 161.01C166.686 161.01 167.355 161.127 167.937 161.361C168.525 161.595 168.999 161.928 169.359 162.36C169.719 162.792 169.941 163.299 170.025 163.881L167.811 164.277C167.757 163.863 167.568 163.536 167.244 163.296C166.926 163.056 166.5 162.921 165.966 162.891C165.456 162.861 165.045 162.939 164.733 163.125C164.421 163.305 164.265 163.56 164.265 163.89C164.265 164.076 164.328 164.235 164.454 164.367C164.58 164.499 164.832 164.631 165.21 164.763C165.594 164.895 166.164 165.057 166.92 165.249C167.694 165.447 168.312 165.675 168.774 165.933C169.242 166.185 169.578 166.488 169.782 166.842C169.992 167.196 170.097 167.625 170.097 168.129C170.097 169.107 169.74 169.875 169.026 170.433C168.318 170.991 167.337 171.27 166.083 171.27Z" fill="white"/>
<path d="M54.12 215V204.92H55.149V214.013H59.937V215H54.12ZM64.2874 215.21C63.5361 215.21 62.8944 215.04 62.3624 214.699C61.8304 214.358 61.4221 213.887 61.1374 213.285C60.8527 212.683 60.7104 211.992 60.7104 211.213C60.7104 210.42 60.8551 209.724 61.1444 209.127C61.4337 208.53 61.8444 208.065 62.3764 207.734C62.9131 207.398 63.5501 207.23 64.2874 207.23C65.0434 207.23 65.6874 207.4 66.2194 207.741C66.7561 208.077 67.1644 208.546 67.4444 209.148C67.7291 209.745 67.8714 210.434 67.8714 211.213C67.8714 212.006 67.7291 212.704 67.4444 213.306C67.1597 213.903 66.7491 214.37 66.2124 214.706C65.6757 215.042 65.0341 215.21 64.2874 215.21ZM64.2874 214.223C65.1274 214.223 65.7527 213.945 66.1634 213.39C66.5741 212.83 66.7794 212.104 66.7794 211.213C66.7794 210.298 66.5717 209.57 66.1564 209.029C65.7457 208.488 65.1227 208.217 64.2874 208.217C63.7227 208.217 63.2561 208.345 62.8874 208.602C62.5234 208.854 62.2504 209.206 62.0684 209.659C61.8911 210.107 61.8024 210.625 61.8024 211.213C61.8024 212.123 62.0124 212.853 62.4324 213.404C62.8524 213.95 63.4707 214.223 64.2874 214.223ZM69.4155 215V207.44H70.3395V209.26L70.1575 209.022C70.2415 208.798 70.3512 208.593 70.4865 208.406C70.6219 208.215 70.7689 208.058 70.9275 207.937C71.1235 207.764 71.3522 207.634 71.6135 207.545C71.8749 207.452 72.1385 207.398 72.4045 207.384C72.6705 207.365 72.9132 207.384 73.1325 207.44V208.406C72.8572 208.336 72.5562 208.32 72.2295 208.357C71.9029 208.394 71.6019 208.525 71.3265 208.749C71.0745 208.945 70.8855 209.181 70.7595 209.456C70.6335 209.727 70.5495 210.016 70.5075 210.324C70.4655 210.627 70.4445 210.928 70.4445 211.227V215H69.4155ZM77.5228 215.21C76.7854 215.21 76.1461 215.047 75.6048 214.72C75.0681 214.393 74.6504 213.934 74.3518 213.341C74.0531 212.748 73.9038 212.053 73.9038 211.255C73.9038 210.429 74.0508 209.715 74.3448 209.113C74.6388 208.511 75.0518 208.047 75.5838 207.72C76.1204 207.393 76.7528 207.23 77.4808 207.23C78.2274 207.23 78.8644 207.403 79.3918 207.748C79.9191 208.089 80.3181 208.579 80.5888 209.218C80.8594 209.857 80.9831 210.62 80.9598 211.507H79.9098V211.143C79.8911 210.163 79.6788 209.423 79.2728 208.924C78.8714 208.425 78.2834 208.175 77.5088 208.175C76.6968 208.175 76.0738 208.439 75.6398 208.966C75.2104 209.493 74.9958 210.245 74.9958 211.22C74.9958 212.172 75.2104 212.912 75.6398 213.439C76.0738 213.962 76.6874 214.223 77.4808 214.223C78.0221 214.223 78.4934 214.099 78.8948 213.852C79.3008 213.6 79.6204 213.238 79.8538 212.767L80.8128 213.138C80.5141 213.796 80.0731 214.307 79.4898 214.671C78.9111 215.03 78.2554 215.21 77.5228 215.21ZM74.6318 211.507V210.646H80.4068V211.507H74.6318ZM91.3241 215L91.3311 210.037C91.3311 209.454 91.1678 208.996 90.8411 208.665C90.5191 208.329 90.1085 208.161 89.6091 208.161C89.3245 208.161 89.0468 208.226 88.7761 208.357C88.5055 208.488 88.2815 208.698 88.1041 208.987C87.9315 209.276 87.8451 209.654 87.8451 210.121L87.2361 209.946C87.2221 209.405 87.3271 208.931 87.5511 208.525C87.7798 208.119 88.0925 207.804 88.4891 207.58C88.8905 207.351 89.3431 207.237 89.8471 207.237C90.6078 207.237 91.2168 207.473 91.6741 207.944C92.1315 208.411 92.3601 209.043 92.3601 209.841L92.3531 215H91.3241ZM82.3011 215V207.44H83.2251V209.302H83.3371V215H82.3011ZM86.8231 215L86.8301 210.107C86.8301 209.505 86.6691 209.031 86.3471 208.686C86.0298 208.336 85.6098 208.161 85.0871 208.161C84.5645 208.161 84.1421 208.341 83.8201 208.7C83.4981 209.055 83.3371 209.528 83.3371 210.121L82.7211 209.785C82.7211 209.3 82.8355 208.866 83.0641 208.483C83.2928 208.096 83.6055 207.792 84.0021 207.573C84.3988 207.349 84.8491 207.237 85.3531 207.237C85.8338 207.237 86.2608 207.34 86.6341 207.545C87.0121 207.75 87.3085 208.049 87.5231 208.441C87.7378 208.833 87.8451 209.309 87.8451 209.869L87.8381 215H86.8231ZM97.118 206.005V204.85H98.147V206.005H97.118ZM97.118 215V207.44H98.147V215H97.118ZM103.641 215.21C102.945 215.21 102.357 215.035 101.877 214.685C101.396 214.33 101.032 213.852 100.785 213.25C100.537 212.643 100.414 211.964 100.414 211.213C100.414 210.448 100.537 209.766 100.785 209.169C101.037 208.567 101.405 208.093 101.891 207.748C102.376 207.403 102.973 207.23 103.683 207.23C104.373 207.23 104.966 207.405 105.461 207.755C105.955 208.105 106.333 208.581 106.595 209.183C106.861 209.785 106.994 210.462 106.994 211.213C106.994 211.969 106.861 212.648 106.595 213.25C106.329 213.852 105.946 214.33 105.447 214.685C104.947 215.035 104.345 215.21 103.641 215.21ZM100.239 218.36V207.44H101.163V213.131H101.275V218.36H100.239ZM103.536 214.251C104.063 214.251 104.502 214.118 104.852 213.852C105.202 213.586 105.463 213.224 105.636 212.767C105.813 212.305 105.902 211.787 105.902 211.213C105.902 210.644 105.815 210.13 105.643 209.673C105.47 209.216 105.206 208.854 104.852 208.588C104.502 208.322 104.056 208.189 103.515 208.189C102.987 208.189 102.549 208.317 102.199 208.574C101.853 208.831 101.594 209.188 101.422 209.645C101.249 210.098 101.163 210.62 101.163 211.213C101.163 211.796 101.249 212.319 101.422 212.781C101.594 213.238 101.856 213.598 102.206 213.859C102.556 214.12 102.999 214.251 103.536 214.251ZM111.283 215.203C110.397 215.203 109.666 215.012 109.092 214.629C108.523 214.246 108.173 213.714 108.042 213.033L109.092 212.858C109.204 213.287 109.459 213.63 109.855 213.887C110.257 214.139 110.751 214.265 111.339 214.265C111.913 214.265 112.366 214.146 112.697 213.908C113.029 213.665 113.194 213.336 113.194 212.921C113.194 212.688 113.141 212.499 113.033 212.354C112.931 212.205 112.718 212.067 112.396 211.941C112.074 211.815 111.594 211.666 110.954 211.493C110.268 211.306 109.732 211.12 109.344 210.933C108.957 210.746 108.682 210.532 108.518 210.289C108.355 210.042 108.273 209.741 108.273 209.386C108.273 208.957 108.395 208.581 108.637 208.259C108.88 207.932 109.216 207.68 109.645 207.503C110.075 207.321 110.574 207.23 111.143 207.23C111.713 207.23 112.221 207.323 112.669 207.51C113.122 207.692 113.486 207.949 113.761 208.28C114.037 208.611 114.2 208.996 114.251 209.435L113.201 209.624C113.131 209.181 112.91 208.831 112.536 208.574C112.168 208.313 111.699 208.177 111.129 208.168C110.593 208.154 110.156 208.257 109.82 208.476C109.484 208.691 109.316 208.978 109.316 209.337C109.316 209.538 109.377 209.71 109.498 209.855C109.62 209.995 109.839 210.128 110.156 210.254C110.478 210.38 110.936 210.518 111.528 210.667C112.224 210.844 112.77 211.031 113.166 211.227C113.563 211.423 113.845 211.654 114.013 211.92C114.181 212.186 114.265 212.515 114.265 212.907C114.265 213.621 113.999 214.183 113.467 214.594C112.94 215 112.212 215.203 111.283 215.203ZM118.709 215.189C118.256 215.189 117.86 215.119 117.519 214.979C117.183 214.839 116.896 214.65 116.658 214.412C116.425 214.174 116.236 213.903 116.091 213.6C115.946 213.292 115.841 212.968 115.776 212.627C115.711 212.282 115.678 211.939 115.678 211.598V207.44H116.714V211.297C116.714 211.712 116.754 212.097 116.833 212.452C116.912 212.807 117.038 213.117 117.211 213.383C117.388 213.644 117.615 213.847 117.89 213.992C118.17 214.137 118.508 214.209 118.905 214.209C119.269 214.209 119.589 214.146 119.864 214.02C120.144 213.894 120.377 213.714 120.564 213.481C120.755 213.243 120.9 212.956 120.998 212.62C121.096 212.279 121.145 211.897 121.145 211.472L121.873 211.633C121.873 212.408 121.738 213.059 121.467 213.586C121.196 214.113 120.823 214.512 120.347 214.783C119.871 215.054 119.325 215.189 118.709 215.189ZM121.25 215V213.138H121.145V207.44H122.174V215H121.25ZM133.146 215L133.153 210.037C133.153 209.454 132.99 208.996 132.663 208.665C132.341 208.329 131.931 208.161 131.431 208.161C131.147 208.161 130.869 208.226 130.598 208.357C130.328 208.488 130.104 208.698 129.926 208.987C129.754 209.276 129.667 209.654 129.667 210.121L129.058 209.946C129.044 209.405 129.149 208.931 129.373 208.525C129.602 208.119 129.915 207.804 130.311 207.58C130.713 207.351 131.165 207.237 131.669 207.237C132.43 207.237 133.039 207.473 133.496 207.944C133.954 208.411 134.182 209.043 134.182 209.841L134.175 215H133.146ZM124.123 215V207.44H125.047V209.302H125.159V215H124.123ZM128.645 215L128.652 210.107C128.652 209.505 128.491 209.031 128.169 208.686C127.852 208.336 127.432 208.161 126.909 208.161C126.387 208.161 125.964 208.341 125.642 208.7C125.32 209.055 125.159 209.528 125.159 210.121L124.543 209.785C124.543 209.3 124.658 208.866 124.886 208.483C125.115 208.096 125.428 207.792 125.824 207.573C126.221 207.349 126.671 207.237 127.175 207.237C127.656 207.237 128.083 207.34 128.456 207.545C128.834 207.75 129.131 208.049 129.345 208.441C129.56 208.833 129.667 209.309 129.667 209.869L129.66 215H128.645ZM141.733 215.21C141.029 215.21 140.427 215.035 139.927 214.685C139.428 214.33 139.045 213.852 138.779 213.25C138.513 212.648 138.38 211.969 138.38 211.213C138.38 210.462 138.511 209.785 138.772 209.183C139.038 208.581 139.419 208.105 139.913 207.755C140.408 207.405 141.001 207.23 141.691 207.23C142.401 207.23 142.998 207.403 143.483 207.748C143.969 208.093 144.335 208.567 144.582 209.169C144.834 209.766 144.96 210.448 144.96 211.213C144.96 211.964 144.837 212.643 144.589 213.25C144.342 213.852 143.978 214.33 143.497 214.685C143.017 215.035 142.429 215.21 141.733 215.21ZM141.838 214.251C142.375 214.251 142.818 214.12 143.168 213.859C143.518 213.598 143.78 213.238 143.952 212.781C144.125 212.319 144.211 211.796 144.211 211.213C144.211 210.62 144.125 210.098 143.952 209.645C143.78 209.188 143.518 208.831 143.168 208.574C142.823 208.317 142.387 208.189 141.859 208.189C141.318 208.189 140.87 208.322 140.515 208.588C140.161 208.854 139.897 209.216 139.724 209.673C139.556 210.13 139.472 210.644 139.472 211.213C139.472 211.787 139.559 212.305 139.731 212.767C139.909 213.224 140.172 213.586 140.522 213.852C140.872 214.118 141.311 214.251 141.838 214.251ZM144.211 215V209.309H144.099V204.92H145.135V215H144.211ZM150.256 215.21C149.505 215.21 148.863 215.04 148.331 214.699C147.799 214.358 147.391 213.887 147.106 213.285C146.821 212.683 146.679 211.992 146.679 211.213C146.679 210.42 146.824 209.724 147.113 209.127C147.402 208.53 147.813 208.065 148.345 207.734C148.882 207.398 149.519 207.23 150.256 207.23C151.012 207.23 151.656 207.4 152.188 207.741C152.725 208.077 153.133 208.546 153.413 209.148C153.698 209.745 153.84 210.434 153.84 211.213C153.84 212.006 153.698 212.704 153.413 213.306C153.128 213.903 152.718 214.37 152.181 214.706C151.644 215.042 151.003 215.21 150.256 215.21ZM150.256 214.223C151.096 214.223 151.721 213.945 152.132 213.39C152.543 212.83 152.748 212.104 152.748 211.213C152.748 210.298 152.54 209.57 152.125 209.029C151.714 208.488 151.091 208.217 150.256 208.217C149.691 208.217 149.225 208.345 148.856 208.602C148.492 208.854 148.219 209.206 148.037 209.659C147.86 210.107 147.771 210.625 147.771 211.213C147.771 212.123 147.981 212.853 148.401 213.404C148.821 213.95 149.439 214.223 150.256 214.223ZM155.524 215V204.71H156.553V215H155.524ZM161.809 215.21C161.058 215.21 160.416 215.04 159.884 214.699C159.352 214.358 158.944 213.887 158.659 213.285C158.374 212.683 158.232 211.992 158.232 211.213C158.232 210.42 158.377 209.724 158.666 209.127C158.955 208.53 159.366 208.065 159.898 207.734C160.435 207.398 161.072 207.23 161.809 207.23C162.565 207.23 163.209 207.4 163.741 207.741C164.278 208.077 164.686 208.546 164.966 209.148C165.251 209.745 165.393 210.434 165.393 211.213C165.393 212.006 165.251 212.704 164.966 213.306C164.681 213.903 164.271 214.37 163.734 214.706C163.197 215.042 162.556 215.21 161.809 215.21ZM161.809 214.223C162.649 214.223 163.274 213.945 163.685 213.39C164.096 212.83 164.301 212.104 164.301 211.213C164.301 210.298 164.093 209.57 163.678 209.029C163.267 208.488 162.644 208.217 161.809 208.217C161.244 208.217 160.778 208.345 160.409 208.602C160.045 208.854 159.772 209.206 159.59 209.659C159.413 210.107 159.324 210.625 159.324 211.213C159.324 212.123 159.534 212.853 159.954 213.404C160.374 213.95 160.992 214.223 161.809 214.223ZM166.937 215V207.44H167.861V209.26L167.679 209.022C167.763 208.798 167.873 208.593 168.008 208.406C168.143 208.215 168.29 208.058 168.449 207.937C168.645 207.764 168.874 207.634 169.135 207.545C169.396 207.452 169.66 207.398 169.926 207.384C170.192 207.365 170.435 207.384 170.654 207.44V208.406C170.379 208.336 170.078 208.32 169.751 208.357C169.424 208.394 169.123 208.525 168.848 208.749C168.596 208.945 168.407 209.181 168.281 209.456C168.155 209.727 168.071 210.016 168.029 210.324C167.987 210.627 167.966 210.928 167.966 211.227V215H166.937ZM177.606 215.203C176.719 215.203 175.989 215.012 175.415 214.629C174.845 214.246 174.495 213.714 174.365 213.033L175.415 212.858C175.527 213.287 175.781 213.63 176.178 213.887C176.579 214.139 177.074 214.265 177.662 214.265C178.236 214.265 178.688 214.146 179.02 213.908C179.351 213.665 179.517 213.336 179.517 212.921C179.517 212.688 179.463 212.499 179.356 212.354C179.253 212.205 179.041 212.067 178.719 211.941C178.397 211.815 177.916 211.666 177.277 211.493C176.591 211.306 176.054 211.12 175.667 210.933C175.279 210.746 175.004 210.532 174.841 210.289C174.677 210.042 174.596 209.741 174.596 209.386C174.596 208.957 174.717 208.581 174.96 208.259C175.202 207.932 175.538 207.68 175.968 207.503C176.397 207.321 176.896 207.23 177.466 207.23C178.035 207.23 178.544 207.323 178.992 207.51C179.444 207.692 179.808 207.949 180.084 208.28C180.359 208.611 180.522 208.996 180.574 209.435L179.524 209.624C179.454 209.181 179.232 208.831 178.859 208.574C178.49 208.313 178.021 208.177 177.452 208.168C176.915 208.154 176.479 208.257 176.143 208.476C175.807 208.691 175.639 208.978 175.639 209.337C175.639 209.538 175.699 209.71 175.821 209.855C175.942 209.995 176.161 210.128 176.479 210.254C176.801 210.38 177.258 210.518 177.851 210.667C178.546 210.844 179.092 211.031 179.489 211.227C179.885 211.423 180.168 211.654 180.336 211.92C180.504 212.186 180.588 212.515 180.588 212.907C180.588 213.621 180.322 214.183 179.79 214.594C179.262 215 178.534 215.203 177.606 215.203ZM182.28 206.005V204.85H183.309V206.005H182.28ZM182.28 215V207.44H183.309V215H182.28ZM189.524 215C189.099 215.089 188.679 215.124 188.264 215.105C187.853 215.086 187.484 214.998 187.158 214.839C186.836 214.68 186.591 214.433 186.423 214.097C186.287 213.817 186.213 213.535 186.199 213.25C186.189 212.961 186.185 212.632 186.185 212.263V205.34H187.207V212.221C187.207 212.538 187.209 212.804 187.214 213.019C187.223 213.229 187.272 213.416 187.361 213.579C187.529 213.892 187.795 214.078 188.159 214.139C188.527 214.2 188.982 214.186 189.524 214.097V215ZM184.568 208.322V207.44H189.524V208.322H184.568ZM56.143 234.21C55.5737 234.21 55.0953 234.107 54.708 233.902C54.3253 233.697 54.0383 233.424 53.847 233.083C53.6557 232.742 53.56 232.371 53.56 231.97C53.56 231.559 53.6417 231.209 53.805 230.92C53.973 230.626 54.1993 230.386 54.484 230.199C54.7733 230.012 55.107 229.87 55.485 229.772C55.8677 229.679 56.29 229.597 56.752 229.527C57.2187 229.452 57.6737 229.389 58.117 229.338C58.565 229.282 58.957 229.228 59.293 229.177L58.929 229.401C58.943 228.654 58.7983 228.101 58.495 227.742C58.1917 227.383 57.6643 227.203 56.913 227.203C56.395 227.203 55.9563 227.32 55.597 227.553C55.2423 227.786 54.9927 228.155 54.848 228.659L53.847 228.365C54.0197 227.688 54.3673 227.163 54.89 226.79C55.4127 226.417 56.0917 226.23 56.927 226.23C57.6177 226.23 58.2033 226.361 58.684 226.622C59.1693 226.879 59.5123 227.252 59.713 227.742C59.8063 227.961 59.867 228.206 59.895 228.477C59.923 228.748 59.937 229.023 59.937 229.303V234H59.02V232.103L59.286 232.215C59.0293 232.864 58.6303 233.358 58.089 233.699C57.5477 234.04 56.899 234.21 56.143 234.21ZM56.262 233.321C56.7427 233.321 57.1627 233.235 57.522 233.062C57.8813 232.889 58.1707 232.654 58.39 232.355C58.6093 232.052 58.7517 231.711 58.817 231.333C58.873 231.09 58.9033 230.824 58.908 230.535C58.9127 230.241 58.915 230.022 58.915 229.877L59.307 230.08C58.957 230.127 58.5767 230.173 58.166 230.22C57.76 230.267 57.3587 230.32 56.962 230.381C56.57 230.442 56.2153 230.514 55.898 230.598C55.6833 230.659 55.4757 230.745 55.275 230.857C55.0743 230.964 54.9087 231.109 54.778 231.291C54.652 231.473 54.589 231.699 54.589 231.97C54.589 232.189 54.6427 232.402 54.75 232.607C54.862 232.812 55.0393 232.983 55.282 233.118C55.5293 233.253 55.856 233.321 56.262 233.321ZM70.7753 234L70.7823 229.037C70.7823 228.454 70.619 227.996 70.2923 227.665C69.9703 227.329 69.5596 227.161 69.0603 227.161C68.7756 227.161 68.498 227.226 68.2273 227.357C67.9566 227.488 67.7326 227.698 67.5553 227.987C67.3826 228.276 67.2963 228.654 67.2963 229.121L66.6873 228.946C66.6733 228.405 66.7783 227.931 67.0023 227.525C67.231 227.119 67.5436 226.804 67.9403 226.58C68.3416 226.351 68.7943 226.237 69.2983 226.237C70.059 226.237 70.668 226.473 71.1253 226.944C71.5826 227.411 71.8113 228.043 71.8113 228.841L71.8043 234H70.7753ZM61.7523 234V226.44H62.6763V228.302H62.7883V234H61.7523ZM66.2743 234L66.2813 229.107C66.2813 228.505 66.1203 228.031 65.7983 227.686C65.481 227.336 65.061 227.161 64.5383 227.161C64.0156 227.161 63.5933 227.341 63.2713 227.7C62.9493 228.055 62.7883 228.528 62.7883 229.121L62.1723 228.785C62.1723 228.3 62.2866 227.866 62.5153 227.483C62.744 227.096 63.0566 226.792 63.4533 226.573C63.85 226.349 64.3003 226.237 64.8043 226.237C65.285 226.237 65.712 226.34 66.0853 226.545C66.4633 226.75 66.7596 227.049 66.9743 227.441C67.189 227.833 67.2963 228.309 67.2963 228.869L67.2893 234H66.2743ZM76.7845 234.21C76.0471 234.21 75.4078 234.047 74.8665 233.72C74.3298 233.393 73.9121 232.934 73.6135 232.341C73.3148 231.748 73.1655 231.053 73.1655 230.255C73.1655 229.429 73.3125 228.715 73.6065 228.113C73.9005 227.511 74.3135 227.047 74.8455 226.72C75.3821 226.393 76.0145 226.23 76.7425 226.23C77.4891 226.23 78.1261 226.403 78.6535 226.748C79.1808 227.089 79.5798 227.579 79.8505 228.218C80.1211 228.857 80.2448 229.62 80.2215 230.507H79.1715V230.143C79.1528 229.163 78.9405 228.423 78.5345 227.924C78.1331 227.425 77.5451 227.175 76.7705 227.175C75.9585 227.175 75.3355 227.439 74.9015 227.966C74.4721 228.493 74.2575 229.245 74.2575 230.22C74.2575 231.172 74.4721 231.912 74.9015 232.439C75.3355 232.962 75.9491 233.223 76.7425 233.223C77.2838 233.223 77.7551 233.099 78.1565 232.852C78.5625 232.6 78.8821 232.238 79.1155 231.767L80.0745 232.138C79.7758 232.796 79.3348 233.307 78.7515 233.671C78.1728 234.03 77.5171 234.21 76.7845 234.21ZM73.8935 230.507V229.646H79.6685V230.507H73.8935ZM85.8909 234C85.4663 234.089 85.0463 234.124 84.6309 234.105C84.2203 234.086 83.8516 233.998 83.5249 233.839C83.2029 233.68 82.9579 233.433 82.7899 233.097C82.6546 232.817 82.5799 232.535 82.5659 232.25C82.5566 231.961 82.5519 231.632 82.5519 231.263V224.34H83.5739V231.221C83.5739 231.538 83.5763 231.804 83.5809 232.019C83.5903 232.229 83.6393 232.416 83.7279 232.579C83.8959 232.892 84.1619 233.078 84.5259 233.139C84.8946 233.2 85.3496 233.186 85.8909 233.097V234ZM80.9349 227.322V226.44H85.8909V227.322H80.9349ZM87.2404 235.463L87.3034 234.952C87.4901 234.966 87.6254 234.929 87.7094 234.84C87.7934 234.751 87.8447 234.632 87.8634 234.483C87.8821 234.334 87.8867 234.173 87.8774 234H87.2404V232.523H88.4374V234.28C88.4374 234.709 88.3277 235.031 88.1084 235.246C87.8937 235.461 87.6044 235.533 87.2404 235.463ZM97.0379 234.21C96.2772 234.21 95.6332 234.04 95.1059 233.699C94.5785 233.358 94.1772 232.889 93.9019 232.292C93.6312 231.69 93.4912 230.999 93.4819 230.22C93.4912 229.427 93.6359 228.731 93.9159 228.134C94.1959 227.532 94.5995 227.065 95.1269 226.734C95.6542 226.398 96.2935 226.23 97.0449 226.23C97.8102 226.23 98.4752 226.417 99.0399 226.79C99.6092 227.163 99.9989 227.674 100.209 228.323L99.2009 228.645C99.0235 228.192 98.7412 227.842 98.3539 227.595C97.9712 227.343 97.5325 227.217 97.0379 227.217C96.4825 227.217 96.0229 227.345 95.6589 227.602C95.2949 227.854 95.0242 228.206 94.8469 228.659C94.6695 229.112 94.5785 229.632 94.5739 230.22C94.5832 231.125 94.7932 231.853 95.2039 232.404C95.6145 232.95 96.2259 233.223 97.0379 233.223C97.5512 233.223 97.9875 233.106 98.3469 232.873C98.7109 232.635 98.9862 232.29 99.1729 231.837L100.209 232.145C99.9289 232.817 99.5182 233.33 98.9769 233.685C98.4355 234.035 97.7892 234.21 97.0379 234.21ZM104.606 234.21C103.854 234.21 103.213 234.04 102.681 233.699C102.149 233.358 101.74 232.887 101.456 232.285C101.171 231.683 101.029 230.992 101.029 230.213C101.029 229.42 101.173 228.724 101.463 228.127C101.752 227.53 102.163 227.065 102.695 226.734C103.231 226.398 103.868 226.23 104.606 226.23C105.362 226.23 106.006 226.4 106.538 226.741C107.074 227.077 107.483 227.546 107.763 228.148C108.047 228.745 108.19 229.434 108.19 230.213C108.19 231.006 108.047 231.704 107.763 232.306C107.478 232.903 107.067 233.37 106.531 233.706C105.994 234.042 105.352 234.21 104.606 234.21ZM104.606 233.223C105.446 233.223 106.071 232.945 106.482 232.39C106.892 231.83 107.098 231.104 107.098 230.213C107.098 229.298 106.89 228.57 106.475 228.029C106.064 227.488 105.441 227.217 104.606 227.217C104.041 227.217 103.574 227.345 103.206 227.602C102.842 227.854 102.569 228.206 102.387 228.659C102.209 229.107 102.121 229.625 102.121 230.213C102.121 231.123 102.331 231.853 102.751 232.404C103.171 232.95 103.789 233.223 104.606 233.223ZM115.194 234V230.143C115.194 229.723 115.154 229.338 115.075 228.988C114.996 228.633 114.867 228.325 114.69 228.064C114.517 227.798 114.291 227.593 114.011 227.448C113.736 227.303 113.4 227.231 113.003 227.231C112.639 227.231 112.317 227.294 112.037 227.42C111.762 227.546 111.528 227.728 111.337 227.966C111.15 228.199 111.008 228.484 110.91 228.82C110.812 229.156 110.763 229.539 110.763 229.968L110.035 229.807C110.035 229.032 110.17 228.381 110.441 227.854C110.712 227.327 111.085 226.928 111.561 226.657C112.037 226.386 112.583 226.251 113.199 226.251C113.652 226.251 114.046 226.321 114.382 226.461C114.723 226.601 115.01 226.79 115.243 227.028C115.481 227.266 115.672 227.539 115.817 227.847C115.962 228.15 116.067 228.475 116.132 228.82C116.197 229.161 116.23 229.501 116.23 229.842V234H115.194ZM109.727 234V226.44H110.658V228.302H110.763V234H109.727ZM120.867 234.203C119.981 234.203 119.25 234.012 118.676 233.629C118.107 233.246 117.757 232.714 117.626 232.033L118.676 231.858C118.788 232.287 119.043 232.63 119.439 232.887C119.841 233.139 120.335 233.265 120.923 233.265C121.497 233.265 121.95 233.146 122.281 232.908C122.613 232.665 122.778 232.336 122.778 231.921C122.778 231.688 122.725 231.499 122.617 231.354C122.515 231.205 122.302 231.067 121.98 230.941C121.658 230.815 121.178 230.666 120.538 230.493C119.852 230.306 119.316 230.12 118.928 229.933C118.541 229.746 118.266 229.532 118.102 229.289C117.939 229.042 117.857 228.741 117.857 228.386C117.857 227.957 117.979 227.581 118.221 227.259C118.464 226.932 118.8 226.68 119.229 226.503C119.659 226.321 120.158 226.23 120.727 226.23C121.297 226.23 121.805 226.323 122.253 226.51C122.706 226.692 123.07 226.949 123.345 227.28C123.621 227.611 123.784 227.996 123.835 228.435L122.785 228.624C122.715 228.181 122.494 227.831 122.12 227.574C121.752 227.313 121.283 227.177 120.713 227.168C120.177 227.154 119.74 227.257 119.404 227.476C119.068 227.691 118.9 227.978 118.9 228.337C118.9 228.538 118.961 228.71 119.082 228.855C119.204 228.995 119.423 229.128 119.74 229.254C120.062 229.38 120.52 229.518 121.112 229.667C121.808 229.844 122.354 230.031 122.75 230.227C123.147 230.423 123.429 230.654 123.597 230.92C123.765 231.186 123.849 231.515 123.849 231.907C123.849 232.621 123.583 233.183 123.051 233.594C122.524 234 121.796 234.203 120.867 234.203ZM128.601 234.21C127.864 234.21 127.224 234.047 126.683 233.72C126.146 233.393 125.729 232.934 125.43 232.341C125.131 231.748 124.982 231.053 124.982 230.255C124.982 229.429 125.129 228.715 125.423 228.113C125.717 227.511 126.13 227.047 126.662 226.72C127.199 226.393 127.831 226.23 128.559 226.23C129.306 226.23 129.943 226.403 130.47 226.748C130.997 227.089 131.396 227.579 131.667 228.218C131.938 228.857 132.061 229.62 132.038 230.507H130.988V230.143C130.969 229.163 130.757 228.423 130.351 227.924C129.95 227.425 129.362 227.175 128.587 227.175C127.775 227.175 127.152 227.439 126.718 227.966C126.289 228.493 126.074 229.245 126.074 230.22C126.074 231.172 126.289 231.912 126.718 232.439C127.152 232.962 127.766 233.223 128.559 233.223C129.1 233.223 129.572 233.099 129.973 232.852C130.379 232.6 130.699 232.238 130.932 231.767L131.891 232.138C131.592 232.796 131.151 233.307 130.568 233.671C129.989 234.03 129.334 234.21 128.601 234.21ZM125.71 230.507V229.646H131.485V230.507H125.71ZM136.727 234.21C135.967 234.21 135.323 234.04 134.795 233.699C134.268 233.358 133.867 232.889 133.591 232.292C133.321 231.69 133.181 230.999 133.171 230.22C133.181 229.427 133.325 228.731 133.605 228.134C133.885 227.532 134.289 227.065 134.816 226.734C135.344 226.398 135.983 226.23 136.734 226.23C137.5 226.23 138.165 226.417 138.729 226.79C139.299 227.163 139.688 227.674 139.898 228.323L138.89 228.645C138.713 228.192 138.431 227.842 138.043 227.595C137.661 227.343 137.222 227.217 136.727 227.217C136.172 227.217 135.712 227.345 135.348 227.602C134.984 227.854 134.714 228.206 134.536 228.659C134.359 229.112 134.268 229.632 134.263 230.22C134.273 231.125 134.483 231.853 134.893 232.404C135.304 232.95 135.915 233.223 136.727 233.223C137.241 233.223 137.677 233.106 138.036 232.873C138.4 232.635 138.676 232.29 138.862 231.837L139.898 232.145C139.618 232.817 139.208 233.33 138.666 233.685C138.125 234.035 137.479 234.21 136.727 234.21ZM145.459 234C145.035 234.089 144.615 234.124 144.199 234.105C143.789 234.086 143.42 233.998 143.093 233.839C142.771 233.68 142.526 233.433 142.358 233.097C142.223 232.817 142.148 232.535 142.134 232.25C142.125 231.961 142.12 231.632 142.12 231.263V224.34H143.142V231.221C143.142 231.538 143.145 231.804 143.149 232.019C143.159 232.229 143.208 232.416 143.296 232.579C143.464 232.892 143.73 233.078 144.094 233.139C144.463 233.2 144.918 233.186 145.459 233.097V234ZM140.503 227.322V226.44H145.459V227.322H140.503ZM149.874 234.21C149.137 234.21 148.498 234.047 147.956 233.72C147.42 233.393 147.002 232.934 146.703 232.341C146.405 231.748 146.255 231.053 146.255 230.255C146.255 229.429 146.402 228.715 146.696 228.113C146.99 227.511 147.403 227.047 147.935 226.72C148.472 226.393 149.104 226.23 149.832 226.23C150.579 226.23 151.216 226.403 151.743 226.748C152.271 227.089 152.67 227.579 152.94 228.218C153.211 228.857 153.335 229.62 153.311 230.507H152.261V230.143C152.243 229.163 152.03 228.423 151.624 227.924C151.223 227.425 150.635 227.175 149.86 227.175C149.048 227.175 148.425 227.439 147.991 227.966C147.562 228.493 147.347 229.245 147.347 230.22C147.347 231.172 147.562 231.912 147.991 232.439C148.425 232.962 149.039 233.223 149.832 233.223C150.374 233.223 150.845 233.099 151.246 232.852C151.652 232.6 151.972 232.238 152.205 231.767L153.164 232.138C152.866 232.796 152.425 233.307 151.841 233.671C151.263 234.03 150.607 234.21 149.874 234.21ZM146.983 230.507V229.646H152.758V230.507H146.983ZM158.981 234C158.556 234.089 158.136 234.124 157.721 234.105C157.31 234.086 156.941 233.998 156.615 233.839C156.293 233.68 156.048 233.433 155.88 233.097C155.744 232.817 155.67 232.535 155.656 232.25C155.646 231.961 155.642 231.632 155.642 231.263V224.34H156.664V231.221C156.664 231.538 156.666 231.804 156.671 232.019C156.68 232.229 156.729 232.416 156.818 232.579C156.986 232.892 157.252 233.078 157.616 233.139C157.984 233.2 158.439 233.186 158.981 233.097V234ZM154.025 227.322V226.44H158.981V227.322H154.025ZM163.361 234.189C162.909 234.189 162.512 234.119 162.171 233.979C161.835 233.839 161.548 233.65 161.31 233.412C161.077 233.174 160.888 232.903 160.743 232.6C160.599 232.292 160.494 231.968 160.428 231.627C160.363 231.282 160.33 230.939 160.33 230.598V226.44H161.366V230.297C161.366 230.712 161.406 231.097 161.485 231.452C161.565 231.807 161.691 232.117 161.863 232.383C162.041 232.644 162.267 232.847 162.542 232.992C162.822 233.137 163.161 233.209 163.557 233.209C163.921 233.209 164.241 233.146 164.516 233.02C164.796 232.894 165.03 232.714 165.216 232.481C165.408 232.243 165.552 231.956 165.65 231.62C165.748 231.279 165.797 230.897 165.797 230.472L166.525 230.633C166.525 231.408 166.39 232.059 166.119 232.586C165.849 233.113 165.475 233.512 164.999 233.783C164.523 234.054 163.977 234.189 163.361 234.189ZM165.902 234V232.138H165.797V226.44H166.826V234H165.902ZM168.783 234V226.44H169.707V228.26L169.525 228.022C169.609 227.798 169.718 227.593 169.854 227.406C169.989 227.215 170.136 227.058 170.295 226.937C170.491 226.764 170.719 226.634 170.981 226.545C171.242 226.452 171.506 226.398 171.772 226.384C172.038 226.365 172.28 226.384 172.5 226.44V227.406C172.224 227.336 171.923 227.32 171.597 227.357C171.27 227.394 170.969 227.525 170.694 227.749C170.442 227.945 170.253 228.181 170.127 228.456C170.001 228.727 169.917 229.016 169.875 229.324C169.833 229.627 169.812 229.928 169.812 230.227V234H168.783ZM56.143 253.21C55.5737 253.21 55.0953 253.107 54.708 252.902C54.3253 252.697 54.0383 252.424 53.847 252.083C53.6557 251.742 53.56 251.371 53.56 250.97C53.56 250.559 53.6417 250.209 53.805 249.92C53.973 249.626 54.1993 249.386 54.484 249.199C54.7733 249.012 55.107 248.87 55.485 248.772C55.8677 248.679 56.29 248.597 56.752 248.527C57.2187 248.452 57.6737 248.389 58.117 248.338C58.565 248.282 58.957 248.228 59.293 248.177L58.929 248.401C58.943 247.654 58.7983 247.101 58.495 246.742C58.1917 246.383 57.6643 246.203 56.913 246.203C56.395 246.203 55.9563 246.32 55.597 246.553C55.2423 246.786 54.9927 247.155 54.848 247.659L53.847 247.365C54.0197 246.688 54.3673 246.163 54.89 245.79C55.4127 245.417 56.0917 245.23 56.927 245.23C57.6177 245.23 58.2033 245.361 58.684 245.622C59.1693 245.879 59.5123 246.252 59.713 246.742C59.8063 246.961 59.867 247.206 59.895 247.477C59.923 247.748 59.937 248.023 59.937 248.303V253H59.02V251.103L59.286 251.215C59.0293 251.864 58.6303 252.358 58.089 252.699C57.5477 253.04 56.899 253.21 56.143 253.21ZM56.262 252.321C56.7427 252.321 57.1627 252.235 57.522 252.062C57.8813 251.889 58.1707 251.654 58.39 251.355C58.6093 251.052 58.7517 250.711 58.817 250.333C58.873 250.09 58.9033 249.824 58.908 249.535C58.9127 249.241 58.915 249.022 58.915 248.877L59.307 249.08C58.957 249.127 58.5767 249.173 58.166 249.22C57.76 249.267 57.3587 249.32 56.962 249.381C56.57 249.442 56.2153 249.514 55.898 249.598C55.6833 249.659 55.4757 249.745 55.275 249.857C55.0743 249.964 54.9087 250.109 54.778 250.291C54.652 250.473 54.589 250.699 54.589 250.97C54.589 251.189 54.6427 251.402 54.75 251.607C54.862 251.812 55.0393 251.983 55.282 252.118C55.5293 252.253 55.856 252.321 56.262 252.321ZM64.6923 253.21C63.9876 253.21 63.3856 253.035 62.8863 252.685C62.387 252.33 62.0043 251.852 61.7383 251.25C61.4723 250.648 61.3393 249.969 61.3393 249.213C61.3393 248.462 61.47 247.785 61.7313 247.183C61.9973 246.581 62.3776 246.105 62.8723 245.755C63.367 245.405 63.9596 245.23 64.6503 245.23C65.3596 245.23 65.957 245.403 66.4423 245.748C66.9276 246.093 67.294 246.567 67.5413 247.169C67.7933 247.766 67.9193 248.448 67.9193 249.213C67.9193 249.964 67.7956 250.643 67.5483 251.25C67.301 251.852 66.937 252.33 66.4563 252.685C65.9756 253.035 65.3876 253.21 64.6923 253.21ZM64.7973 252.251C65.334 252.251 65.7773 252.12 66.1273 251.859C66.4773 251.598 66.7386 251.238 66.9113 250.781C67.084 250.319 67.1703 249.796 67.1703 249.213C67.1703 248.62 67.084 248.098 66.9113 247.645C66.7386 247.188 66.4773 246.831 66.1273 246.574C65.782 246.317 65.3456 246.189 64.8183 246.189C64.277 246.189 63.829 246.322 63.4743 246.588C63.1196 246.854 62.856 247.216 62.6833 247.673C62.5153 248.13 62.4313 248.644 62.4313 249.213C62.4313 249.787 62.5176 250.305 62.6903 250.767C62.8676 251.224 63.1313 251.586 63.4813 251.852C63.8313 252.118 64.27 252.251 64.7973 252.251ZM67.1703 253V247.309H67.0583V242.92H68.0943V253H67.1703ZM70.1981 244.005V242.85H71.2271V244.005H70.1981ZM70.1981 253V245.44H71.2271V253H70.1981ZM76.7207 253.21C76.0254 253.21 75.4374 253.035 74.9567 252.685C74.476 252.33 74.112 251.852 73.8647 251.25C73.6174 250.643 73.4937 249.964 73.4937 249.213C73.4937 248.448 73.6174 247.766 73.8647 247.169C74.1167 246.567 74.4854 246.093 74.9707 245.748C75.456 245.403 76.0534 245.23 76.7627 245.23C77.4534 245.23 78.046 245.405 78.5407 245.755C79.0354 246.105 79.4134 246.581 79.6747 247.183C79.9407 247.785 80.0737 248.462 80.0737 249.213C80.0737 249.969 79.9407 250.648 79.6747 251.25C79.4087 251.852 79.026 252.33 78.5267 252.685C78.0274 253.035 77.4254 253.21 76.7207 253.21ZM73.3187 256.36V245.44H74.2427V251.131H74.3547V256.36H73.3187ZM76.6157 252.251C77.143 252.251 77.5817 252.118 77.9317 251.852C78.2817 251.586 78.543 251.224 78.7157 250.767C78.893 250.305 78.9817 249.787 78.9817 249.213C78.9817 248.644 78.8954 248.13 78.7227 247.673C78.55 247.216 78.2864 246.854 77.9317 246.588C77.5817 246.322 77.136 246.189 76.5947 246.189C76.0674 246.189 75.6287 246.317 75.2787 246.574C74.9334 246.831 74.6744 247.188 74.5017 247.645C74.329 248.098 74.2427 248.62 74.2427 249.213C74.2427 249.796 74.329 250.319 74.5017 250.781C74.6744 251.238 74.9357 251.598 75.2857 251.859C75.6357 252.12 76.079 252.251 76.6157 252.251ZM81.7509 244.005V242.85H82.7799V244.005H81.7509ZM81.7509 253V245.44H82.7799V253H81.7509ZM87.6994 253.203C86.8128 253.203 86.0824 253.012 85.5084 252.629C84.9391 252.246 84.5891 251.714 84.4584 251.033L85.5084 250.858C85.6204 251.287 85.8748 251.63 86.2714 251.887C86.6728 252.139 87.1674 252.265 87.7554 252.265C88.3294 252.265 88.7821 252.146 89.1134 251.908C89.4448 251.665 89.6104 251.336 89.6104 250.921C89.6104 250.688 89.5568 250.499 89.4494 250.354C89.3468 250.205 89.1344 250.067 88.8124 249.941C88.4904 249.815 88.0098 249.666 87.3704 249.493C86.6844 249.306 86.1478 249.12 85.7604 248.933C85.3731 248.746 85.0978 248.532 84.9344 248.289C84.7711 248.042 84.6894 247.741 84.6894 247.386C84.6894 246.957 84.8108 246.581 85.0534 246.259C85.2961 245.932 85.6321 245.68 86.0614 245.503C86.4908 245.321 86.9901 245.23 87.5594 245.23C88.1288 245.23 88.6374 245.323 89.0854 245.51C89.5381 245.692 89.9021 245.949 90.1774 246.28C90.4528 246.611 90.6161 246.996 90.6674 247.435L89.6174 247.624C89.5474 247.181 89.3258 246.831 88.9524 246.574C88.5838 246.313 88.1148 246.177 87.5454 246.168C87.0088 246.154 86.5724 246.257 86.2364 246.476C85.9004 246.691 85.7324 246.978 85.7324 247.337C85.7324 247.538 85.7931 247.71 85.9144 247.855C86.0358 247.995 86.2551 248.128 86.5724 248.254C86.8944 248.38 87.3518 248.518 87.9444 248.667C88.6398 248.844 89.1858 249.031 89.5824 249.227C89.9791 249.423 90.2614 249.654 90.4294 249.92C90.5974 250.186 90.6814 250.515 90.6814 250.907C90.6814 251.621 90.4154 252.183 89.8834 252.594C89.3561 253 88.6281 253.203 87.6994 253.203ZM95.3699 253.21C94.6092 253.21 93.9652 253.04 93.4379 252.699C92.9106 252.358 92.5092 251.889 92.2339 251.292C91.9632 250.69 91.8232 249.999 91.8139 249.22C91.8232 248.427 91.9679 247.731 92.2479 247.134C92.5279 246.532 92.9316 246.065 93.4589 245.734C93.9862 245.398 94.6256 245.23 95.3769 245.23C96.1422 245.23 96.8072 245.417 97.3719 245.79C97.9412 246.163 98.3309 246.674 98.5409 247.323L97.5329 247.645C97.3556 247.192 97.0732 246.842 96.6859 246.595C96.3032 246.343 95.8646 246.217 95.3699 246.217C94.8146 246.217 94.3549 246.345 93.9909 246.602C93.6269 246.854 93.3562 247.206 93.1789 247.659C93.0016 248.112 92.9106 248.632 92.9059 249.22C92.9152 250.125 93.1252 250.853 93.5359 251.404C93.9466 251.95 94.5579 252.223 95.3699 252.223C95.8832 252.223 96.3196 252.106 96.6789 251.873C97.0429 251.635 97.3182 251.29 97.5049 250.837L98.5409 251.145C98.2609 251.817 97.8502 252.33 97.3089 252.685C96.7676 253.035 96.1212 253.21 95.3699 253.21ZM99.9208 244.005V242.85H100.95V244.005H99.9208ZM99.9208 253V245.44H100.95V253H99.9208ZM108.508 253V249.143C108.508 248.723 108.469 248.338 108.389 247.988C108.31 247.633 108.182 247.325 108.004 247.064C107.832 246.798 107.605 246.593 107.325 246.448C107.05 246.303 106.714 246.231 106.317 246.231C105.953 246.231 105.631 246.294 105.351 246.42C105.076 246.546 104.843 246.728 104.651 246.966C104.465 247.199 104.322 247.484 104.224 247.82C104.126 248.156 104.077 248.539 104.077 248.968L103.349 248.807C103.349 248.032 103.485 247.381 103.755 246.854C104.026 246.327 104.399 245.928 104.875 245.657C105.351 245.386 105.897 245.251 106.513 245.251C106.966 245.251 107.36 245.321 107.696 245.461C108.037 245.601 108.324 245.79 108.557 246.028C108.795 246.266 108.987 246.539 109.131 246.847C109.276 247.15 109.381 247.475 109.446 247.82C109.512 248.161 109.544 248.501 109.544 248.842V253H108.508ZM103.041 253V245.44H103.972V247.302H104.077V253H103.041ZM114.364 256.57C113.977 256.57 113.594 256.512 113.216 256.395C112.843 256.283 112.497 256.103 112.18 255.856C111.863 255.613 111.597 255.296 111.382 254.904L112.313 254.386C112.523 254.806 112.817 255.107 113.195 255.289C113.578 255.476 113.967 255.569 114.364 255.569C114.91 255.569 115.351 255.466 115.687 255.261C116.028 255.06 116.275 254.762 116.429 254.365C116.583 253.968 116.658 253.474 116.653 252.881V250.865H116.772V245.44H117.689V252.895C117.689 253.11 117.682 253.315 117.668 253.511C117.659 253.712 117.638 253.908 117.605 254.099C117.516 254.664 117.332 255.128 117.052 255.492C116.777 255.856 116.413 256.127 115.96 256.304C115.512 256.481 114.98 256.57 114.364 256.57ZM114.294 253.21C113.589 253.21 112.987 253.035 112.488 252.685C111.989 252.33 111.606 251.852 111.34 251.25C111.074 250.648 110.941 249.969 110.941 249.213C110.941 248.462 111.072 247.785 111.333 247.183C111.599 246.581 111.979 246.105 112.474 245.755C112.969 245.405 113.561 245.23 114.252 245.23C114.961 245.23 115.559 245.403 116.044 245.748C116.529 246.093 116.896 246.567 117.143 247.169C117.395 247.766 117.521 248.448 117.521 249.213C117.521 249.964 117.397 250.643 117.15 251.25C116.903 251.852 116.539 252.33 116.058 252.685C115.577 253.035 114.989 253.21 114.294 253.21ZM114.399 252.251C114.936 252.251 115.379 252.12 115.729 251.859C116.079 251.598 116.34 251.238 116.513 250.781C116.686 250.319 116.772 249.796 116.772 249.213C116.772 248.62 116.686 248.098 116.513 247.645C116.34 247.188 116.079 246.831 115.729 246.574C115.384 246.317 114.947 246.189 114.42 246.189C113.879 246.189 113.431 246.322 113.076 246.588C112.721 246.854 112.458 247.216 112.285 247.673C112.117 248.13 112.033 248.644 112.033 249.213C112.033 249.787 112.119 250.305 112.292 250.767C112.469 251.224 112.733 251.586 113.083 251.852C113.433 252.118 113.872 252.251 114.399 252.251ZM125.648 253.21C124.91 253.21 124.271 253.047 123.73 252.72C123.193 252.393 122.775 251.934 122.477 251.341C122.178 250.748 122.029 250.053 122.029 249.255C122.029 248.429 122.176 247.715 122.47 247.113C122.764 246.511 123.177 246.047 123.709 245.72C124.245 245.393 124.878 245.23 125.606 245.23C126.352 245.23 126.989 245.403 127.517 245.748C128.044 246.089 128.443 246.579 128.714 247.218C128.984 247.857 129.108 248.62 129.085 249.507H128.035V249.143C128.016 248.163 127.804 247.423 127.398 246.924C126.996 246.425 126.408 246.175 125.634 246.175C124.822 246.175 124.199 246.439 123.765 246.966C123.335 247.493 123.121 248.245 123.121 249.22C123.121 250.172 123.335 250.912 123.765 251.439C124.199 251.962 124.812 252.223 125.606 252.223C126.147 252.223 126.618 252.099 127.02 251.852C127.426 251.6 127.745 251.238 127.979 250.767L128.938 251.138C128.639 251.796 128.198 252.307 127.615 252.671C127.036 253.03 126.38 253.21 125.648 253.21ZM122.757 249.507V248.646H128.532V249.507H122.757ZM130.778 253V242.71H131.807V253H130.778ZM134.046 244.005V242.85H135.075V244.005H134.046ZM134.046 253V245.44H135.075V253H134.046ZM141.289 253C140.865 253.089 140.445 253.124 140.029 253.105C139.619 253.086 139.25 252.998 138.923 252.839C138.601 252.68 138.356 252.433 138.188 252.097C138.053 251.817 137.978 251.535 137.964 251.25C137.955 250.961 137.95 250.632 137.95 250.263V243.34H138.972V250.221C138.972 250.538 138.975 250.804 138.979 251.019C138.989 251.229 139.038 251.416 139.126 251.579C139.294 251.892 139.56 252.078 139.924 252.139C140.293 252.2 140.748 252.186 141.289 252.097V253ZM136.333 246.322V245.44H141.289V246.322H136.333ZM142.975 253V251.803H144.172V253H142.975ZM149.136 253V242.92H152.195C152.303 242.92 152.485 242.922 152.741 242.927C153.003 242.932 153.252 242.95 153.49 242.983C154.256 243.09 154.895 243.375 155.408 243.837C155.922 244.299 156.307 244.887 156.563 245.601C156.82 246.315 156.948 247.101 156.948 247.96C156.948 248.819 156.82 249.605 156.563 250.319C156.307 251.033 155.922 251.621 155.408 252.083C154.895 252.545 154.256 252.83 153.49 252.937C153.257 252.965 153.007 252.984 152.741 252.993C152.475 252.998 152.293 253 152.195 253H149.136ZM150.2 252.013H152.195C152.387 252.013 152.592 252.008 152.811 251.999C153.035 251.985 153.227 251.962 153.385 251.929C153.973 251.826 154.447 251.588 154.806 251.215C155.17 250.842 155.436 250.375 155.604 249.815C155.772 249.25 155.856 248.632 155.856 247.96C155.856 247.283 155.772 246.663 155.604 246.098C155.436 245.533 155.17 245.067 154.806 244.698C154.442 244.329 153.969 244.094 153.385 243.991C153.227 243.958 153.033 243.937 152.804 243.928C152.58 243.914 152.377 243.907 152.195 243.907H150.2V252.013ZM161.7 253.21C160.948 253.21 160.307 253.04 159.775 252.699C159.243 252.358 158.834 251.887 158.55 251.285C158.265 250.683 158.123 249.992 158.123 249.213C158.123 248.42 158.267 247.724 158.557 247.127C158.846 246.53 159.257 246.065 159.789 245.734C160.325 245.398 160.962 245.23 161.7 245.23C162.456 245.23 163.1 245.4 163.632 245.741C164.168 246.077 164.577 246.546 164.857 247.148C165.141 247.745 165.284 248.434 165.284 249.213C165.284 250.006 165.141 250.704 164.857 251.306C164.572 251.903 164.161 252.37 163.625 252.706C163.088 253.042 162.446 253.21 161.7 253.21ZM161.7 252.223C162.54 252.223 163.165 251.945 163.576 251.39C163.986 250.83 164.192 250.104 164.192 249.213C164.192 248.298 163.984 247.57 163.569 247.029C163.158 246.488 162.535 246.217 161.7 246.217C161.135 246.217 160.668 246.345 160.3 246.602C159.936 246.854 159.663 247.206 159.481 247.659C159.303 248.107 159.215 248.625 159.215 249.213C159.215 250.123 159.425 250.853 159.845 251.404C160.265 251.95 160.883 252.223 161.7 252.223ZM172.288 253V249.143C172.288 248.723 172.248 248.338 172.169 247.988C172.089 247.633 171.961 247.325 171.784 247.064C171.611 246.798 171.385 246.593 171.105 246.448C170.829 246.303 170.493 246.231 170.097 246.231C169.733 246.231 169.411 246.294 169.131 246.42C168.855 246.546 168.622 246.728 168.431 246.966C168.244 247.199 168.102 247.484 168.004 247.82C167.906 248.156 167.857 248.539 167.857 248.968L167.129 248.807C167.129 248.032 167.264 247.381 167.535 246.854C167.805 246.327 168.179 245.928 168.655 245.657C169.131 245.386 169.677 245.251 170.293 245.251C170.745 245.251 171.14 245.321 171.476 245.461C171.816 245.601 172.103 245.79 172.337 246.028C172.575 246.266 172.766 246.539 172.911 246.847C173.055 247.15 173.16 247.475 173.226 247.82C173.291 248.161 173.324 248.501 173.324 248.842V253H172.288ZM166.821 253V245.44H167.752V247.302H167.857V253H166.821ZM178.298 253.21C177.561 253.21 176.921 253.047 176.38 252.72C175.843 252.393 175.426 251.934 175.127 251.341C174.828 250.748 174.679 250.053 174.679 249.255C174.679 248.429 174.826 247.715 175.12 247.113C175.414 246.511 175.827 246.047 176.359 245.72C176.896 245.393 177.528 245.23 178.256 245.23C179.003 245.23 179.64 245.403 180.167 245.748C180.694 246.089 181.093 246.579 181.364 247.218C181.635 247.857 181.758 248.62 181.735 249.507H180.685V249.143C180.666 248.163 180.454 247.423 180.048 246.924C179.647 246.425 179.059 246.175 178.284 246.175C177.472 246.175 176.849 246.439 176.415 246.966C175.986 247.493 175.771 248.245 175.771 249.22C175.771 250.172 175.986 250.912 176.415 251.439C176.849 251.962 177.463 252.223 178.256 252.223C178.797 252.223 179.269 252.099 179.67 251.852C180.076 251.6 180.396 251.238 180.629 250.767L181.588 251.138C181.289 251.796 180.848 252.307 180.265 252.671C179.686 253.03 179.031 253.21 178.298 253.21ZM175.407 249.507V248.646H181.182V249.507H175.407ZM186.425 253.21C185.664 253.21 185.02 253.04 184.493 252.699C183.965 252.358 183.564 251.889 183.289 251.292C183.018 250.69 182.878 249.999 182.869 249.22C182.878 248.427 183.023 247.731 183.303 247.134C183.583 246.532 183.986 246.065 184.514 245.734C185.041 245.398 185.68 245.23 186.432 245.23C187.197 245.23 187.862 245.417 188.427 245.79C188.996 246.163 189.386 246.674 189.596 247.323L188.588 247.645C188.41 247.192 188.128 246.842 187.741 246.595C187.358 246.343 186.919 246.217 186.425 246.217C185.869 246.217 185.41 246.345 185.046 246.602C184.682 246.854 184.411 247.206 184.234 247.659C184.056 248.112 183.965 248.632 183.961 249.22C183.97 250.125 184.18 250.853 184.591 251.404C185.001 251.95 185.613 252.223 186.425 252.223C186.938 252.223 187.374 252.106 187.734 251.873C188.098 251.635 188.373 251.29 188.56 250.837L189.596 251.145C189.316 251.817 188.905 252.33 188.364 252.685C187.822 253.035 187.176 253.21 186.425 253.21ZM54.729 272V263.88C54.729 263.684 54.7383 263.49 54.757 263.299C54.7803 263.108 54.8247 262.926 54.89 262.753C54.9553 262.576 55.058 262.412 55.198 262.263C55.352 262.095 55.52 261.974 55.702 261.899C55.884 261.82 56.073 261.768 56.269 261.745C56.4697 261.722 56.6657 261.71 56.857 261.71H57.823V262.578H56.927C56.535 262.578 56.241 262.674 56.045 262.865C55.8537 263.056 55.758 263.357 55.758 263.768V272H54.729ZM53.42 265.322V264.44H57.823V265.322H53.42ZM61.8685 272.21C61.1311 272.21 60.4918 272.047 59.9505 271.72C59.4138 271.393 58.9961 270.934 58.6975 270.341C58.3988 269.748 58.2495 269.053 58.2495 268.255C58.2495 267.429 58.3965 266.715 58.6905 266.113C58.9845 265.511 59.3975 265.047 59.9295 264.72C60.4661 264.393 61.0985 264.23 61.8265 264.23C62.5731 264.23 63.2101 264.403 63.7375 264.748C64.2648 265.089 64.6638 265.579 64.9345 266.218C65.2051 266.857 65.3288 267.62 65.3055 268.507H64.2555V268.143C64.2368 267.163 64.0245 266.423 63.6185 265.924C63.2171 265.425 62.6291 265.175 61.8545 265.175C61.0425 265.175 60.4195 265.439 59.9855 265.966C59.5561 266.493 59.3415 267.245 59.3415 268.22C59.3415 269.172 59.5561 269.912 59.9855 270.439C60.4195 270.962 61.0331 271.223 61.8265 271.223C62.3678 271.223 62.8391 271.099 63.2405 270.852C63.6465 270.6 63.9661 270.238 64.1995 269.767L65.1585 270.138C64.8598 270.796 64.4188 271.307 63.8355 271.671C63.2568 272.03 62.6011 272.21 61.8685 272.21ZM58.9775 268.507V267.646H64.7525V268.507H58.9775ZM66.9989 272V261.71H68.0279V272H66.9989ZM70.2665 263.005V261.85H71.2955V263.005H70.2665ZM70.2665 272V264.44H71.2955V272H70.2665ZM76.2151 272.203C75.3284 272.203 74.5981 272.012 74.0241 271.629C73.4547 271.246 73.1047 270.714 72.9741 270.033L74.0241 269.858C74.1361 270.287 74.3904 270.63 74.7871 270.887C75.1884 271.139 75.6831 271.265 76.2711 271.265C76.8451 271.265 77.2977 271.146 77.6291 270.908C77.9604 270.665 78.1261 270.336 78.1261 269.921C78.1261 269.688 78.0724 269.499 77.9651 269.354C77.8624 269.205 77.6501 269.067 77.3281 268.941C77.0061 268.815 76.5254 268.666 75.8861 268.493C75.2001 268.306 74.6634 268.12 74.2761 267.933C73.8887 267.746 73.6134 267.532 73.4501 267.289C73.2867 267.042 73.2051 266.741 73.2051 266.386C73.2051 265.957 73.3264 265.581 73.5691 265.259C73.8117 264.932 74.1477 264.68 74.5771 264.503C75.0064 264.321 75.5057 264.23 76.0751 264.23C76.6444 264.23 77.1531 264.323 77.6011 264.51C78.0537 264.692 78.4177 264.949 78.6931 265.28C78.9684 265.611 79.1317 265.996 79.1831 266.435L78.1331 266.624C78.0631 266.181 77.8414 265.831 77.4681 265.574C77.0994 265.313 76.6304 265.177 76.0611 265.168C75.5244 265.154 75.0881 265.257 74.7521 265.476C74.4161 265.691 74.2481 265.978 74.2481 266.337C74.2481 266.538 74.3087 266.71 74.4301 266.855C74.5514 266.995 74.7707 267.128 75.0881 267.254C75.4101 267.38 75.8674 267.518 76.4601 267.667C77.1554 267.844 77.7014 268.031 78.0981 268.227C78.4947 268.423 78.7771 268.654 78.9451 268.92C79.1131 269.186 79.1971 269.515 79.1971 269.907C79.1971 270.621 78.9311 271.183 78.3991 271.594C77.8717 272 77.1437 272.203 76.2151 272.203ZM80.6095 273.463L80.6725 272.952C80.8592 272.966 80.9945 272.929 81.0785 272.84C81.1625 272.751 81.2139 272.632 81.2325 272.483C81.2512 272.334 81.2559 272.173 81.2465 272H80.6095V270.523H81.8065V272.28C81.8065 272.709 81.6969 273.031 81.4775 273.246C81.2629 273.461 80.9735 273.533 80.6095 273.463ZM90.092 272.203C89.2053 272.203 88.475 272.012 87.901 271.629C87.3317 271.246 86.9817 270.714 86.851 270.033L87.901 269.858C88.013 270.287 88.2673 270.63 88.664 270.887C89.0653 271.139 89.56 271.265 90.148 271.265C90.722 271.265 91.1747 271.146 91.506 270.908C91.8373 270.665 92.003 270.336 92.003 269.921C92.003 269.688 91.9493 269.499 91.842 269.354C91.7393 269.205 91.527 269.067 91.205 268.941C90.883 268.815 90.4023 268.666 89.763 268.493C89.077 268.306 88.5403 268.12 88.153 267.933C87.7657 267.746 87.4903 267.532 87.327 267.289C87.1637 267.042 87.082 266.741 87.082 266.386C87.082 265.957 87.2033 265.581 87.446 265.259C87.6887 264.932 88.0247 264.68 88.454 264.503C88.8833 264.321 89.3827 264.23 89.952 264.23C90.5213 264.23 91.03 264.323 91.478 264.51C91.9307 264.692 92.2947 264.949 92.57 265.28C92.8453 265.611 93.0087 265.996 93.06 266.435L92.01 266.624C91.94 266.181 91.7183 265.831 91.345 265.574C90.9763 265.313 90.5073 265.177 89.938 265.168C89.4013 265.154 88.965 265.257 88.629 265.476C88.293 265.691 88.125 265.978 88.125 266.337C88.125 266.538 88.1857 266.71 88.307 266.855C88.4283 266.995 88.6477 267.128 88.965 267.254C89.287 267.38 89.7443 267.518 90.337 267.667C91.0323 267.844 91.5783 268.031 91.975 268.227C92.3717 268.423 92.654 268.654 92.822 268.92C92.99 269.186 93.074 269.515 93.074 269.907C93.074 270.621 92.808 271.183 92.276 271.594C91.7487 272 91.0207 272.203 90.092 272.203ZM97.5175 272.189C97.0648 272.189 96.6682 272.119 96.3275 271.979C95.9915 271.839 95.7045 271.65 95.4665 271.412C95.2332 271.174 95.0442 270.903 94.8995 270.6C94.7548 270.292 94.6498 269.968 94.5845 269.627C94.5192 269.282 94.4865 268.939 94.4865 268.598V264.44H95.5225V268.297C95.5225 268.712 95.5622 269.097 95.6415 269.452C95.7208 269.807 95.8468 270.117 96.0195 270.383C96.1968 270.644 96.4232 270.847 96.6985 270.992C96.9785 271.137 97.3168 271.209 97.7135 271.209C98.0775 271.209 98.3972 271.146 98.6725 271.02C98.9525 270.894 99.1858 270.714 99.3725 270.481C99.5638 270.243 99.7085 269.956 99.8065 269.62C99.9045 269.279 99.9535 268.897 99.9535 268.472L100.681 268.633C100.681 269.408 100.546 270.059 100.275 270.586C100.005 271.113 99.6315 271.512 99.1555 271.783C98.6795 272.054 98.1335 272.189 97.5175 272.189ZM100.058 272V270.138H99.9535V264.44H100.982V272H100.058ZM105.76 272.203C104.873 272.203 104.143 272.012 103.569 271.629C103 271.246 102.65 270.714 102.519 270.033L103.569 269.858C103.681 270.287 103.935 270.63 104.332 270.887C104.733 271.139 105.228 271.265 105.816 271.265C106.39 271.265 106.843 271.146 107.174 270.908C107.505 270.665 107.671 270.336 107.671 269.921C107.671 269.688 107.617 269.499 107.51 269.354C107.407 269.205 107.195 269.067 106.873 268.941C106.551 268.815 106.07 268.666 105.431 268.493C104.745 268.306 104.208 268.12 103.821 267.933C103.434 267.746 103.158 267.532 102.995 267.289C102.832 267.042 102.75 266.741 102.75 266.386C102.75 265.957 102.871 265.581 103.114 265.259C103.357 264.932 103.693 264.68 104.122 264.503C104.551 264.321 105.051 264.23 105.62 264.23C106.189 264.23 106.698 264.323 107.146 264.51C107.599 264.692 107.963 264.949 108.238 265.28C108.513 265.611 108.677 265.996 108.728 266.435L107.678 266.624C107.608 266.181 107.386 265.831 107.013 265.574C106.644 265.313 106.175 265.177 105.606 265.168C105.069 265.154 104.633 265.257 104.297 265.476C103.961 265.691 103.793 265.978 103.793 266.337C103.793 266.538 103.854 266.71 103.975 266.855C104.096 266.995 104.316 267.128 104.633 267.254C104.955 267.38 105.412 267.518 106.005 267.667C106.7 267.844 107.246 268.031 107.643 268.227C108.04 268.423 108.322 268.654 108.49 268.92C108.658 269.186 108.742 269.515 108.742 269.907C108.742 270.621 108.476 271.183 107.944 271.594C107.417 272 106.689 272.203 105.76 272.203ZM113.43 272.21C112.67 272.21 112.026 272.04 111.498 271.699C110.971 271.358 110.57 270.889 110.294 270.292C110.024 269.69 109.884 268.999 109.874 268.22C109.884 267.427 110.028 266.731 110.308 266.134C110.588 265.532 110.992 265.065 111.519 264.734C112.047 264.398 112.686 264.23 113.437 264.23C114.203 264.23 114.868 264.417 115.432 264.79C116.002 265.163 116.391 265.674 116.601 266.323L115.593 266.645C115.416 266.192 115.134 265.842 114.746 265.595C114.364 265.343 113.925 265.217 113.43 265.217C112.875 265.217 112.415 265.345 112.051 265.602C111.687 265.854 111.417 266.206 111.239 266.659C111.062 267.112 110.971 267.632 110.966 268.22C110.976 269.125 111.186 269.853 111.596 270.404C112.007 270.95 112.618 271.223 113.43 271.223C113.944 271.223 114.38 271.106 114.739 270.873C115.103 270.635 115.379 270.29 115.565 269.837L116.601 270.145C116.321 270.817 115.911 271.33 115.369 271.685C114.828 272.035 114.182 272.21 113.43 272.21ZM117.981 263.005V261.85H119.01V263.005H117.981ZM117.981 272V264.44H119.01V272H117.981ZM124.504 272.21C123.809 272.21 123.221 272.035 122.74 271.685C122.259 271.33 121.895 270.852 121.648 270.25C121.401 269.643 121.277 268.964 121.277 268.213C121.277 267.448 121.401 266.766 121.648 266.169C121.9 265.567 122.269 265.093 122.754 264.748C123.239 264.403 123.837 264.23 124.546 264.23C125.237 264.23 125.829 264.405 126.324 264.755C126.819 265.105 127.197 265.581 127.458 266.183C127.724 266.785 127.857 267.462 127.857 268.213C127.857 268.969 127.724 269.648 127.458 270.25C127.192 270.852 126.809 271.33 126.31 271.685C125.811 272.035 125.209 272.21 124.504 272.21ZM121.102 275.36V264.44H122.026V270.131H122.138V275.36H121.102ZM124.399 271.251C124.926 271.251 125.365 271.118 125.715 270.852C126.065 270.586 126.326 270.224 126.499 269.767C126.676 269.305 126.765 268.787 126.765 268.213C126.765 267.644 126.679 267.13 126.506 266.673C126.333 266.216 126.07 265.854 125.715 265.588C125.365 265.322 124.919 265.189 124.378 265.189C123.851 265.189 123.412 265.317 123.062 265.574C122.717 265.831 122.458 266.188 122.285 266.645C122.112 267.098 122.026 267.62 122.026 268.213C122.026 268.796 122.112 269.319 122.285 269.781C122.458 270.238 122.719 270.598 123.069 270.859C123.419 271.12 123.862 271.251 124.399 271.251ZM129.534 263.005V261.85H130.563V263.005H129.534ZM129.534 272V264.44H130.563V272H129.534ZM136.778 272C136.353 272.089 135.933 272.124 135.518 272.105C135.107 272.086 134.738 271.998 134.412 271.839C134.09 271.68 133.845 271.433 133.677 271.097C133.541 270.817 133.467 270.535 133.453 270.25C133.443 269.961 133.439 269.632 133.439 269.263V262.34H134.461V269.221C134.461 269.538 134.463 269.804 134.468 270.019C134.477 270.229 134.526 270.416 134.615 270.579C134.783 270.892 135.049 271.078 135.413 271.139C135.781 271.2 136.236 271.186 136.778 271.097V272ZM131.822 265.322V264.44H136.778V265.322H131.822Z" fill="white"/>
<path fill-rule="evenodd" clip-rule="evenodd" d="M108.067 80.0002C108.067 72.4402 102.173 64.9335 93 64.9335C85.592 64.9335 81.9307 70.4162 80.368 73.3335H85C85.3536 73.3335 85.6928 73.474 85.9428 73.724C86.1929 73.9741 86.3333 74.3132 86.3333 74.6668C86.3333 75.0205 86.1929 75.3596 85.9428 75.6097C85.6928 75.8597 85.3536 76.0002 85 76.0002H77C76.6464 76.0002 76.3072 75.8597 76.0572 75.6097C75.8071 75.3596 75.6667 75.0205 75.6667 74.6668V66.6668C75.6667 66.3132 75.8071 65.9741 76.0572 65.724C76.3072 65.474 76.6464 65.3335 77 65.3335C77.3536 65.3335 77.6928 65.474 77.9428 65.724C78.1929 65.9741 78.3333 66.3132 78.3333 66.6668V71.5015C80.2133 68.1895 84.5573 62.2668 93 62.2668C103.835 62.2668 110.733 71.1602 110.733 80.0002C110.733 88.8402 103.835 97.7335 93 97.7335C87.816 97.7335 83.5013 95.6802 80.4267 92.5548C78.7976 90.8919 77.5055 88.9297 76.6213 86.7762C76.5548 86.6142 76.5208 86.4407 76.5213 86.2656C76.5218 86.0905 76.5568 85.9173 76.6243 85.7557C76.6918 85.5941 76.7904 85.4474 76.9146 85.3239C77.0388 85.2005 77.186 85.1027 77.348 85.0362C77.51 84.9696 77.6835 84.9357 77.8585 84.9362C78.0336 84.9367 78.2069 84.9717 78.3685 85.0391C78.5301 85.1066 78.6768 85.2053 78.8002 85.3294C78.9237 85.4536 79.0215 85.6009 79.088 85.7628C79.8347 87.5788 80.9333 89.2668 82.3307 90.6855C84.9227 93.3255 88.56 95.0668 93 95.0668C102.173 95.0668 108.067 87.5602 108.067 80.0002ZM91.6667 86.6668V73.3335H94.3333V86.6668H91.6667Z" fill="white"/>
</svg>
