<svg width="192" height="192" viewBox="0 0 192 192" fill="none" xmlns="http://www.w3.org/2000/svg">
<rect x="46" y="46" width="100" height="100" rx="50" fill="#EB292C"/>
<rect opacity="0.222742" x="1.08" y="1.08" width="189.84" height="189.84" rx="94.92" stroke="white" stroke-opacity="0.5"/>
<rect opacity="0.653777" x="19.61" y="19.61" width="152.78" height="152.78" rx="76.39" stroke="white" stroke-opacity="0.5"/>
<rect opacity="0.660755" x="38.58" y="38.58" width="114.84" height="114.84" rx="57.42" stroke="white" stroke-opacity="0.5"/>
<path d="M107.761 92.6913C108.362 93.0105 108.864 93.4871 109.214 94.07C109.564 94.6529 109.749 95.32 109.749 96C109.749 96.68 109.564 97.3472 109.214 97.93C108.864 98.5129 108.362 98.9895 107.761 99.3088L91.7463 108.018C89.1675 109.42 86 107.595 86 104.71V87.2913C86 84.4038 89.1675 82.58 91.7463 83.9813L107.761 92.6913Z" fill="white"/>
</svg>
