<svg width="100" height="49" viewBox="0 0 100 49" fill="none" xmlns="http://www.w3.org/2000/svg">
<path d="M4 23.2601C4.00008 21.9377 5.35787 20.1686 6.36075 19.4793C6.62995 19.3935 7.39911 19.2166 8.32211 19.1953C7.80381 19.7633 18.2651 26.7686 23.5605 30.2003C18.8153 29.3601 8.92561 27.5449 7.32811 27.0053C5.15374 26.2708 3.99989 25.0914 4 23.2601Z" fill="white"/>
<path d="M95.0391 23.2601C95.039 21.9377 93.6812 20.1686 92.6783 19.4793C92.4091 19.3935 91.6399 19.2166 90.7169 19.1953C91.2352 19.7633 80.774 26.7686 75.4786 30.2003C80.2238 29.3601 90.1134 27.5449 91.7109 27.0053C93.8853 26.2708 95.0392 25.0914 95.0391 23.2601Z" fill="white"/>
<path d="M9.42523 14.6074C18.0588 14.8417 31.1749 20.4974 36.6537 23.296C36.2277 22.231 30.7193 18.6041 28.0183 16.9237H71.3993C64.462 21.1157 53.0103 28.2252 62.7018 23.1274C72.3933 18.0296 80.505 16.0371 84.055 15.5579C84.3627 14.6201 86.2994 13.348 85.6703 12.4694C79.3868 3.69377 71.565 0.605589 68.5416 0.14113C59.4713 0.0346299 39.4263 -0.11447 31.808 0.14113C24.1897 0.39673 16.7057 8.77945 13.916 12.9389H12.3806C10.5488 13.1164 9.87195 10.3444 9.76249 8.93625H4.81025C1.42355 9.08535 0.198204 11.3177 0.0088674 12.4152C-0.106496 13.2584 0.791642 14.3731 9.42523 14.6074Z" fill="white"/>
<path fill-rule="evenodd" clip-rule="evenodd" d="M83.7559 15.6164C85.938 15.1307 88.0482 14.818 89.9669 14.7659C98.6004 14.5316 100.102 13.274 99.9862 12.4309C99.7969 11.3334 98.5716 9.101 95.1849 8.9519H90.2326C90.1232 10.3601 89.4463 13.132 87.6145 12.9545H85.9198C85.3661 12.129 84.6338 11.137 83.7559 10.0753V15.6164Z" fill="white"/>
<path d="M37.1252 40.6523L33.5625 46.5476L34.3632 47.8241L37.9491 41.9289L37.1252 40.6523Z" fill="#FCA311"/>
<path d="M43.5612 30.1953H36.3546L25.5156 47.9275H32.699L43.5612 30.1953Z" fill="white"/>
<path d="M30.8117 30.207H23.5703L31.949 43.866L35.5349 37.9591L30.8117 30.207Z" fill="#FCA311"/>
<path fill-rule="evenodd" clip-rule="evenodd" d="M52.2019 38.4492H46.982C45.0158 38.4492 43.4219 40.0432 43.4219 42.0094V42.8282C43.4219 44.7945 45.0158 46.3884 46.982 46.3884H52.2031C51.0635 47.7592 49.3454 48.632 47.4234 48.632C43.9924 48.632 41.2109 45.8506 41.2109 42.4195C41.2109 38.9885 43.9924 36.207 47.4234 36.207C49.3447 36.207 51.0623 37.0792 52.2019 38.4492Z" fill="#FCA311"/>
<path d="M59.263 36.3716C58.6432 36.3435 58.095 37.4456 57.8984 38.0002H60.7155C60.4984 37.4691 59.8827 36.3998 59.263 36.3716Z" fill="#FCA311"/>
<rect x="58.4062" y="36.9453" width="2.14801" height="12.169" rx="1.0564" transform="rotate(26.4478 58.4062 36.9453)" fill="#FCA311"/>
<rect width="2.14801" height="12.4362" rx="1.0564" transform="matrix(-0.895341 0.445382 0.445382 0.895341 60.0781 36.7031)" fill="#FCA311"/>
<path d="M58.8516 44.3455C58.8516 43.762 59.3245 43.2891 59.908 43.2891H62.6194V45.4019H58.8516V44.3455Z" fill="#FCA311"/>
<path fill-rule="evenodd" clip-rule="evenodd" d="M89.8695 41.332H81.4766V43.0022C81.5424 42.9956 81.6092 42.9922 81.6767 42.9922H88.7026C89.7969 42.9922 90.684 43.8793 90.684 44.9736C90.684 46.0679 89.7969 46.955 88.7026 46.955H81.6767C81.6092 46.955 81.5424 46.9516 81.4766 46.945V48.6347H89.8695C91.3031 48.6347 92.4652 47.4726 92.4652 46.039V43.9278C92.4652 42.4942 91.3031 41.332 89.8695 41.332Z" fill="#FCA311"/>
<path fill-rule="evenodd" clip-rule="evenodd" d="M82.8337 36.207H91.2266V37.8772C91.1608 37.8706 91.094 37.8672 91.0264 37.8672H84.0006C82.9063 37.8672 82.0192 38.7543 82.0192 39.8486C82.0192 40.9429 82.9063 41.83 84.0006 41.83H91.0264C91.094 41.83 91.1608 41.8266 91.2266 41.82V43.5097H82.8337C81.4001 43.5097 80.2379 42.3476 80.2379 40.914V38.8028C80.2379 37.3692 81.4001 36.207 82.8337 36.207Z" fill="#FCA311"/>
<path fill-rule="evenodd" clip-rule="evenodd" d="M71.5911 44.2659H74.5619C76.0324 44.2659 77.2244 43.0739 77.2244 41.6034V39.0297C77.2244 37.5592 76.0324 36.3672 74.5619 36.3672H66.1484V36.4312L67.127 37.8398H73.3538C74.7262 37.8398 75.8388 38.9524 75.8388 40.3248C75.8388 41.6973 74.7262 42.8098 73.3538 42.8098H70.5796L71.5911 44.2659Z" fill="#FCA311"/>
<path d="M71.3988 43.9955L73.6886 43.0692L77.425 48.4386L74.4252 48.3588L71.3988 43.9955Z" fill="#FCA311"/>
<rect x="68.0078" y="41.0352" width="0.37275" height="7.33074" fill="white"/>
<rect x="68.4688" y="41.0352" width="0.37275" height="7.33074" fill="white"/>
<rect x="68.9297" y="41.0352" width="0.37275" height="7.33074" fill="white"/>
<rect x="69.3906" y="41.0352" width="0.37275" height="7.33074" fill="white"/>
</svg>
