<svg width="91" height="90" viewBox="0 0 91 90" fill="none" xmlns="http://www.w3.org/2000/svg">
<rect x="0.980011" width="90" height="90" rx="45" fill="white" fill-opacity="0.07"/>
<path d="M47.2494 50H44.7494C44.0619 50 43.4994 49.4375 43.4994 48.75H34.7619V53.75C34.7619 55.125 35.8869 56.25 37.2619 56.25H54.7494C56.1244 56.25 57.2494 55.125 57.2494 53.75V48.75H48.4994C48.4994 49.4375 47.9369 50 47.2494 50ZM55.9994 38.75H50.9994C50.9994 35.9875 48.7619 33.75 45.9994 33.75C43.2369 33.75 40.9994 35.9875 40.9994 38.75H35.9994C34.6244 38.75 33.4994 39.875 33.4994 41.25V45C33.4994 46.3875 34.6119 47.5 35.9994 47.5H43.4994V46.25C43.4994 45.5625 44.0619 45 44.7494 45H47.2494C47.9369 45 48.4994 45.5625 48.4994 46.25V47.5H55.9994C57.3744 47.5 58.4994 46.375 58.4994 45V41.25C58.4994 39.875 57.3744 38.75 55.9994 38.75ZM43.4994 38.75C43.4994 37.375 44.6244 36.25 45.9994 36.25C47.3744 36.25 48.4994 37.375 48.4994 38.75H43.4869H43.4994Z" fill="white"/>
</svg>
