<svg width="40" height="40" viewBox="0 0 40 40" fill="none" xmlns="http://www.w3.org/2000/svg">
<path d="M23.75 3.75C23.087 3.75 22.4511 4.01339 21.9822 4.48223C21.5134 4.95107 21.25 5.58696 21.25 6.25V11.25C21.25 11.913 21.5134 12.5489 21.9822 13.0178C22.4511 13.4866 23.087 13.75 23.75 13.75V17.5L28.25 13.75H33.75C34.413 13.75 35.0489 13.4866 35.5178 13.0178C35.9866 12.5489 36.25 11.913 36.25 11.25V6.25C36.25 5.58696 35.9866 4.95107 35.5178 4.48223C35.0489 4.01339 34.413 3.75 33.75 3.75H23.75ZM12.5 10C11.1739 10 9.90215 10.5268 8.96447 11.4645C8.02678 12.4021 7.5 13.6739 7.5 15C7.5 16.3261 8.02678 17.5979 8.96447 18.5355C9.90215 19.4732 11.1739 20 12.5 20C13.8261 20 15.0979 19.4732 16.0355 18.5355C16.9732 17.5979 17.5 16.3261 17.5 15C17.5 13.6739 16.9732 12.4021 16.0355 11.4645C15.0979 10.5268 13.8261 10 12.5 10ZM18.75 22.5H6.25C5.25544 22.5 4.30161 22.8951 3.59835 23.5984C2.89509 24.3016 2.5 25.2554 2.5 26.25C2.5 29.04 3.6475 31.275 5.53 32.7875C7.3825 34.275 9.8675 35 12.5 35C15.1325 35 17.6175 34.275 19.47 32.7875C21.35 31.275 22.5 29.04 22.5 26.25C22.5 25.2554 22.1049 24.3016 21.4017 23.5984C20.6984 22.8951 19.7446 22.5 18.75 22.5Z" fill="#E82F27"/>
</svg>
