<svg width="165" height="236" viewBox="0 0 165 236" fill="none" xmlns="http://www.w3.org/2000/svg">
<circle cx="40" cy="40" r="40" fill="#E82F27"/>
<path d="M0.36 118L4.446 105.04H7.623L11.709 118H9.477L5.769 106.372H6.255L2.592 118H0.36ZM2.637 115.192V113.167H9.441V115.192H2.637ZM18.0072 118.27C17.0592 118.27 16.2642 118.045 15.6222 117.595C14.9802 117.145 14.4972 116.533 14.1732 115.759C13.8492 114.979 13.6872 114.106 13.6872 113.14C13.6872 112.162 13.8492 111.286 14.1732 110.512C14.4972 109.738 14.9712 109.129 15.5952 108.685C16.2252 108.235 17.0022 108.01 17.9262 108.01C18.8442 108.01 19.6392 108.235 20.3112 108.685C20.9892 109.129 21.5142 109.738 21.8862 110.512C22.2582 111.28 22.4442 112.156 22.4442 113.14C22.4442 114.112 22.2612 114.985 21.8952 115.759C21.5292 116.533 21.0132 117.145 20.3472 117.595C19.6812 118.045 18.9012 118.27 18.0072 118.27ZM13.3182 118V105.04H15.5052V111.178H15.2352V118H13.3182ZM17.6742 116.326C18.2382 116.326 18.7032 116.185 19.0692 115.903C19.4352 115.621 19.7052 115.24 19.8792 114.76C20.0592 114.274 20.1492 113.734 20.1492 113.14C20.1492 112.552 20.0592 112.018 19.8792 111.538C19.6992 111.052 19.4202 110.668 19.0422 110.386C18.6642 110.098 18.1842 109.954 17.6022 109.954C17.0502 109.954 16.6002 110.089 16.2522 110.359C15.9042 110.623 15.6462 110.995 15.4782 111.475C15.3162 111.949 15.2352 112.504 15.2352 113.14C15.2352 113.77 15.3162 114.325 15.4782 114.805C15.6462 115.285 15.9072 115.66 16.2612 115.93C16.6212 116.194 17.0922 116.326 17.6742 116.326ZM28.721 118.27C27.749 118.27 26.9 118.051 26.174 117.613C25.448 117.175 24.884 116.572 24.482 115.804C24.086 115.03 23.888 114.142 23.888 113.14C23.888 112.12 24.092 111.226 24.5 110.458C24.908 109.69 25.475 109.09 26.201 108.658C26.927 108.226 27.767 108.01 28.721 108.01C29.699 108.01 30.551 108.229 31.277 108.667C32.003 109.105 32.567 109.711 32.969 110.485C33.371 111.253 33.572 112.138 33.572 113.14C33.572 114.148 33.368 115.039 32.96 115.813C32.558 116.581 31.994 117.184 31.268 117.622C30.542 118.054 29.693 118.27 28.721 118.27ZM28.721 116.236C29.585 116.236 30.227 115.948 30.647 115.372C31.067 114.796 31.277 114.052 31.277 113.14C31.277 112.198 31.064 111.448 30.638 110.89C30.212 110.326 29.573 110.044 28.721 110.044C28.139 110.044 27.659 110.176 27.281 110.44C26.909 110.698 26.633 111.061 26.453 111.529C26.273 111.991 26.183 112.528 26.183 113.14C26.183 114.082 26.396 114.835 26.822 115.399C27.254 115.957 27.887 116.236 28.721 116.236ZM39.1999 118.279C38.4799 118.279 37.8859 118.159 37.4179 117.919C36.9499 117.679 36.5779 117.373 36.3019 117.001C36.0259 116.629 35.8219 116.233 35.6899 115.813C35.5579 115.393 35.4709 114.997 35.4289 114.625C35.3929 114.247 35.3749 113.941 35.3749 113.707V108.28H37.5709V112.96C37.5709 113.26 37.5919 113.599 37.6339 113.977C37.6759 114.349 37.7719 114.709 37.9219 115.057C38.0779 115.399 38.3059 115.681 38.6059 115.903C38.9119 116.125 39.3229 116.236 39.8389 116.236C40.1149 116.236 40.3879 116.191 40.6579 116.101C40.9279 116.011 41.1709 115.858 41.3869 115.642C41.6089 115.42 41.7859 115.117 41.9179 114.733C42.0499 114.349 42.1159 113.863 42.1159 113.275L43.4029 113.824C43.4029 114.652 43.2409 115.402 42.9169 116.074C42.5989 116.746 42.1279 117.283 41.5039 117.685C40.8799 118.081 40.1119 118.279 39.1999 118.279ZM42.3769 118V114.985H42.1159V108.28H44.2939V118H42.3769ZM52.5195 118C51.8775 118.12 51.2475 118.171 50.6295 118.153C50.0175 118.141 49.4685 118.03 48.9825 117.82C48.4965 117.604 48.1275 117.265 47.8755 116.803C47.6535 116.383 47.5365 115.954 47.5245 115.516C47.5125 115.078 47.5065 114.583 47.5065 114.031V105.58H49.6665V113.905C49.6665 114.295 49.6695 114.637 49.6755 114.931C49.6875 115.225 49.7505 115.465 49.8645 115.651C50.0805 116.011 50.4255 116.212 50.8995 116.254C51.3735 116.296 51.9135 116.272 52.5195 116.182V118ZM45.7425 109.981V108.28H52.5195V109.981H45.7425ZM58.2131 118V105.04H60.1661L64.6481 114.22L69.1301 105.04H71.0831V118H69.0581V109.693L65.0801 118H64.2161L60.2471 109.693V118H58.2131ZM77.2566 118.279C76.5366 118.279 75.9426 118.159 75.4746 117.919C75.0066 117.679 74.6346 117.373 74.3586 117.001C74.0826 116.629 73.8786 116.233 73.7466 115.813C73.6146 115.393 73.5276 114.997 73.4856 114.625C73.4496 114.247 73.4316 113.941 73.4316 113.707V108.28H75.6276V112.96C75.6276 113.26 75.6486 113.599 75.6906 113.977C75.7326 114.349 75.8286 114.709 75.9786 115.057C76.1346 115.399 76.3626 115.681 76.6626 115.903C76.9686 116.125 77.3796 116.236 77.8956 116.236C78.1716 116.236 78.4446 116.191 78.7146 116.101C78.9846 116.011 79.2276 115.858 79.4436 115.642C79.6656 115.42 79.8426 115.117 79.9746 114.733C80.1066 114.349 80.1726 113.863 80.1726 113.275L81.4596 113.824C81.4596 114.652 81.2976 115.402 80.9736 116.074C80.6556 116.746 80.1846 117.283 79.5606 117.685C78.9366 118.081 78.1686 118.279 77.2566 118.279ZM80.4336 118V114.985H80.1726V108.28H82.3506V118H80.4336ZM83.9791 118V117.703L89.1271 110.179H84.5011V108.28H92.5021V108.586L87.3721 116.101H92.2861V118H83.9791ZM93.5768 118V117.703L98.7248 110.179H94.0988V108.28H102.1V108.586L96.9698 116.101H101.884V118H93.5768ZM105.159 122.32L107.031 117.181L107.067 118.693L102.828 108.28H105.087L108.093 115.984H107.517L110.442 108.28H112.611L107.193 122.32H105.159ZM116.32 118.27C115.618 118.27 115.024 118.138 114.538 117.874C114.052 117.604 113.683 117.247 113.431 116.803C113.185 116.359 113.062 115.87 113.062 115.336C113.062 114.868 113.14 114.448 113.296 114.076C113.452 113.698 113.692 113.374 114.016 113.104C114.34 112.828 114.76 112.603 115.276 112.429C115.666 112.303 116.122 112.189 116.644 112.087C117.172 111.985 117.742 111.892 118.354 111.808C118.972 111.718 119.617 111.622 120.289 111.52L119.515 111.961C119.521 111.289 119.371 110.794 119.065 110.476C118.759 110.158 118.243 109.999 117.517 109.999C117.079 109.999 116.656 110.101 116.248 110.305C115.84 110.509 115.555 110.86 115.393 111.358L113.413 110.737C113.653 109.915 114.109 109.255 114.781 108.757C115.459 108.259 116.371 108.01 117.517 108.01C118.381 108.01 119.14 108.151 119.794 108.433C120.454 108.715 120.943 109.177 121.261 109.819C121.435 110.161 121.54 110.512 121.576 110.872C121.612 111.226 121.63 111.613 121.63 112.033V118H119.731V115.894L120.046 116.236C119.608 116.938 119.095 117.454 118.507 117.784C117.925 118.108 117.196 118.27 116.32 118.27ZM116.752 116.542C117.244 116.542 117.664 116.455 118.012 116.281C118.36 116.107 118.636 115.894 118.84 115.642C119.05 115.39 119.191 115.153 119.263 114.931C119.377 114.655 119.44 114.34 119.452 113.986C119.47 113.626 119.479 113.335 119.479 113.113L120.145 113.311C119.491 113.413 118.93 113.503 118.462 113.581C117.994 113.659 117.592 113.734 117.256 113.806C116.92 113.872 116.623 113.947 116.365 114.031C116.113 114.121 115.9 114.226 115.726 114.346C115.552 114.466 115.417 114.604 115.321 114.76C115.231 114.916 115.186 115.099 115.186 115.309C115.186 115.549 115.246 115.762 115.366 115.948C115.486 116.128 115.66 116.272 115.888 116.38C116.122 116.488 116.41 116.542 116.752 116.542ZM124.153 106.804V104.815H126.322V106.804H124.153ZM124.153 118V108.28H126.322V118H124.153ZM129.018 118V108.28H130.935V110.647L130.701 110.341C130.821 110.017 130.98 109.723 131.178 109.459C131.382 109.189 131.625 108.967 131.907 108.793C132.147 108.631 132.411 108.505 132.699 108.415C132.993 108.319 133.293 108.262 133.599 108.244C133.905 108.22 134.202 108.232 134.49 108.28V110.305C134.202 110.221 133.869 110.194 133.491 110.224C133.119 110.254 132.783 110.359 132.483 110.539C132.183 110.701 131.937 110.908 131.745 111.16C131.559 111.412 131.421 111.7 131.331 112.024C131.241 112.342 131.196 112.687 131.196 113.059V118H129.018ZM5.481 144.27C4.479 144.27 3.624 144.048 2.916 143.604C2.208 143.154 1.665 142.542 1.287 141.768C0.915 140.994 0.726 140.118 0.72 139.14C0.726 138.144 0.921 137.262 1.305 136.494C1.695 135.72 2.247 135.114 2.961 134.676C3.675 134.232 4.524 134.01 5.508 134.01C6.612 134.01 7.545 134.289 8.307 134.847C9.075 135.399 9.576 136.155 9.81 137.115L7.65 137.7C7.482 137.178 7.203 136.773 6.813 136.485C6.423 136.191 5.979 136.044 5.481 136.044C4.917 136.044 4.452 136.179 4.086 136.449C3.72 136.713 3.45 137.079 3.276 137.547C3.102 138.015 3.015 138.546 3.015 139.14C3.015 140.064 3.222 140.811 3.636 141.381C4.05 141.951 4.665 142.236 5.481 142.236C6.057 142.236 6.51 142.104 6.84 141.84C7.176 141.576 7.428 141.195 7.596 140.697L9.81 141.192C9.51 142.182 8.985 142.944 8.235 143.478C7.485 144.006 6.567 144.27 5.481 144.27ZM18.3365 144V139.32C18.3365 139.014 18.3155 138.675 18.2735 138.303C18.2315 137.931 18.1325 137.574 17.9765 137.232C17.8265 136.884 17.5985 136.599 17.2925 136.377C16.9925 136.155 16.5845 136.044 16.0685 136.044C15.7925 136.044 15.5195 136.089 15.2495 136.179C14.9795 136.269 14.7335 136.425 14.5115 136.647C14.2955 136.863 14.1215 137.163 13.9895 137.547C13.8575 137.925 13.7915 138.411 13.7915 139.005L12.5045 138.456C12.5045 137.628 12.6635 136.878 12.9815 136.206C13.3055 135.534 13.7795 135 14.4035 134.604C15.0275 134.202 15.7955 134.001 16.7075 134.001C17.4275 134.001 18.0215 134.121 18.4895 134.361C18.9575 134.601 19.3295 134.907 19.6055 135.279C19.8815 135.651 20.0855 136.047 20.2175 136.467C20.3495 136.887 20.4335 137.286 20.4695 137.664C20.5115 138.036 20.5325 138.339 20.5325 138.573V144H18.3365ZM11.5955 144V131.04H13.5305V137.862H13.7915V144H11.5955ZM25.5991 144.27C24.8971 144.27 24.3031 144.138 23.8171 143.874C23.3311 143.604 22.9621 143.247 22.7101 142.803C22.4641 142.359 22.3411 141.87 22.3411 141.336C22.3411 140.868 22.4191 140.448 22.5751 140.076C22.7311 139.698 22.9711 139.374 23.2951 139.104C23.6191 138.828 24.0391 138.603 24.5551 138.429C24.9451 138.303 25.4011 138.189 25.9231 138.087C26.4511 137.985 27.0211 137.892 27.6331 137.808C28.2511 137.718 28.8961 137.622 29.5681 137.52L28.7941 137.961C28.8001 137.289 28.6501 136.794 28.3441 136.476C28.0381 136.158 27.5221 135.999 26.7961 135.999C26.3581 135.999 25.9351 136.101 25.5271 136.305C25.1191 136.509 24.8341 136.86 24.6721 137.358L22.6921 136.737C22.9321 135.915 23.3881 135.255 24.0601 134.757C24.7381 134.259 25.6501 134.01 26.7961 134.01C27.6601 134.01 28.4191 134.151 29.0731 134.433C29.7331 134.715 30.2221 135.177 30.5401 135.819C30.7141 136.161 30.8191 136.512 30.8551 136.872C30.8911 137.226 30.9091 137.613 30.9091 138.033V144H29.0101V141.894L29.3251 142.236C28.8871 142.938 28.3741 143.454 27.7861 143.784C27.2041 144.108 26.4751 144.27 25.5991 144.27ZM26.0311 142.542C26.5231 142.542 26.9431 142.455 27.2911 142.281C27.6391 142.107 27.9151 141.894 28.1191 141.642C28.3291 141.39 28.4701 141.153 28.5421 140.931C28.6561 140.655 28.7191 140.34 28.7311 139.986C28.7491 139.626 28.7581 139.335 28.7581 139.113L29.4241 139.311C28.7701 139.413 28.2091 139.503 27.7411 139.581C27.2731 139.659 26.8711 139.734 26.5351 139.806C26.1991 139.872 25.9021 139.947 25.6441 140.031C25.3921 140.121 25.1791 140.226 25.0051 140.346C24.8311 140.466 24.6961 140.604 24.6001 140.76C24.5101 140.916 24.4651 141.099 24.4651 141.309C24.4651 141.549 24.5251 141.762 24.6451 141.948C24.7651 142.128 24.9391 142.272 25.1671 142.38C25.4011 142.488 25.6891 142.542 26.0311 142.542ZM36.8972 144.279C36.1772 144.279 35.5832 144.159 35.1152 143.919C34.6472 143.679 34.2752 143.373 33.9992 143.001C33.7232 142.629 33.5192 142.233 33.3872 141.813C33.2552 141.393 33.1682 140.997 33.1262 140.625C33.0902 140.247 33.0722 139.941 33.0722 139.707V134.28H35.2682V138.96C35.2682 139.26 35.2892 139.599 35.3312 139.977C35.3732 140.349 35.4692 140.709 35.6192 141.057C35.7752 141.399 36.0032 141.681 36.3032 141.903C36.6092 142.125 37.0202 142.236 37.5362 142.236C37.8122 142.236 38.0852 142.191 38.3552 142.101C38.6252 142.011 38.8682 141.858 39.0842 141.642C39.3062 141.42 39.4832 141.117 39.6152 140.733C39.7472 140.349 39.8132 139.863 39.8132 139.275L41.1002 139.824C41.1002 140.652 40.9382 141.402 40.6142 142.074C40.2962 142.746 39.8252 143.283 39.2012 143.685C38.5772 144.081 37.8092 144.279 36.8972 144.279ZM40.0742 144V140.985H39.8132V134.28H41.9912V144H40.0742ZM45.3658 144V134.127C45.3658 133.881 45.3748 133.611 45.3928 133.317C45.4108 133.017 45.4618 132.72 45.5458 132.426C45.6298 132.132 45.7828 131.865 46.0048 131.625C46.2808 131.319 46.5778 131.109 46.8958 130.995C47.2198 130.875 47.5378 130.809 47.8498 130.797C48.1618 130.779 48.4348 130.77 48.6688 130.77H49.8838V132.534H48.7588C48.3448 132.534 48.0358 132.639 47.8318 132.849C47.6338 133.053 47.5348 133.323 47.5348 133.659V144H45.3658ZM43.7998 135.981V134.28H49.8838V135.981H43.7998ZM51.4228 144V134.127C51.4228 133.881 51.4318 133.611 51.4498 133.317C51.4678 133.017 51.5188 132.72 51.6028 132.426C51.6868 132.132 51.8398 131.865 52.0618 131.625C52.3378 131.319 52.6348 131.109 52.9528 130.995C53.2768 130.875 53.5948 130.809 53.9068 130.797C54.2188 130.779 54.4918 130.77 54.7258 130.77H55.9408V132.534H54.8158C54.4018 132.534 54.0928 132.639 53.8888 132.849C53.6908 133.053 53.5918 133.323 53.5918 133.659V144H51.4228ZM49.8568 135.981V134.28H55.9408V135.981H49.8568ZM61.4544 144.27C60.4704 144.27 59.6064 144.057 58.8624 143.631C58.1184 143.205 57.5364 142.614 57.1164 141.858C56.7024 141.102 56.4954 140.232 56.4954 139.248C56.4954 138.186 56.6994 137.265 57.1074 136.485C57.5154 135.699 58.0824 135.09 58.8084 134.658C59.5344 134.226 60.3744 134.01 61.3284 134.01C62.3364 134.01 63.1914 134.247 63.8934 134.721C64.6014 135.189 65.1264 135.852 65.4684 136.71C65.8104 137.568 65.9394 138.579 65.8554 139.743H63.7044V138.951C63.6984 137.895 63.5124 137.124 63.1464 136.638C62.7804 136.152 62.2044 135.909 61.4184 135.909C60.5304 135.909 59.8704 136.185 59.4384 136.737C59.0064 137.283 58.7904 138.084 58.7904 139.14C58.7904 140.124 59.0064 140.886 59.4384 141.426C59.8704 141.966 60.5004 142.236 61.3284 142.236C61.8624 142.236 62.3214 142.119 62.7054 141.885C63.0954 141.645 63.3954 141.3 63.6054 140.85L65.7474 141.498C65.3754 142.374 64.7994 143.055 64.0194 143.541C63.2454 144.027 62.3904 144.27 61.4544 144.27ZM58.1064 139.743V138.105H64.7934V139.743H58.1064ZM71.5085 144.279C70.7885 144.279 70.1945 144.159 69.7265 143.919C69.2585 143.679 68.8865 143.373 68.6105 143.001C68.3345 142.629 68.1305 142.233 67.9985 141.813C67.8665 141.393 67.7795 140.997 67.7375 140.625C67.7015 140.247 67.6835 139.941 67.6835 139.707V134.28H69.8795V138.96C69.8795 139.26 69.9005 139.599 69.9425 139.977C69.9845 140.349 70.0805 140.709 70.2305 141.057C70.3865 141.399 70.6145 141.681 70.9145 141.903C71.2205 142.125 71.6315 142.236 72.1475 142.236C72.4235 142.236 72.6965 142.191 72.9665 142.101C73.2365 142.011 73.4795 141.858 73.6955 141.642C73.9175 141.42 74.0945 141.117 74.2265 140.733C74.3585 140.349 74.4245 139.863 74.4245 139.275L75.7115 139.824C75.7115 140.652 75.5495 141.402 75.2255 142.074C74.9075 142.746 74.4365 143.283 73.8125 143.685C73.1885 144.081 72.4205 144.279 71.5085 144.279ZM74.6855 144V140.985H74.4245V134.28H76.6025V144H74.6855ZM79.1311 144V134.28H81.0481V136.647L80.8141 136.341C80.9341 136.017 81.0931 135.723 81.2911 135.459C81.4951 135.189 81.7381 134.967 82.0201 134.793C82.2601 134.631 82.5241 134.505 82.8121 134.415C83.1061 134.319 83.4061 134.262 83.7121 134.244C84.0181 134.22 84.3151 134.232 84.6031 134.28V136.305C84.3151 136.221 83.9821 136.194 83.6041 136.224C83.2321 136.254 82.8961 136.359 82.5961 136.539C82.2961 136.701 82.0501 136.908 81.8581 137.16C81.6721 137.412 81.5341 137.7 81.4441 138.024C81.3541 138.342 81.3091 138.687 81.3091 139.059V144H79.1311Z" fill="black"/>
<path d="M1.12 175V164.92H2.149V174.013H6.937V175H1.12ZM11.2874 175.21C10.5361 175.21 9.89439 175.04 9.36239 174.699C8.83039 174.358 8.42206 173.887 8.13739 173.285C7.85272 172.683 7.71039 171.992 7.71039 171.213C7.71039 170.42 7.85506 169.724 8.14439 169.127C8.43372 168.53 8.84439 168.065 9.37639 167.734C9.91306 167.398 10.5501 167.23 11.2874 167.23C12.0434 167.23 12.6874 167.4 13.2194 167.741C13.7561 168.077 14.1644 168.546 14.4444 169.148C14.7291 169.745 14.8714 170.434 14.8714 171.213C14.8714 172.006 14.7291 172.704 14.4444 173.306C14.1597 173.903 13.7491 174.37 13.2124 174.706C12.6757 175.042 12.0341 175.21 11.2874 175.21ZM11.2874 174.223C12.1274 174.223 12.7527 173.945 13.1634 173.39C13.5741 172.83 13.7794 172.104 13.7794 171.213C13.7794 170.298 13.5717 169.57 13.1564 169.029C12.7457 168.488 12.1227 168.217 11.2874 168.217C10.7227 168.217 10.2561 168.345 9.88739 168.602C9.52339 168.854 9.25039 169.206 9.06839 169.659C8.89106 170.107 8.80239 170.625 8.80239 171.213C8.80239 172.123 9.01239 172.853 9.43239 173.404C9.85239 173.95 10.4707 174.223 11.2874 174.223ZM16.4155 175V167.44H17.3395V169.26L17.1575 169.022C17.2415 168.798 17.3512 168.593 17.4865 168.406C17.6219 168.215 17.7689 168.058 17.9275 167.937C18.1235 167.764 18.3522 167.634 18.6135 167.545C18.8749 167.452 19.1385 167.398 19.4045 167.384C19.6705 167.365 19.9132 167.384 20.1325 167.44V168.406C19.8572 168.336 19.5562 168.32 19.2295 168.357C18.9029 168.394 18.6019 168.525 18.3265 168.749C18.0745 168.945 17.8855 169.181 17.7595 169.456C17.6335 169.727 17.5495 170.016 17.5075 170.324C17.4655 170.627 17.4445 170.928 17.4445 171.227V175H16.4155ZM24.5228 175.21C23.7854 175.21 23.1461 175.047 22.6048 174.72C22.0681 174.393 21.6504 173.934 21.3518 173.341C21.0531 172.748 20.9038 172.053 20.9038 171.255C20.9038 170.429 21.0508 169.715 21.3448 169.113C21.6388 168.511 22.0518 168.047 22.5838 167.72C23.1204 167.393 23.7528 167.23 24.4808 167.23C25.2274 167.23 25.8644 167.403 26.3918 167.748C26.9191 168.089 27.3181 168.579 27.5888 169.218C27.8594 169.857 27.9831 170.62 27.9598 171.507H26.9098V171.143C26.8911 170.163 26.6788 169.423 26.2728 168.924C25.8714 168.425 25.2834 168.175 24.5088 168.175C23.6968 168.175 23.0738 168.439 22.6398 168.966C22.2104 169.493 21.9958 170.245 21.9958 171.22C21.9958 172.172 22.2104 172.912 22.6398 173.439C23.0738 173.962 23.6874 174.223 24.4808 174.223C25.0221 174.223 25.4934 174.099 25.8948 173.852C26.3008 173.6 26.6204 173.238 26.8538 172.767L27.8128 173.138C27.5141 173.796 27.0731 174.307 26.4898 174.671C25.9111 175.03 25.2554 175.21 24.5228 175.21ZM21.6318 171.507V170.646H27.4068V171.507H21.6318ZM38.3241 175L38.3311 170.037C38.3311 169.454 38.1678 168.996 37.8411 168.665C37.5191 168.329 37.1085 168.161 36.6091 168.161C36.3245 168.161 36.0468 168.226 35.7761 168.357C35.5055 168.488 35.2815 168.698 35.1041 168.987C34.9315 169.276 34.8451 169.654 34.8451 170.121L34.2361 169.946C34.2221 169.405 34.3271 168.931 34.5511 168.525C34.7798 168.119 35.0925 167.804 35.4891 167.58C35.8905 167.351 36.3431 167.237 36.8471 167.237C37.6078 167.237 38.2168 167.473 38.6741 167.944C39.1315 168.411 39.3601 169.043 39.3601 169.841L39.3531 175H38.3241ZM29.3011 175V167.44H30.2251V169.302H30.3371V175H29.3011ZM33.8231 175L33.8301 170.107C33.8301 169.505 33.6691 169.031 33.3471 168.686C33.0298 168.336 32.6098 168.161 32.0871 168.161C31.5645 168.161 31.1421 168.341 30.8201 168.7C30.4981 169.055 30.3371 169.528 30.3371 170.121L29.7211 169.785C29.7211 169.3 29.8355 168.866 30.0641 168.483C30.2928 168.096 30.6055 167.792 31.0021 167.573C31.3988 167.349 31.8491 167.237 32.3531 167.237C32.8338 167.237 33.2608 167.34 33.6341 167.545C34.0121 167.75 34.3085 168.049 34.5231 168.441C34.7378 168.833 34.8451 169.309 34.8451 169.869L34.8381 175H33.8231ZM44.118 166.005V164.85H45.147V166.005H44.118ZM44.118 175V167.44H45.147V175H44.118ZM50.6406 175.21C49.9453 175.21 49.3573 175.035 48.8766 174.685C48.396 174.33 48.032 173.852 47.7846 173.25C47.5373 172.643 47.4136 171.964 47.4136 171.213C47.4136 170.448 47.5373 169.766 47.7846 169.169C48.0366 168.567 48.4053 168.093 48.8906 167.748C49.376 167.403 49.9733 167.23 50.6826 167.23C51.3733 167.23 51.966 167.405 52.4606 167.755C52.9553 168.105 53.3333 168.581 53.5946 169.183C53.8606 169.785 53.9936 170.462 53.9936 171.213C53.9936 171.969 53.8606 172.648 53.5946 173.25C53.3286 173.852 52.946 174.33 52.4466 174.685C51.9473 175.035 51.3453 175.21 50.6406 175.21ZM47.2386 178.36V167.44H48.1626V173.131H48.2746V178.36H47.2386ZM50.5356 174.251C51.063 174.251 51.5016 174.118 51.8516 173.852C52.2016 173.586 52.463 173.224 52.6356 172.767C52.813 172.305 52.9016 171.787 52.9016 171.213C52.9016 170.644 52.8153 170.13 52.6426 169.673C52.47 169.216 52.2063 168.854 51.8516 168.588C51.5016 168.322 51.056 168.189 50.5146 168.189C49.9873 168.189 49.5486 168.317 49.1986 168.574C48.8533 168.831 48.5943 169.188 48.4216 169.645C48.249 170.098 48.1626 170.62 48.1626 171.213C48.1626 171.796 48.249 172.319 48.4216 172.781C48.5943 173.238 48.8556 173.598 49.2056 173.859C49.5556 174.12 49.999 174.251 50.5356 174.251ZM58.2834 175.203C57.3968 175.203 56.6664 175.012 56.0924 174.629C55.5231 174.246 55.1731 173.714 55.0424 173.033L56.0924 172.858C56.2044 173.287 56.4588 173.63 56.8554 173.887C57.2568 174.139 57.7514 174.265 58.3394 174.265C58.9134 174.265 59.3661 174.146 59.6974 173.908C60.0288 173.665 60.1944 173.336 60.1944 172.921C60.1944 172.688 60.1408 172.499 60.0334 172.354C59.9308 172.205 59.7184 172.067 59.3964 171.941C59.0744 171.815 58.5938 171.666 57.9544 171.493C57.2684 171.306 56.7318 171.12 56.3444 170.933C55.9571 170.746 55.6818 170.532 55.5184 170.289C55.3551 170.042 55.2734 169.741 55.2734 169.386C55.2734 168.957 55.3948 168.581 55.6374 168.259C55.8801 167.932 56.2161 167.68 56.6454 167.503C57.0748 167.321 57.5741 167.23 58.1434 167.23C58.7128 167.23 59.2214 167.323 59.6694 167.51C60.1221 167.692 60.4861 167.949 60.7614 168.28C61.0368 168.611 61.2001 168.996 61.2514 169.435L60.2014 169.624C60.1314 169.181 59.9098 168.831 59.5364 168.574C59.1678 168.313 58.6988 168.177 58.1294 168.168C57.5928 168.154 57.1564 168.257 56.8204 168.476C56.4844 168.691 56.3164 168.978 56.3164 169.337C56.3164 169.538 56.3771 169.71 56.4984 169.855C56.6198 169.995 56.8391 170.128 57.1564 170.254C57.4784 170.38 57.9358 170.518 58.5284 170.667C59.2238 170.844 59.7698 171.031 60.1664 171.227C60.5631 171.423 60.8454 171.654 61.0134 171.92C61.1814 172.186 61.2654 172.515 61.2654 172.907C61.2654 173.621 60.9994 174.183 60.4674 174.594C59.9401 175 59.2121 175.203 58.2834 175.203ZM65.7089 175.189C65.2562 175.189 64.8596 175.119 64.5189 174.979C64.1829 174.839 63.8959 174.65 63.6579 174.412C63.4246 174.174 63.2356 173.903 63.0909 173.6C62.9462 173.292 62.8412 172.968 62.7759 172.627C62.7106 172.282 62.6779 171.939 62.6779 171.598V167.44H63.7139V171.297C63.7139 171.712 63.7536 172.097 63.8329 172.452C63.9122 172.807 64.0382 173.117 64.2109 173.383C64.3882 173.644 64.6146 173.847 64.8899 173.992C65.1699 174.137 65.5082 174.209 65.9049 174.209C66.2689 174.209 66.5886 174.146 66.8639 174.02C67.1439 173.894 67.3772 173.714 67.5639 173.481C67.7552 173.243 67.8999 172.956 67.9979 172.62C68.0959 172.279 68.1449 171.897 68.1449 171.472L68.8729 171.633C68.8729 172.408 68.7376 173.059 68.4669 173.586C68.1962 174.113 67.8229 174.512 67.3469 174.783C66.8709 175.054 66.3249 175.189 65.7089 175.189ZM68.2499 175V173.138H68.1449V167.44H69.1739V175H68.2499ZM80.1464 175L80.1534 170.037C80.1534 169.454 79.9901 168.996 79.6634 168.665C79.3414 168.329 78.9307 168.161 78.4314 168.161C78.1467 168.161 77.8691 168.226 77.5984 168.357C77.3277 168.488 77.1037 168.698 76.9264 168.987C76.7537 169.276 76.6674 169.654 76.6674 170.121L76.0584 169.946C76.0444 169.405 76.1494 168.931 76.3734 168.525C76.6021 168.119 76.9147 167.804 77.3114 167.58C77.7127 167.351 78.1654 167.237 78.6694 167.237C79.4301 167.237 80.0391 167.473 80.4964 167.944C80.9537 168.411 81.1824 169.043 81.1824 169.841L81.1754 175H80.1464ZM71.1234 175V167.44H72.0474V169.302H72.1594V175H71.1234ZM75.6454 175L75.6524 170.107C75.6524 169.505 75.4914 169.031 75.1694 168.686C74.8521 168.336 74.4321 168.161 73.9094 168.161C73.3867 168.161 72.9644 168.341 72.6424 168.7C72.3204 169.055 72.1594 169.528 72.1594 170.121L71.5434 169.785C71.5434 169.3 71.6577 168.866 71.8864 168.483C72.1151 168.096 72.4277 167.792 72.8244 167.573C73.2211 167.349 73.6714 167.237 74.1754 167.237C74.6561 167.237 75.0831 167.34 75.4564 167.545C75.8344 167.75 76.1307 168.049 76.3454 168.441C76.5601 168.833 76.6674 169.309 76.6674 169.869L76.6604 175H75.6454ZM88.7333 175.21C88.0286 175.21 87.4266 175.035 86.9273 174.685C86.428 174.33 86.0453 173.852 85.7793 173.25C85.5133 172.648 85.3803 171.969 85.3803 171.213C85.3803 170.462 85.511 169.785 85.7723 169.183C86.0383 168.581 86.4186 168.105 86.9133 167.755C87.408 167.405 88.0006 167.23 88.6913 167.23C89.4006 167.23 89.998 167.403 90.4833 167.748C90.9686 168.093 91.335 168.567 91.5823 169.169C91.8343 169.766 91.9603 170.448 91.9603 171.213C91.9603 171.964 91.8366 172.643 91.5893 173.25C91.342 173.852 90.978 174.33 90.4973 174.685C90.0166 175.035 89.4286 175.21 88.7333 175.21ZM88.8383 174.251C89.375 174.251 89.8183 174.12 90.1683 173.859C90.5183 173.598 90.7796 173.238 90.9523 172.781C91.125 172.319 91.2113 171.796 91.2113 171.213C91.2113 170.62 91.125 170.098 90.9523 169.645C90.7796 169.188 90.5183 168.831 90.1683 168.574C89.823 168.317 89.3866 168.189 88.8593 168.189C88.318 168.189 87.87 168.322 87.5153 168.588C87.1606 168.854 86.897 169.216 86.7243 169.673C86.5563 170.13 86.4723 170.644 86.4723 171.213C86.4723 171.787 86.5586 172.305 86.7313 172.767C86.9086 173.224 87.1723 173.586 87.5223 173.852C87.8723 174.118 88.311 174.251 88.8383 174.251ZM91.2113 175V169.309H91.0993V164.92H92.1353V175H91.2113ZM97.2561 175.21C96.5048 175.21 95.8631 175.04 95.3311 174.699C94.7991 174.358 94.3908 173.887 94.1061 173.285C93.8215 172.683 93.6791 171.992 93.6791 171.213C93.6791 170.42 93.8238 169.724 94.1131 169.127C94.4025 168.53 94.8131 168.065 95.3451 167.734C95.8818 167.398 96.5188 167.23 97.2561 167.23C98.0121 167.23 98.6561 167.4 99.1881 167.741C99.7248 168.077 100.133 168.546 100.413 169.148C100.698 169.745 100.84 170.434 100.84 171.213C100.84 172.006 100.698 172.704 100.413 173.306C100.128 173.903 99.7178 174.37 99.1811 174.706C98.6445 175.042 98.0028 175.21 97.2561 175.21ZM97.2561 174.223C98.0961 174.223 98.7215 173.945 99.1321 173.39C99.5428 172.83 99.7481 172.104 99.7481 171.213C99.7481 170.298 99.5405 169.57 99.1251 169.029C98.7145 168.488 98.0915 168.217 97.2561 168.217C96.6915 168.217 96.2248 168.345 95.8561 168.602C95.4921 168.854 95.2191 169.206 95.0371 169.659C94.8598 170.107 94.7711 170.625 94.7711 171.213C94.7711 172.123 94.9811 172.853 95.4011 173.404C95.8211 173.95 96.4395 174.223 97.2561 174.223ZM102.524 175V164.71H103.553V175H102.524ZM108.809 175.21C108.058 175.21 107.416 175.04 106.884 174.699C106.352 174.358 105.944 173.887 105.659 173.285C105.374 172.683 105.232 171.992 105.232 171.213C105.232 170.42 105.377 169.724 105.666 169.127C105.955 168.53 106.366 168.065 106.898 167.734C107.435 167.398 108.072 167.23 108.809 167.23C109.565 167.23 110.209 167.4 110.741 167.741C111.278 168.077 111.686 168.546 111.966 169.148C112.251 169.745 112.393 170.434 112.393 171.213C112.393 172.006 112.251 172.704 111.966 173.306C111.681 173.903 111.271 174.37 110.734 174.706C110.197 175.042 109.556 175.21 108.809 175.21ZM108.809 174.223C109.649 174.223 110.274 173.945 110.685 173.39C111.096 172.83 111.301 172.104 111.301 171.213C111.301 170.298 111.093 169.57 110.678 169.029C110.267 168.488 109.644 168.217 108.809 168.217C108.244 168.217 107.778 168.345 107.409 168.602C107.045 168.854 106.772 169.206 106.59 169.659C106.413 170.107 106.324 170.625 106.324 171.213C106.324 172.123 106.534 172.853 106.954 173.404C107.374 173.95 107.992 174.223 108.809 174.223ZM113.937 175V167.44H114.861V169.26L114.679 169.022C114.763 168.798 114.873 168.593 115.008 168.406C115.143 168.215 115.29 168.058 115.449 167.937C115.645 167.764 115.874 167.634 116.135 167.545C116.396 167.452 116.66 167.398 116.926 167.384C117.192 167.365 117.435 167.384 117.654 167.44V168.406C117.379 168.336 117.078 168.32 116.751 168.357C116.424 168.394 116.123 168.525 115.848 168.749C115.596 168.945 115.407 169.181 115.281 169.456C115.155 169.727 115.071 170.016 115.029 170.324C114.987 170.627 114.966 170.928 114.966 171.227V175H113.937ZM124.606 175.203C123.719 175.203 122.989 175.012 122.415 174.629C121.845 174.246 121.495 173.714 121.365 173.033L122.415 172.858C122.527 173.287 122.781 173.63 123.178 173.887C123.579 174.139 124.074 174.265 124.662 174.265C125.236 174.265 125.688 174.146 126.02 173.908C126.351 173.665 126.517 173.336 126.517 172.921C126.517 172.688 126.463 172.499 126.356 172.354C126.253 172.205 126.041 172.067 125.719 171.941C125.397 171.815 124.916 171.666 124.277 171.493C123.591 171.306 123.054 171.12 122.667 170.933C122.279 170.746 122.004 170.532 121.841 170.289C121.677 170.042 121.596 169.741 121.596 169.386C121.596 168.957 121.717 168.581 121.96 168.259C122.202 167.932 122.538 167.68 122.968 167.503C123.397 167.321 123.896 167.23 124.466 167.23C125.035 167.23 125.544 167.323 125.992 167.51C126.444 167.692 126.808 167.949 127.084 168.28C127.359 168.611 127.522 168.996 127.574 169.435L126.524 169.624C126.454 169.181 126.232 168.831 125.859 168.574C125.49 168.313 125.021 168.177 124.452 168.168C123.915 168.154 123.479 168.257 123.143 168.476C122.807 168.691 122.639 168.978 122.639 169.337C122.639 169.538 122.699 169.71 122.821 169.855C122.942 169.995 123.161 170.128 123.479 170.254C123.801 170.38 124.258 170.518 124.851 170.667C125.546 170.844 126.092 171.031 126.489 171.227C126.885 171.423 127.168 171.654 127.336 171.92C127.504 172.186 127.588 172.515 127.588 172.907C127.588 173.621 127.322 174.183 126.79 174.594C126.262 175 125.534 175.203 124.606 175.203ZM129.28 166.005V164.85H130.309V166.005H129.28ZM129.28 175V167.44H130.309V175H129.28ZM136.524 175C136.099 175.089 135.679 175.124 135.264 175.105C134.853 175.086 134.484 174.998 134.158 174.839C133.836 174.68 133.591 174.433 133.423 174.097C133.287 173.817 133.213 173.535 133.199 173.25C133.189 172.961 133.185 172.632 133.185 172.263V165.34H134.207V172.221C134.207 172.538 134.209 172.804 134.214 173.019C134.223 173.229 134.272 173.416 134.361 173.579C134.529 173.892 134.795 174.078 135.159 174.139C135.527 174.2 135.982 174.186 136.524 174.097V175ZM131.568 168.322V167.44H136.524V168.322H131.568ZM3.143 194.21C2.57367 194.21 2.09533 194.107 1.708 193.902C1.32533 193.697 1.03833 193.424 0.847 193.083C0.655667 192.742 0.56 192.371 0.56 191.97C0.56 191.559 0.641667 191.209 0.805 190.92C0.973 190.626 1.19933 190.386 1.484 190.199C1.77333 190.012 2.107 189.87 2.485 189.772C2.86767 189.679 3.29 189.597 3.752 189.527C4.21867 189.452 4.67367 189.389 5.117 189.338C5.565 189.282 5.957 189.228 6.293 189.177L5.929 189.401C5.943 188.654 5.79833 188.101 5.495 187.742C5.19167 187.383 4.66433 187.203 3.913 187.203C3.395 187.203 2.95633 187.32 2.597 187.553C2.24233 187.786 1.99267 188.155 1.848 188.659L0.847 188.365C1.01967 187.688 1.36733 187.163 1.89 186.79C2.41267 186.417 3.09167 186.23 3.927 186.23C4.61767 186.23 5.20333 186.361 5.684 186.622C6.16933 186.879 6.51233 187.252 6.713 187.742C6.80633 187.961 6.867 188.206 6.895 188.477C6.923 188.748 6.937 189.023 6.937 189.303V194H6.02V192.103L6.286 192.215C6.02933 192.864 5.63033 193.358 5.089 193.699C4.54767 194.04 3.899 194.21 3.143 194.21ZM3.262 193.321C3.74267 193.321 4.16267 193.235 4.522 193.062C4.88133 192.889 5.17067 192.654 5.39 192.355C5.60933 192.052 5.75167 191.711 5.817 191.333C5.873 191.09 5.90333 190.824 5.908 190.535C5.91267 190.241 5.915 190.022 5.915 189.877L6.307 190.08C5.957 190.127 5.57667 190.173 5.166 190.22C4.76 190.267 4.35867 190.32 3.962 190.381C3.57 190.442 3.21533 190.514 2.898 190.598C2.68333 190.659 2.47567 190.745 2.275 190.857C2.07433 190.964 1.90867 191.109 1.778 191.291C1.652 191.473 1.589 191.699 1.589 191.97C1.589 192.189 1.64267 192.402 1.75 192.607C1.862 192.812 2.03933 192.983 2.282 193.118C2.52933 193.253 2.856 193.321 3.262 193.321ZM17.7753 194L17.7823 189.037C17.7823 188.454 17.619 187.996 17.2923 187.665C16.9703 187.329 16.5596 187.161 16.0603 187.161C15.7756 187.161 15.498 187.226 15.2273 187.357C14.9566 187.488 14.7326 187.698 14.5553 187.987C14.3826 188.276 14.2963 188.654 14.2963 189.121L13.6873 188.946C13.6733 188.405 13.7783 187.931 14.0023 187.525C14.231 187.119 14.5436 186.804 14.9403 186.58C15.3416 186.351 15.7943 186.237 16.2983 186.237C17.059 186.237 17.668 186.473 18.1253 186.944C18.5826 187.411 18.8113 188.043 18.8113 188.841L18.8043 194H17.7753ZM8.7523 194V186.44H9.6763V188.302H9.7883V194H8.7523ZM13.2743 194L13.2813 189.107C13.2813 188.505 13.1203 188.031 12.7983 187.686C12.481 187.336 12.061 187.161 11.5383 187.161C11.0156 187.161 10.5933 187.341 10.2713 187.7C9.9493 188.055 9.7883 188.528 9.7883 189.121L9.1723 188.785C9.1723 188.3 9.28663 187.866 9.5153 187.483C9.74396 187.096 10.0566 186.792 10.4533 186.573C10.85 186.349 11.3003 186.237 11.8043 186.237C12.285 186.237 12.712 186.34 13.0853 186.545C13.4633 186.75 13.7596 187.049 13.9743 187.441C14.189 187.833 14.2963 188.309 14.2963 188.869L14.2893 194H13.2743ZM23.7845 194.21C23.0471 194.21 22.4078 194.047 21.8665 193.72C21.3298 193.393 20.9121 192.934 20.6135 192.341C20.3148 191.748 20.1655 191.053 20.1655 190.255C20.1655 189.429 20.3125 188.715 20.6065 188.113C20.9005 187.511 21.3135 187.047 21.8455 186.72C22.3821 186.393 23.0145 186.23 23.7425 186.23C24.4891 186.23 25.1261 186.403 25.6535 186.748C26.1808 187.089 26.5798 187.579 26.8505 188.218C27.1211 188.857 27.2448 189.62 27.2215 190.507H26.1715V190.143C26.1528 189.163 25.9405 188.423 25.5345 187.924C25.1331 187.425 24.5451 187.175 23.7705 187.175C22.9585 187.175 22.3355 187.439 21.9015 187.966C21.4721 188.493 21.2575 189.245 21.2575 190.22C21.2575 191.172 21.4721 191.912 21.9015 192.439C22.3355 192.962 22.9491 193.223 23.7425 193.223C24.2838 193.223 24.7551 193.099 25.1565 192.852C25.5625 192.6 25.8821 192.238 26.1155 191.767L27.0745 192.138C26.7758 192.796 26.3348 193.307 25.7515 193.671C25.1728 194.03 24.5171 194.21 23.7845 194.21ZM20.8935 190.507V189.646H26.6685V190.507H20.8935ZM32.8909 194C32.4663 194.089 32.0463 194.124 31.6309 194.105C31.2203 194.086 30.8516 193.998 30.5249 193.839C30.2029 193.68 29.9579 193.433 29.7899 193.097C29.6546 192.817 29.5799 192.535 29.5659 192.25C29.5566 191.961 29.5519 191.632 29.5519 191.263V184.34H30.5739V191.221C30.5739 191.538 30.5763 191.804 30.5809 192.019C30.5903 192.229 30.6393 192.416 30.7279 192.579C30.8959 192.892 31.1619 193.078 31.5259 193.139C31.8946 193.2 32.3496 193.186 32.8909 193.097V194ZM27.9349 187.322V186.44H32.8909V187.322H27.9349ZM34.2404 195.463L34.3034 194.952C34.4901 194.966 34.6254 194.929 34.7094 194.84C34.7934 194.751 34.8447 194.632 34.8634 194.483C34.8821 194.334 34.8867 194.173 34.8774 194H34.2404V192.523H35.4374V194.28C35.4374 194.709 35.3277 195.031 35.1084 195.246C34.8937 195.461 34.6044 195.533 34.2404 195.463ZM44.0379 194.21C43.2772 194.21 42.6332 194.04 42.1059 193.699C41.5785 193.358 41.1772 192.889 40.9019 192.292C40.6312 191.69 40.4912 190.999 40.4819 190.22C40.4912 189.427 40.6359 188.731 40.9159 188.134C41.1959 187.532 41.5995 187.065 42.1269 186.734C42.6542 186.398 43.2935 186.23 44.0449 186.23C44.8102 186.23 45.4752 186.417 46.0399 186.79C46.6092 187.163 46.9989 187.674 47.2089 188.323L46.2009 188.645C46.0235 188.192 45.7412 187.842 45.3539 187.595C44.9712 187.343 44.5325 187.217 44.0379 187.217C43.4825 187.217 43.0229 187.345 42.6589 187.602C42.2949 187.854 42.0242 188.206 41.8469 188.659C41.6695 189.112 41.5785 189.632 41.5739 190.22C41.5832 191.125 41.7932 191.853 42.2039 192.404C42.6145 192.95 43.2259 193.223 44.0379 193.223C44.5512 193.223 44.9875 193.106 45.3469 192.873C45.7109 192.635 45.9862 192.29 46.1729 191.837L47.2089 192.145C46.9289 192.817 46.5182 193.33 45.9769 193.685C45.4355 194.035 44.7892 194.21 44.0379 194.21ZM51.6058 194.21C50.8544 194.21 50.2128 194.04 49.6808 193.699C49.1488 193.358 48.7404 192.887 48.4558 192.285C48.1711 191.683 48.0288 190.992 48.0288 190.213C48.0288 189.42 48.1734 188.724 48.4628 188.127C48.7521 187.53 49.1628 187.065 49.6948 186.734C50.2314 186.398 50.8684 186.23 51.6058 186.23C52.3618 186.23 53.0058 186.4 53.5378 186.741C54.0744 187.077 54.4828 187.546 54.7628 188.148C55.0474 188.745 55.1898 189.434 55.1898 190.213C55.1898 191.006 55.0474 191.704 54.7628 192.306C54.4781 192.903 54.0674 193.37 53.5308 193.706C52.9941 194.042 52.3524 194.21 51.6058 194.21ZM51.6058 193.223C52.4458 193.223 53.0711 192.945 53.4818 192.39C53.8924 191.83 54.0978 191.104 54.0978 190.213C54.0978 189.298 53.8901 188.57 53.4748 188.029C53.0641 187.488 52.4411 187.217 51.6058 187.217C51.0411 187.217 50.5744 187.345 50.2058 187.602C49.8418 187.854 49.5688 188.206 49.3868 188.659C49.2094 189.107 49.1208 189.625 49.1208 190.213C49.1208 191.123 49.3308 191.853 49.7508 192.404C50.1708 192.95 50.7891 193.223 51.6058 193.223ZM62.1939 194V190.143C62.1939 189.723 62.1542 189.338 62.0749 188.988C61.9956 188.633 61.8672 188.325 61.6899 188.064C61.5172 187.798 61.2909 187.593 61.0109 187.448C60.7356 187.303 60.3996 187.231 60.0029 187.231C59.6389 187.231 59.3169 187.294 59.0369 187.42C58.7616 187.546 58.5282 187.728 58.3369 187.966C58.1502 188.199 58.0079 188.484 57.9099 188.82C57.8119 189.156 57.7629 189.539 57.7629 189.968L57.0349 189.807C57.0349 189.032 57.1702 188.381 57.4409 187.854C57.7116 187.327 58.0849 186.928 58.5609 186.657C59.0369 186.386 59.5829 186.251 60.1989 186.251C60.6516 186.251 61.0459 186.321 61.3819 186.461C61.7226 186.601 62.0096 186.79 62.2429 187.028C62.4809 187.266 62.6722 187.539 62.8169 187.847C62.9616 188.15 63.0666 188.475 63.1319 188.82C63.1972 189.161 63.2299 189.501 63.2299 189.842V194H62.1939ZM56.7269 194V186.44H57.6579V188.302H57.7629V194H56.7269ZM67.8674 194.203C66.9807 194.203 66.2504 194.012 65.6764 193.629C65.1071 193.246 64.7571 192.714 64.6264 192.033L65.6764 191.858C65.7884 192.287 66.0427 192.63 66.4394 192.887C66.8407 193.139 67.3354 193.265 67.9234 193.265C68.4974 193.265 68.9501 193.146 69.2814 192.908C69.6127 192.665 69.7784 192.336 69.7784 191.921C69.7784 191.688 69.7247 191.499 69.6174 191.354C69.5147 191.205 69.3024 191.067 68.9804 190.941C68.6584 190.815 68.1777 190.666 67.5384 190.493C66.8524 190.306 66.3157 190.12 65.9284 189.933C65.5411 189.746 65.2657 189.532 65.1024 189.289C64.9391 189.042 64.8574 188.741 64.8574 188.386C64.8574 187.957 64.9787 187.581 65.2214 187.259C65.4641 186.932 65.8001 186.68 66.2294 186.503C66.6587 186.321 67.1581 186.23 67.7274 186.23C68.2967 186.23 68.8054 186.323 69.2534 186.51C69.7061 186.692 70.0701 186.949 70.3454 187.28C70.6207 187.611 70.7841 187.996 70.8354 188.435L69.7854 188.624C69.7154 188.181 69.4937 187.831 69.1204 187.574C68.7517 187.313 68.2827 187.177 67.7134 187.168C67.1767 187.154 66.7404 187.257 66.4044 187.476C66.0684 187.691 65.9004 187.978 65.9004 188.337C65.9004 188.538 65.9611 188.71 66.0824 188.855C66.2037 188.995 66.4231 189.128 66.7404 189.254C67.0624 189.38 67.5197 189.518 68.1124 189.667C68.8077 189.844 69.3537 190.031 69.7504 190.227C70.1471 190.423 70.4294 190.654 70.5974 190.92C70.7654 191.186 70.8494 191.515 70.8494 191.907C70.8494 192.621 70.5834 193.183 70.0514 193.594C69.5241 194 68.7961 194.203 67.8674 194.203ZM75.6009 194.21C74.8635 194.21 74.2242 194.047 73.6829 193.72C73.1462 193.393 72.7285 192.934 72.4299 192.341C72.1312 191.748 71.9819 191.053 71.9819 190.255C71.9819 189.429 72.1289 188.715 72.4229 188.113C72.7169 187.511 73.1299 187.047 73.6619 186.72C74.1985 186.393 74.8309 186.23 75.5589 186.23C76.3055 186.23 76.9425 186.403 77.4699 186.748C77.9972 187.089 78.3962 187.579 78.6669 188.218C78.9375 188.857 79.0612 189.62 79.0379 190.507H77.9879V190.143C77.9692 189.163 77.7569 188.423 77.3509 187.924C76.9495 187.425 76.3615 187.175 75.5869 187.175C74.7749 187.175 74.1519 187.439 73.7179 187.966C73.2885 188.493 73.0739 189.245 73.0739 190.22C73.0739 191.172 73.2885 191.912 73.7179 192.439C74.1519 192.962 74.7655 193.223 75.5589 193.223C76.1002 193.223 76.5715 193.099 76.9729 192.852C77.3789 192.6 77.6985 192.238 77.9319 191.767L78.8909 192.138C78.5922 192.796 78.1512 193.307 77.5679 193.671C76.9892 194.03 76.3335 194.21 75.6009 194.21ZM72.7099 190.507V189.646H78.4849V190.507H72.7099ZM83.7273 194.21C82.9667 194.21 82.3227 194.04 81.7953 193.699C81.268 193.358 80.8667 192.889 80.5913 192.292C80.3207 191.69 80.1807 190.999 80.1713 190.22C80.1807 189.427 80.3253 188.731 80.6053 188.134C80.8853 187.532 81.289 187.065 81.8163 186.734C82.3437 186.398 82.983 186.23 83.7343 186.23C84.4997 186.23 85.1647 186.417 85.7293 186.79C86.2987 187.163 86.6883 187.674 86.8983 188.323L85.8903 188.645C85.713 188.192 85.4307 187.842 85.0433 187.595C84.6607 187.343 84.222 187.217 83.7273 187.217C83.172 187.217 82.7123 187.345 82.3483 187.602C81.9843 187.854 81.7137 188.206 81.5363 188.659C81.359 189.112 81.268 189.632 81.2633 190.22C81.2727 191.125 81.4827 191.853 81.8933 192.404C82.304 192.95 82.9153 193.223 83.7273 193.223C84.2407 193.223 84.677 193.106 85.0363 192.873C85.4003 192.635 85.6757 192.29 85.8623 191.837L86.8983 192.145C86.6183 192.817 86.2077 193.33 85.6663 193.685C85.125 194.035 84.4787 194.21 83.7273 194.21ZM92.4593 194C92.0346 194.089 91.6146 194.124 91.1993 194.105C90.7886 194.086 90.4199 193.998 90.0933 193.839C89.7713 193.68 89.5263 193.433 89.3583 193.097C89.2229 192.817 89.1483 192.535 89.1343 192.25C89.1249 191.961 89.1203 191.632 89.1203 191.263V184.34H90.1423V191.221C90.1423 191.538 90.1446 191.804 90.1493 192.019C90.1586 192.229 90.2076 192.416 90.2963 192.579C90.4643 192.892 90.7303 193.078 91.0943 193.139C91.4629 193.2 91.9179 193.186 92.4593 193.097V194ZM87.5033 187.322V186.44H92.4593V187.322H87.5033ZM96.8743 194.21C96.137 194.21 95.4976 194.047 94.9563 193.72C94.4196 193.393 94.002 192.934 93.7033 192.341C93.4046 191.748 93.2553 191.053 93.2553 190.255C93.2553 189.429 93.4023 188.715 93.6963 188.113C93.9903 187.511 94.4033 187.047 94.9353 186.72C95.472 186.393 96.1043 186.23 96.8323 186.23C97.579 186.23 98.216 186.403 98.7433 186.748C99.2706 187.089 99.6696 187.579 99.9403 188.218C100.211 188.857 100.335 189.62 100.311 190.507H99.2613V190.143C99.2426 189.163 99.0303 188.423 98.6243 187.924C98.223 187.425 97.635 187.175 96.8603 187.175C96.0483 187.175 95.4253 187.439 94.9913 187.966C94.562 188.493 94.3473 189.245 94.3473 190.22C94.3473 191.172 94.562 191.912 94.9913 192.439C95.4253 192.962 96.039 193.223 96.8323 193.223C97.3736 193.223 97.845 193.099 98.2463 192.852C98.6523 192.6 98.972 192.238 99.2053 191.767L100.164 192.138C99.8656 192.796 99.4246 193.307 98.8413 193.671C98.2626 194.03 97.607 194.21 96.8743 194.21ZM93.9833 190.507V189.646H99.7583V190.507H93.9833ZM105.981 194C105.556 194.089 105.136 194.124 104.721 194.105C104.31 194.086 103.941 193.998 103.615 193.839C103.293 193.68 103.048 193.433 102.88 193.097C102.744 192.817 102.67 192.535 102.656 192.25C102.646 191.961 102.642 191.632 102.642 191.263V184.34H103.664V191.221C103.664 191.538 103.666 191.804 103.671 192.019C103.68 192.229 103.729 192.416 103.818 192.579C103.986 192.892 104.252 193.078 104.616 193.139C104.984 193.2 105.439 193.186 105.981 193.097V194ZM101.025 187.322V186.44H105.981V187.322H101.025ZM110.361 194.189C109.909 194.189 109.512 194.119 109.171 193.979C108.835 193.839 108.548 193.65 108.31 193.412C108.077 193.174 107.888 192.903 107.743 192.6C107.599 192.292 107.494 191.968 107.428 191.627C107.363 191.282 107.33 190.939 107.33 190.598V186.44H108.366V190.297C108.366 190.712 108.406 191.097 108.485 191.452C108.565 191.807 108.691 192.117 108.863 192.383C109.041 192.644 109.267 192.847 109.542 192.992C109.822 193.137 110.161 193.209 110.557 193.209C110.921 193.209 111.241 193.146 111.516 193.02C111.796 192.894 112.03 192.714 112.216 192.481C112.408 192.243 112.552 191.956 112.65 191.62C112.748 191.279 112.797 190.897 112.797 190.472L113.525 190.633C113.525 191.408 113.39 192.059 113.119 192.586C112.849 193.113 112.475 193.512 111.999 193.783C111.523 194.054 110.977 194.189 110.361 194.189ZM112.902 194V192.138H112.797V186.44H113.826V194H112.902ZM115.783 194V186.44H116.707V188.26L116.525 188.022C116.609 187.798 116.718 187.593 116.854 187.406C116.989 187.215 117.136 187.058 117.295 186.937C117.491 186.764 117.719 186.634 117.981 186.545C118.242 186.452 118.506 186.398 118.772 186.384C119.038 186.365 119.28 186.384 119.5 186.44V187.406C119.224 187.336 118.923 187.32 118.597 187.357C118.27 187.394 117.969 187.525 117.694 187.749C117.442 187.945 117.253 188.181 117.127 188.456C117.001 188.727 116.917 189.016 116.875 189.324C116.833 189.627 116.812 189.928 116.812 190.227V194H115.783ZM3.143 213.21C2.57367 213.21 2.09533 213.107 1.708 212.902C1.32533 212.697 1.03833 212.424 0.847 212.083C0.655667 211.742 0.56 211.371 0.56 210.97C0.56 210.559 0.641667 210.209 0.805 209.92C0.973 209.626 1.19933 209.386 1.484 209.199C1.77333 209.012 2.107 208.87 2.485 208.772C2.86767 208.679 3.29 208.597 3.752 208.527C4.21867 208.452 4.67367 208.389 5.117 208.338C5.565 208.282 5.957 208.228 6.293 208.177L5.929 208.401C5.943 207.654 5.79833 207.101 5.495 206.742C5.19167 206.383 4.66433 206.203 3.913 206.203C3.395 206.203 2.95633 206.32 2.597 206.553C2.24233 206.786 1.99267 207.155 1.848 207.659L0.847 207.365C1.01967 206.688 1.36733 206.163 1.89 205.79C2.41267 205.417 3.09167 205.23 3.927 205.23C4.61767 205.23 5.20333 205.361 5.684 205.622C6.16933 205.879 6.51233 206.252 6.713 206.742C6.80633 206.961 6.867 207.206 6.895 207.477C6.923 207.748 6.937 208.023 6.937 208.303V213H6.02V211.103L6.286 211.215C6.02933 211.864 5.63033 212.358 5.089 212.699C4.54767 213.04 3.899 213.21 3.143 213.21ZM3.262 212.321C3.74267 212.321 4.16267 212.235 4.522 212.062C4.88133 211.889 5.17067 211.654 5.39 211.355C5.60933 211.052 5.75167 210.711 5.817 210.333C5.873 210.09 5.90333 209.824 5.908 209.535C5.91267 209.241 5.915 209.022 5.915 208.877L6.307 209.08C5.957 209.127 5.57667 209.173 5.166 209.22C4.76 209.267 4.35867 209.32 3.962 209.381C3.57 209.442 3.21533 209.514 2.898 209.598C2.68333 209.659 2.47567 209.745 2.275 209.857C2.07433 209.964 1.90867 210.109 1.778 210.291C1.652 210.473 1.589 210.699 1.589 210.97C1.589 211.189 1.64267 211.402 1.75 211.607C1.862 211.812 2.03933 211.983 2.282 212.118C2.52933 212.253 2.856 212.321 3.262 212.321ZM11.6923 213.21C10.9876 213.21 10.3856 213.035 9.8863 212.685C9.38696 212.33 9.0043 211.852 8.7383 211.25C8.4723 210.648 8.3393 209.969 8.3393 209.213C8.3393 208.462 8.46996 207.785 8.7313 207.183C8.9973 206.581 9.37763 206.105 9.8723 205.755C10.367 205.405 10.9596 205.23 11.6503 205.23C12.3596 205.23 12.957 205.403 13.4423 205.748C13.9276 206.093 14.294 206.567 14.5413 207.169C14.7933 207.766 14.9193 208.448 14.9193 209.213C14.9193 209.964 14.7956 210.643 14.5483 211.25C14.301 211.852 13.937 212.33 13.4563 212.685C12.9756 213.035 12.3876 213.21 11.6923 213.21ZM11.7973 212.251C12.334 212.251 12.7773 212.12 13.1273 211.859C13.4773 211.598 13.7386 211.238 13.9113 210.781C14.084 210.319 14.1703 209.796 14.1703 209.213C14.1703 208.62 14.084 208.098 13.9113 207.645C13.7386 207.188 13.4773 206.831 13.1273 206.574C12.782 206.317 12.3456 206.189 11.8183 206.189C11.277 206.189 10.829 206.322 10.4743 206.588C10.1196 206.854 9.85596 207.216 9.6833 207.673C9.5153 208.13 9.4313 208.644 9.4313 209.213C9.4313 209.787 9.51763 210.305 9.6903 210.767C9.86763 211.224 10.1313 211.586 10.4813 211.852C10.8313 212.118 11.27 212.251 11.7973 212.251ZM14.1703 213V207.309H14.0583V202.92H15.0943V213H14.1703ZM17.1981 204.005V202.85H18.2271V204.005H17.1981ZM17.1981 213V205.44H18.2271V213H17.1981ZM23.7207 213.21C23.0254 213.21 22.4374 213.035 21.9567 212.685C21.476 212.33 21.112 211.852 20.8647 211.25C20.6174 210.643 20.4937 209.964 20.4937 209.213C20.4937 208.448 20.6174 207.766 20.8647 207.169C21.1167 206.567 21.4854 206.093 21.9707 205.748C22.456 205.403 23.0534 205.23 23.7627 205.23C24.4534 205.23 25.046 205.405 25.5407 205.755C26.0354 206.105 26.4134 206.581 26.6747 207.183C26.9407 207.785 27.0737 208.462 27.0737 209.213C27.0737 209.969 26.9407 210.648 26.6747 211.25C26.4087 211.852 26.026 212.33 25.5267 212.685C25.0274 213.035 24.4254 213.21 23.7207 213.21ZM20.3187 216.36V205.44H21.2427V211.131H21.3547V216.36H20.3187ZM23.6157 212.251C24.143 212.251 24.5817 212.118 24.9317 211.852C25.2817 211.586 25.543 211.224 25.7157 210.767C25.893 210.305 25.9817 209.787 25.9817 209.213C25.9817 208.644 25.8954 208.13 25.7227 207.673C25.55 207.216 25.2864 206.854 24.9317 206.588C24.5817 206.322 24.136 206.189 23.5947 206.189C23.0674 206.189 22.6287 206.317 22.2787 206.574C21.9334 206.831 21.6744 207.188 21.5017 207.645C21.329 208.098 21.2427 208.62 21.2427 209.213C21.2427 209.796 21.329 210.319 21.5017 210.781C21.6744 211.238 21.9357 211.598 22.2857 211.859C22.6357 212.12 23.079 212.251 23.6157 212.251ZM28.7509 204.005V202.85H29.7799V204.005H28.7509ZM28.7509 213V205.44H29.7799V213H28.7509ZM34.6994 213.203C33.8128 213.203 33.0824 213.012 32.5084 212.629C31.9391 212.246 31.5891 211.714 31.4584 211.033L32.5084 210.858C32.6204 211.287 32.8748 211.63 33.2714 211.887C33.6728 212.139 34.1674 212.265 34.7554 212.265C35.3294 212.265 35.7821 212.146 36.1134 211.908C36.4448 211.665 36.6104 211.336 36.6104 210.921C36.6104 210.688 36.5568 210.499 36.4494 210.354C36.3468 210.205 36.1344 210.067 35.8124 209.941C35.4904 209.815 35.0098 209.666 34.3704 209.493C33.6844 209.306 33.1478 209.12 32.7604 208.933C32.3731 208.746 32.0978 208.532 31.9344 208.289C31.7711 208.042 31.6894 207.741 31.6894 207.386C31.6894 206.957 31.8108 206.581 32.0534 206.259C32.2961 205.932 32.6321 205.68 33.0614 205.503C33.4908 205.321 33.9901 205.23 34.5594 205.23C35.1288 205.23 35.6374 205.323 36.0854 205.51C36.5381 205.692 36.9021 205.949 37.1774 206.28C37.4528 206.611 37.6161 206.996 37.6674 207.435L36.6174 207.624C36.5474 207.181 36.3258 206.831 35.9524 206.574C35.5838 206.313 35.1148 206.177 34.5454 206.168C34.0088 206.154 33.5724 206.257 33.2364 206.476C32.9004 206.691 32.7324 206.978 32.7324 207.337C32.7324 207.538 32.7931 207.71 32.9144 207.855C33.0358 207.995 33.2551 208.128 33.5724 208.254C33.8944 208.38 34.3518 208.518 34.9444 208.667C35.6398 208.844 36.1858 209.031 36.5824 209.227C36.9791 209.423 37.2614 209.654 37.4294 209.92C37.5974 210.186 37.6814 210.515 37.6814 210.907C37.6814 211.621 37.4154 212.183 36.8834 212.594C36.3561 213 35.6281 213.203 34.6994 213.203ZM42.3699 213.21C41.6092 213.21 40.9652 213.04 40.4379 212.699C39.9106 212.358 39.5092 211.889 39.2339 211.292C38.9632 210.69 38.8232 209.999 38.8139 209.22C38.8232 208.427 38.9679 207.731 39.2479 207.134C39.5279 206.532 39.9316 206.065 40.4589 205.734C40.9862 205.398 41.6256 205.23 42.3769 205.23C43.1422 205.23 43.8072 205.417 44.3719 205.79C44.9412 206.163 45.3309 206.674 45.5409 207.323L44.5329 207.645C44.3556 207.192 44.0732 206.842 43.6859 206.595C43.3032 206.343 42.8646 206.217 42.3699 206.217C41.8146 206.217 41.3549 206.345 40.9909 206.602C40.6269 206.854 40.3562 207.206 40.1789 207.659C40.0016 208.112 39.9106 208.632 39.9059 209.22C39.9152 210.125 40.1252 210.853 40.5359 211.404C40.9466 211.95 41.5579 212.223 42.3699 212.223C42.8832 212.223 43.3196 212.106 43.6789 211.873C44.0429 211.635 44.3182 211.29 44.5049 210.837L45.5409 211.145C45.2609 211.817 44.8502 212.33 44.3089 212.685C43.7676 213.035 43.1212 213.21 42.3699 213.21ZM46.9208 204.005V202.85H47.9498V204.005H46.9208ZM46.9208 213V205.44H47.9498V213H46.9208ZM55.5084 213V209.143C55.5084 208.723 55.4687 208.338 55.3894 207.988C55.31 207.633 55.1817 207.325 55.0044 207.064C54.8317 206.798 54.6054 206.593 54.3254 206.448C54.05 206.303 53.714 206.231 53.3174 206.231C52.9534 206.231 52.6314 206.294 52.3514 206.42C52.076 206.546 51.8427 206.728 51.6514 206.966C51.4647 207.199 51.3224 207.484 51.2244 207.82C51.1264 208.156 51.0774 208.539 51.0774 208.968L50.3494 208.807C50.3494 208.032 50.4847 207.381 50.7554 206.854C51.026 206.327 51.3994 205.928 51.8754 205.657C52.3514 205.386 52.8974 205.251 53.5134 205.251C53.966 205.251 54.3604 205.321 54.6964 205.461C55.037 205.601 55.324 205.79 55.5574 206.028C55.7954 206.266 55.9867 206.539 56.1314 206.847C56.276 207.15 56.381 207.475 56.4464 207.82C56.5117 208.161 56.5444 208.501 56.5444 208.842V213H55.5084ZM50.0414 213V205.44H50.9724V207.302H51.0774V213H50.0414ZM61.3639 216.57C60.9765 216.57 60.5939 216.512 60.2159 216.395C59.8425 216.283 59.4972 216.103 59.1799 215.856C58.8625 215.613 58.5965 215.296 58.3819 214.904L59.3129 214.386C59.5229 214.806 59.8169 215.107 60.1949 215.289C60.5775 215.476 60.9672 215.569 61.3639 215.569C61.9099 215.569 62.3509 215.466 62.6869 215.261C63.0275 215.06 63.2749 214.762 63.4289 214.365C63.5829 213.968 63.6575 213.474 63.6529 212.881V210.865H63.7719V205.44H64.6889V212.895C64.6889 213.11 64.6819 213.315 64.6679 213.511C64.6585 213.712 64.6375 213.908 64.6049 214.099C64.5162 214.664 64.3319 215.128 64.0519 215.492C63.7765 215.856 63.4125 216.127 62.9599 216.304C62.5119 216.481 61.9799 216.57 61.3639 216.57ZM61.2939 213.21C60.5892 213.21 59.9872 213.035 59.4879 212.685C58.9885 212.33 58.6059 211.852 58.3399 211.25C58.0739 210.648 57.9409 209.969 57.9409 209.213C57.9409 208.462 58.0715 207.785 58.3329 207.183C58.5989 206.581 58.9792 206.105 59.4739 205.755C59.9685 205.405 60.5612 205.23 61.2519 205.23C61.9612 205.23 62.5585 205.403 63.0439 205.748C63.5292 206.093 63.8955 206.567 64.1429 207.169C64.3949 207.766 64.5209 208.448 64.5209 209.213C64.5209 209.964 64.3972 210.643 64.1499 211.25C63.9025 211.852 63.5385 212.33 63.0579 212.685C62.5772 213.035 61.9892 213.21 61.2939 213.21ZM61.3989 212.251C61.9355 212.251 62.3789 212.12 62.7289 211.859C63.0789 211.598 63.3402 211.238 63.5129 210.781C63.6855 210.319 63.7719 209.796 63.7719 209.213C63.7719 208.62 63.6855 208.098 63.5129 207.645C63.3402 207.188 63.0789 206.831 62.7289 206.574C62.3835 206.317 61.9472 206.189 61.4199 206.189C60.8785 206.189 60.4305 206.322 60.0759 206.588C59.7212 206.854 59.4575 207.216 59.2849 207.673C59.1169 208.13 59.0329 208.644 59.0329 209.213C59.0329 209.787 59.1192 210.305 59.2919 210.767C59.4692 211.224 59.7329 211.586 60.0829 211.852C60.4329 212.118 60.8715 212.251 61.3989 212.251ZM72.6478 213.21C71.9104 213.21 71.2711 213.047 70.7298 212.72C70.1931 212.393 69.7754 211.934 69.4768 211.341C69.1781 210.748 69.0288 210.053 69.0288 209.255C69.0288 208.429 69.1758 207.715 69.4698 207.113C69.7638 206.511 70.1768 206.047 70.7088 205.72C71.2454 205.393 71.8778 205.23 72.6058 205.23C73.3524 205.23 73.9894 205.403 74.5168 205.748C75.0441 206.089 75.4431 206.579 75.7138 207.218C75.9844 207.857 76.1081 208.62 76.0848 209.507H75.0348V209.143C75.0161 208.163 74.8038 207.423 74.3978 206.924C73.9964 206.425 73.4084 206.175 72.6338 206.175C71.8218 206.175 71.1988 206.439 70.7648 206.966C70.3354 207.493 70.1208 208.245 70.1208 209.22C70.1208 210.172 70.3354 210.912 70.7648 211.439C71.1988 211.962 71.8124 212.223 72.6058 212.223C73.1471 212.223 73.6184 212.099 74.0198 211.852C74.4258 211.6 74.7454 211.238 74.9788 210.767L75.9378 211.138C75.6391 211.796 75.1981 212.307 74.6148 212.671C74.0361 213.03 73.3804 213.21 72.6478 213.21ZM69.7568 209.507V208.646H75.5318V209.507H69.7568ZM77.7782 213V202.71H78.8072V213H77.7782ZM81.0458 204.005V202.85H82.0748V204.005H81.0458ZM81.0458 213V205.44H82.0748V213H81.0458ZM88.2894 213C87.8647 213.089 87.4447 213.124 87.0294 213.105C86.6187 213.086 86.25 212.998 85.9234 212.839C85.6014 212.68 85.3564 212.433 85.1884 212.097C85.053 211.817 84.9784 211.535 84.9644 211.25C84.955 210.961 84.9504 210.632 84.9504 210.263V203.34H85.9724V210.221C85.9724 210.538 85.9747 210.804 85.9794 211.019C85.9887 211.229 86.0377 211.416 86.1264 211.579C86.2944 211.892 86.5604 212.078 86.9244 212.139C87.293 212.2 87.748 212.186 88.2894 212.097V213ZM83.3334 206.322V205.44H88.2894V206.322H83.3334ZM89.9748 213V211.803H91.1718V213H89.9748ZM96.1363 213V202.92H99.1953C99.3026 202.92 99.4846 202.922 99.7413 202.927C100.003 202.932 100.252 202.95 100.49 202.983C101.256 203.09 101.895 203.375 102.408 203.837C102.922 204.299 103.307 204.887 103.563 205.601C103.82 206.315 103.948 207.101 103.948 207.96C103.948 208.819 103.82 209.605 103.563 210.319C103.307 211.033 102.922 211.621 102.408 212.083C101.895 212.545 101.256 212.83 100.49 212.937C100.257 212.965 100.007 212.984 99.7413 212.993C99.4753 212.998 99.2933 213 99.1953 213H96.1363ZM97.2003 212.013H99.1953C99.3866 212.013 99.5919 212.008 99.8113 211.999C100.035 211.985 100.227 211.962 100.385 211.929C100.973 211.826 101.447 211.588 101.806 211.215C102.17 210.842 102.436 210.375 102.604 209.815C102.772 209.25 102.856 208.632 102.856 207.96C102.856 207.283 102.772 206.663 102.604 206.098C102.436 205.533 102.17 205.067 101.806 204.698C101.442 204.329 100.969 204.094 100.385 203.991C100.227 203.958 100.033 203.937 99.8043 203.928C99.5803 203.914 99.3773 203.907 99.1953 203.907H97.2003V212.013ZM108.7 213.21C107.948 213.21 107.307 213.04 106.775 212.699C106.243 212.358 105.834 211.887 105.55 211.285C105.265 210.683 105.123 209.992 105.123 209.213C105.123 208.42 105.267 207.724 105.557 207.127C105.846 206.53 106.257 206.065 106.789 205.734C107.325 205.398 107.962 205.23 108.7 205.23C109.456 205.23 110.1 205.4 110.632 205.741C111.168 206.077 111.577 206.546 111.857 207.148C112.141 207.745 112.284 208.434 112.284 209.213C112.284 210.006 112.141 210.704 111.857 211.306C111.572 211.903 111.161 212.37 110.625 212.706C110.088 213.042 109.446 213.21 108.7 213.21ZM108.7 212.223C109.54 212.223 110.165 211.945 110.576 211.39C110.986 210.83 111.192 210.104 111.192 209.213C111.192 208.298 110.984 207.57 110.569 207.029C110.158 206.488 109.535 206.217 108.7 206.217C108.135 206.217 107.668 206.345 107.3 206.602C106.936 206.854 106.663 207.206 106.481 207.659C106.303 208.107 106.215 208.625 106.215 209.213C106.215 210.123 106.425 210.853 106.845 211.404C107.265 211.95 107.883 212.223 108.7 212.223ZM119.288 213V209.143C119.288 208.723 119.248 208.338 119.169 207.988C119.089 207.633 118.961 207.325 118.784 207.064C118.611 206.798 118.385 206.593 118.105 206.448C117.829 206.303 117.493 206.231 117.097 206.231C116.733 206.231 116.411 206.294 116.131 206.42C115.855 206.546 115.622 206.728 115.431 206.966C115.244 207.199 115.102 207.484 115.004 207.82C114.906 208.156 114.857 208.539 114.857 208.968L114.129 208.807C114.129 208.032 114.264 207.381 114.535 206.854C114.805 206.327 115.179 205.928 115.655 205.657C116.131 205.386 116.677 205.251 117.293 205.251C117.745 205.251 118.14 205.321 118.476 205.461C118.816 205.601 119.103 205.79 119.337 206.028C119.575 206.266 119.766 206.539 119.911 206.847C120.055 207.15 120.16 207.475 120.226 207.82C120.291 208.161 120.324 208.501 120.324 208.842V213H119.288ZM113.821 213V205.44H114.752V207.302H114.857V213H113.821ZM125.298 213.21C124.561 213.21 123.921 213.047 123.38 212.72C122.843 212.393 122.426 211.934 122.127 211.341C121.828 210.748 121.679 210.053 121.679 209.255C121.679 208.429 121.826 207.715 122.12 207.113C122.414 206.511 122.827 206.047 123.359 205.72C123.896 205.393 124.528 205.23 125.256 205.23C126.003 205.23 126.64 205.403 127.167 205.748C127.694 206.089 128.093 206.579 128.364 207.218C128.635 207.857 128.758 208.62 128.735 209.507H127.685V209.143C127.666 208.163 127.454 207.423 127.048 206.924C126.647 206.425 126.059 206.175 125.284 206.175C124.472 206.175 123.849 206.439 123.415 206.966C122.986 207.493 122.771 208.245 122.771 209.22C122.771 210.172 122.986 210.912 123.415 211.439C123.849 211.962 124.463 212.223 125.256 212.223C125.797 212.223 126.269 212.099 126.67 211.852C127.076 211.6 127.396 211.238 127.629 210.767L128.588 211.138C128.289 211.796 127.848 212.307 127.265 212.671C126.686 213.03 126.031 213.21 125.298 213.21ZM122.407 209.507V208.646H128.182V209.507H122.407ZM133.425 213.21C132.664 213.21 132.02 213.04 131.493 212.699C130.965 212.358 130.564 211.889 130.289 211.292C130.018 210.69 129.878 209.999 129.869 209.22C129.878 208.427 130.023 207.731 130.303 207.134C130.583 206.532 130.986 206.065 131.514 205.734C132.041 205.398 132.68 205.23 133.432 205.23C134.197 205.23 134.862 205.417 135.427 205.79C135.996 206.163 136.386 206.674 136.596 207.323L135.588 207.645C135.41 207.192 135.128 206.842 134.741 206.595C134.358 206.343 133.919 206.217 133.425 206.217C132.869 206.217 132.41 206.345 132.046 206.602C131.682 206.854 131.411 207.206 131.234 207.659C131.056 208.112 130.965 208.632 130.961 209.22C130.97 210.125 131.18 210.853 131.591 211.404C132.001 211.95 132.613 212.223 133.425 212.223C133.938 212.223 134.374 212.106 134.734 211.873C135.098 211.635 135.373 211.29 135.56 210.837L136.596 211.145C136.316 211.817 135.905 212.33 135.364 212.685C134.822 213.035 134.176 213.21 133.425 213.21ZM1.729 232V223.88C1.729 223.684 1.73833 223.49 1.757 223.299C1.78033 223.108 1.82467 222.926 1.89 222.753C1.95533 222.576 2.058 222.412 2.198 222.263C2.352 222.095 2.52 221.974 2.702 221.899C2.884 221.82 3.073 221.768 3.269 221.745C3.46967 221.722 3.66567 221.71 3.857 221.71H4.823V222.578H3.927C3.535 222.578 3.241 222.674 3.045 222.865C2.85367 223.056 2.758 223.357 2.758 223.768V232H1.729ZM0.42 225.322V224.44H4.823V225.322H0.42ZM8.86845 232.21C8.13112 232.21 7.49179 232.047 6.95045 231.72C6.41379 231.393 5.99612 230.934 5.69745 230.341C5.39879 229.748 5.24945 229.053 5.24945 228.255C5.24945 227.429 5.39645 226.715 5.69045 226.113C5.98445 225.511 6.39745 225.047 6.92945 224.72C7.46612 224.393 8.09845 224.23 8.82645 224.23C9.57312 224.23 10.2101 224.403 10.7375 224.748C11.2648 225.089 11.6638 225.579 11.9345 226.218C12.2051 226.857 12.3288 227.62 12.3055 228.507H11.2555V228.143C11.2368 227.163 11.0245 226.423 10.6185 225.924C10.2171 225.425 9.62912 225.175 8.85445 225.175C8.04245 225.175 7.41945 225.439 6.98545 225.966C6.55612 226.493 6.34145 227.245 6.34145 228.22C6.34145 229.172 6.55612 229.912 6.98545 230.439C7.41945 230.962 8.03312 231.223 8.82645 231.223C9.36779 231.223 9.83912 231.099 10.2405 230.852C10.6465 230.6 10.9661 230.238 11.1995 229.767L12.1585 230.138C11.8598 230.796 11.4188 231.307 10.8355 231.671C10.2568 232.03 9.60112 232.21 8.86845 232.21ZM5.97745 228.507V227.646H11.7525V228.507H5.97745ZM13.9989 232V221.71H15.0279V232H13.9989ZM17.2665 223.005V221.85H18.2955V223.005H17.2665ZM17.2665 232V224.44H18.2955V232H17.2665ZM23.2151 232.203C22.3284 232.203 21.5981 232.012 21.0241 231.629C20.4547 231.246 20.1047 230.714 19.9741 230.033L21.0241 229.858C21.1361 230.287 21.3904 230.63 21.7871 230.887C22.1884 231.139 22.6831 231.265 23.2711 231.265C23.8451 231.265 24.2977 231.146 24.6291 230.908C24.9604 230.665 25.1261 230.336 25.1261 229.921C25.1261 229.688 25.0724 229.499 24.9651 229.354C24.8624 229.205 24.6501 229.067 24.3281 228.941C24.0061 228.815 23.5254 228.666 22.8861 228.493C22.2001 228.306 21.6634 228.12 21.2761 227.933C20.8887 227.746 20.6134 227.532 20.4501 227.289C20.2867 227.042 20.2051 226.741 20.2051 226.386C20.2051 225.957 20.3264 225.581 20.5691 225.259C20.8117 224.932 21.1477 224.68 21.5771 224.503C22.0064 224.321 22.5057 224.23 23.0751 224.23C23.6444 224.23 24.1531 224.323 24.6011 224.51C25.0537 224.692 25.4177 224.949 25.6931 225.28C25.9684 225.611 26.1317 225.996 26.1831 226.435L25.1331 226.624C25.0631 226.181 24.8414 225.831 24.4681 225.574C24.0994 225.313 23.6304 225.177 23.0611 225.168C22.5244 225.154 22.0881 225.257 21.7521 225.476C21.4161 225.691 21.2481 225.978 21.2481 226.337C21.2481 226.538 21.3087 226.71 21.4301 226.855C21.5514 226.995 21.7707 227.128 22.0881 227.254C22.4101 227.38 22.8674 227.518 23.4601 227.667C24.1554 227.844 24.7014 228.031 25.0981 228.227C25.4947 228.423 25.7771 228.654 25.9451 228.92C26.1131 229.186 26.1971 229.515 26.1971 229.907C26.1971 230.621 25.9311 231.183 25.3991 231.594C24.8717 232 24.1437 232.203 23.2151 232.203ZM27.6095 233.463L27.6725 232.952C27.8592 232.966 27.9945 232.929 28.0785 232.84C28.1625 232.751 28.2139 232.632 28.2325 232.483C28.2512 232.334 28.2559 232.173 28.2465 232H27.6095V230.523H28.8065V232.28C28.8065 232.709 28.6969 233.031 28.4775 233.246C28.2629 233.461 27.9735 233.533 27.6095 233.463ZM37.092 232.203C36.2053 232.203 35.475 232.012 34.901 231.629C34.3317 231.246 33.9817 230.714 33.851 230.033L34.901 229.858C35.013 230.287 35.2673 230.63 35.664 230.887C36.0653 231.139 36.56 231.265 37.148 231.265C37.722 231.265 38.1747 231.146 38.506 230.908C38.8373 230.665 39.003 230.336 39.003 229.921C39.003 229.688 38.9493 229.499 38.842 229.354C38.7393 229.205 38.527 229.067 38.205 228.941C37.883 228.815 37.4023 228.666 36.763 228.493C36.077 228.306 35.5403 228.12 35.153 227.933C34.7657 227.746 34.4903 227.532 34.327 227.289C34.1637 227.042 34.082 226.741 34.082 226.386C34.082 225.957 34.2033 225.581 34.446 225.259C34.6887 224.932 35.0247 224.68 35.454 224.503C35.8833 224.321 36.3827 224.23 36.952 224.23C37.5213 224.23 38.03 224.323 38.478 224.51C38.9307 224.692 39.2947 224.949 39.57 225.28C39.8453 225.611 40.0087 225.996 40.06 226.435L39.01 226.624C38.94 226.181 38.7183 225.831 38.345 225.574C37.9763 225.313 37.5073 225.177 36.938 225.168C36.4013 225.154 35.965 225.257 35.629 225.476C35.293 225.691 35.125 225.978 35.125 226.337C35.125 226.538 35.1857 226.71 35.307 226.855C35.4283 226.995 35.6477 227.128 35.965 227.254C36.287 227.38 36.7443 227.518 37.337 227.667C38.0323 227.844 38.5783 228.031 38.975 228.227C39.3717 228.423 39.654 228.654 39.822 228.92C39.99 229.186 40.074 229.515 40.074 229.907C40.074 230.621 39.808 231.183 39.276 231.594C38.7487 232 38.0207 232.203 37.092 232.203ZM44.5175 232.189C44.0648 232.189 43.6682 232.119 43.3275 231.979C42.9915 231.839 42.7045 231.65 42.4665 231.412C42.2332 231.174 42.0442 230.903 41.8995 230.6C41.7548 230.292 41.6498 229.968 41.5845 229.627C41.5192 229.282 41.4865 228.939 41.4865 228.598V224.44H42.5225V228.297C42.5225 228.712 42.5622 229.097 42.6415 229.452C42.7208 229.807 42.8468 230.117 43.0195 230.383C43.1968 230.644 43.4232 230.847 43.6985 230.992C43.9785 231.137 44.3168 231.209 44.7135 231.209C45.0775 231.209 45.3972 231.146 45.6725 231.02C45.9525 230.894 46.1858 230.714 46.3725 230.481C46.5638 230.243 46.7085 229.956 46.8065 229.62C46.9045 229.279 46.9535 228.897 46.9535 228.472L47.6815 228.633C47.6815 229.408 47.5462 230.059 47.2755 230.586C47.0048 231.113 46.6315 231.512 46.1555 231.783C45.6795 232.054 45.1335 232.189 44.5175 232.189ZM47.0585 232V230.138H46.9535V224.44H47.9825V232H47.0585ZM52.76 232.203C51.8733 232.203 51.143 232.012 50.569 231.629C49.9997 231.246 49.6497 230.714 49.519 230.033L50.569 229.858C50.681 230.287 50.9353 230.63 51.332 230.887C51.7333 231.139 52.228 231.265 52.816 231.265C53.39 231.265 53.8427 231.146 54.174 230.908C54.5053 230.665 54.671 230.336 54.671 229.921C54.671 229.688 54.6173 229.499 54.51 229.354C54.4073 229.205 54.195 229.067 53.873 228.941C53.551 228.815 53.0703 228.666 52.431 228.493C51.745 228.306 51.2083 228.12 50.821 227.933C50.4337 227.746 50.1583 227.532 49.995 227.289C49.8317 227.042 49.75 226.741 49.75 226.386C49.75 225.957 49.8713 225.581 50.114 225.259C50.3567 224.932 50.6927 224.68 51.122 224.503C51.5513 224.321 52.0507 224.23 52.62 224.23C53.1893 224.23 53.698 224.323 54.146 224.51C54.5987 224.692 54.9627 224.949 55.238 225.28C55.5133 225.611 55.6767 225.996 55.728 226.435L54.678 226.624C54.608 226.181 54.3863 225.831 54.013 225.574C53.6443 225.313 53.1753 225.177 52.606 225.168C52.0693 225.154 51.633 225.257 51.297 225.476C50.961 225.691 50.793 225.978 50.793 226.337C50.793 226.538 50.8537 226.71 50.975 226.855C51.0963 226.995 51.3157 227.128 51.633 227.254C51.955 227.38 52.4123 227.518 53.005 227.667C53.7003 227.844 54.2463 228.031 54.643 228.227C55.0397 228.423 55.322 228.654 55.49 228.92C55.658 229.186 55.742 229.515 55.742 229.907C55.742 230.621 55.476 231.183 54.944 231.594C54.4167 232 53.6887 232.203 52.76 232.203ZM60.4305 232.21C59.6698 232.21 59.0258 232.04 58.4985 231.699C57.9711 231.358 57.5698 230.889 57.2945 230.292C57.0238 229.69 56.8838 228.999 56.8745 228.22C56.8838 227.427 57.0285 226.731 57.3085 226.134C57.5885 225.532 57.9921 225.065 58.5195 224.734C59.0468 224.398 59.6861 224.23 60.4375 224.23C61.2028 224.23 61.8678 224.417 62.4325 224.79C63.0018 225.163 63.3915 225.674 63.6015 226.323L62.5935 226.645C62.4161 226.192 62.1338 225.842 61.7465 225.595C61.3638 225.343 60.9251 225.217 60.4305 225.217C59.8751 225.217 59.4155 225.345 59.0515 225.602C58.6875 225.854 58.4168 226.206 58.2395 226.659C58.0621 227.112 57.9711 227.632 57.9665 228.22C57.9758 229.125 58.1858 229.853 58.5965 230.404C59.0071 230.95 59.6185 231.223 60.4305 231.223C60.9438 231.223 61.3801 231.106 61.7395 230.873C62.1035 230.635 62.3788 230.29 62.5655 229.837L63.6015 230.145C63.3215 230.817 62.9108 231.33 62.3695 231.685C61.8281 232.035 61.1818 232.21 60.4305 232.21ZM64.9813 223.005V221.85H66.0103V223.005H64.9813ZM64.9813 232V224.44H66.0103V232H64.9813ZM71.5039 232.21C70.8086 232.21 70.2206 232.035 69.7399 231.685C69.2592 231.33 68.8952 230.852 68.6479 230.25C68.4006 229.643 68.2769 228.964 68.2769 228.213C68.2769 227.448 68.4006 226.766 68.6479 226.169C68.8999 225.567 69.2686 225.093 69.7539 224.748C70.2392 224.403 70.8366 224.23 71.5459 224.23C72.2366 224.23 72.8292 224.405 73.3239 224.755C73.8186 225.105 74.1966 225.581 74.4579 226.183C74.7239 226.785 74.8569 227.462 74.8569 228.213C74.8569 228.969 74.7239 229.648 74.4579 230.25C74.1919 230.852 73.8092 231.33 73.3099 231.685C72.8106 232.035 72.2086 232.21 71.5039 232.21ZM68.1019 235.36V224.44H69.0259V230.131H69.1379V235.36H68.1019ZM71.3989 231.251C71.9262 231.251 72.3649 231.118 72.7149 230.852C73.0649 230.586 73.3262 230.224 73.4989 229.767C73.6762 229.305 73.7649 228.787 73.7649 228.213C73.7649 227.644 73.6786 227.13 73.5059 226.673C73.3332 226.216 73.0696 225.854 72.7149 225.588C72.3649 225.322 71.9192 225.189 71.3779 225.189C70.8506 225.189 70.4119 225.317 70.0619 225.574C69.7166 225.831 69.4576 226.188 69.2849 226.645C69.1122 227.098 69.0259 227.62 69.0259 228.213C69.0259 228.796 69.1122 229.319 69.2849 229.781C69.4576 230.238 69.7189 230.598 70.0689 230.859C70.4189 231.12 70.8622 231.251 71.3989 231.251ZM76.5341 223.005V221.85H77.5631V223.005H76.5341ZM76.5341 232V224.44H77.5631V232H76.5341ZM83.7776 232C83.353 232.089 82.933 232.124 82.5176 232.105C82.107 232.086 81.7383 231.998 81.4116 231.839C81.0896 231.68 80.8446 231.433 80.6766 231.097C80.5413 230.817 80.4666 230.535 80.4526 230.25C80.4433 229.961 80.4386 229.632 80.4386 229.263V222.34H81.4606V229.221C81.4606 229.538 81.463 229.804 81.4676 230.019C81.477 230.229 81.526 230.416 81.6146 230.579C81.7826 230.892 82.0486 231.078 82.4126 231.139C82.7813 231.2 83.2363 231.186 83.7776 231.097V232ZM78.8216 225.322V224.44H83.7776V225.322H78.8216Z" fill="#676767"/>
<path d="M44.8635 20C47.5435 20 48.8835 21.824 48.8835 23.914C48.8835 26.524 46.5555 28.938 43.5255 28.938C40.9875 28.938 39.5075 27.438 39.5775 24.958C39.5775 22.872 41.3395 20 44.8635 20ZM36.6175 60C34.5015 60 32.9515 58.696 34.4315 52.952L36.8595 42.768C37.2815 41.14 37.3515 40.486 36.8595 40.486C36.2255 40.486 33.4815 41.61 31.8555 42.72L30.7995 40.96C35.9435 36.588 41.8615 34.026 44.4015 34.026C46.5155 34.026 46.8675 36.572 45.8115 40.486L43.0295 51.19C42.5375 53.08 42.7475 53.732 43.2415 53.732C43.8755 53.732 45.9555 52.948 47.9995 51.318L49.1995 52.946C44.1955 58.04 38.7295 60 36.6175 60Z" fill="white"/>
</svg>
