<svg width="50" height="50" viewBox="0 0 50 50" fill="none" xmlns="http://www.w3.org/2000/svg">
<rect width="50" height="50" rx="25" fill="white" fill-opacity="0.2"/>
<path d="M31.5375 21.75C31.5375 21.9062 31.5375 22.0312 31.5375 22.1875C31.5375 26.5312 28.2563 31.5 22.225 31.5C20.35 31.5 18.6313 30.9688 17.1938 30.0312C17.4438 30.0625 17.6938 30.0938 17.975 30.0938C19.5063 30.0938 20.9125 29.5625 22.0375 28.6875C20.6 28.6562 19.3813 27.7188 18.975 26.4062C19.1938 26.4375 19.3813 26.4688 19.6 26.4688C19.8813 26.4688 20.1938 26.4062 20.4438 26.3438C18.9438 26.0312 17.8188 24.7188 17.8188 23.125V23.0938C18.2563 23.3438 18.7875 23.4688 19.3188 23.5C18.4125 22.9062 17.85 21.9062 17.85 20.7812C17.85 20.1562 18.0063 19.5938 18.2875 19.125C19.9125 21.0938 22.35 22.4062 25.0688 22.5625C25.0063 22.3125 24.975 22.0625 24.975 21.8125C24.975 20 26.4438 18.5312 28.2563 18.5312C29.1938 18.5312 30.0375 18.9062 30.6625 19.5625C31.3813 19.4062 32.1 19.125 32.725 18.75C32.475 19.5312 31.975 20.1562 31.2875 20.5625C31.9438 20.5 32.6 20.3125 33.1625 20.0625C32.725 20.7188 32.1625 21.2812 31.5375 21.75Z" fill="white"/>
</svg>
