<svg width="34" height="34" viewBox="0 0 34 34" fill="none" xmlns="http://www.w3.org/2000/svg">
<circle cx="17" cy="17" r="17" fill="#1E1E1E"/>
<path d="M11.62 15.79C13.06 18.62 15.38 20.93 18.21 22.38L20.41 20.18C20.68 19.91 21.08 19.82 21.43 19.94C22.55 20.31 23.76 20.51 25 20.51C25.55 20.51 26 20.96 26 21.51V25C26 25.55 25.55 26 25 26C15.61 26 8 18.39 8 9C8 8.45 8.45 8 9 8H12.5C13.05 8 13.5 8.45 13.5 9C13.5 10.25 13.7 11.45 14.07 12.57C14.18 12.92 14.1 13.31 13.82 13.59L11.62 15.79Z" fill="white"/>
</svg>
