<svg width="20" height="20" viewBox="0 0 20 20" fill="none" xmlns="http://www.w3.org/2000/svg">
<g clip-path="url(#clip0_1_81)">
<path d="M14.1667 2.49992H17.5C17.721 2.49992 17.933 2.58772 18.0893 2.744C18.2455 2.90028 18.3333 3.11224 18.3333 3.33325V16.6666C18.3333 16.8876 18.2455 17.0996 18.0893 17.2558C17.933 17.4121 17.721 17.4999 17.5 17.4999H2.50001C2.27899 17.4999 2.06703 17.4121 1.91075 17.2558C1.75447 17.0996 1.66667 16.8876 1.66667 16.6666V3.33325C1.66667 3.11224 1.75447 2.90028 1.91075 2.744C2.06703 2.58772 2.27899 2.49992 2.50001 2.49992H5.83334V0.833252H7.5V2.49992H12.5V0.833252H14.1667V2.49992ZM3.33334 7.49992V15.8333H16.6667V7.49992H3.33334ZM5.00001 10.8333H9.16667V14.1666H5.00001V10.8333Z" fill="#64666B"/>
</g>
<defs>
<clipPath id="clip0_1_81">
<rect width="20" height="20" fill="white"/>
</clipPath>
</defs>
</svg>
